<svg xmlns="http://www.w3.org/2000/svg" viewBox="0 0 1366 1176.76"><defs><style>.cls-1{fill:#5fa269;}.cls-2{fill:#fff;}.cls-3{fill:#f9eccc;opacity:0.6;}.cls-4{fill:#474749;}.cls-5{fill:#daf9db;}</style></defs><title>Asset 1</title><g id="Layer_2" data-name="Layer 2"><g id="Layer_2-2" data-name="Layer 2"><g id="Layer_1-2" data-name="Layer 1-2"><g id="Layer_2-2-2" data-name="Layer 2-2"><path class="cls-1" d="M397,0s7,36.81-78,46c-74,8-123,6-123,6s-54,1.08-65,2c-36,3-60,3-81,5C29.87,60.92,1,53,1,53V0Z"/></g><path class="cls-2" d="M34.27,23.75h3.44V24a6.2,6.2,0,0,1-.22,1.66,3.81,3.81,0,0,1-3.68,2.55,4,4,0,0,1-3-1.26,4.34,4.34,0,0,1,4.92-7,5.22,5.22,0,0,1,1.59,1.29l-.9.85A3,3,0,0,0,34,20.79a3.09,3.09,0,0,0-3.11,3.15,3.13,3.13,0,0,0,3,3.13,2.49,2.49,0,0,0,1.66-.63,2.21,2.21,0,0,0,.83-1.51H34.27Z"/><path class="cls-2" d="M40.54,19.77v5a2.74,2.74,0,0,0,.35,1.56,1.87,1.87,0,0,0,2.62.38,2,2,0,0,0,.38-.38,2.74,2.74,0,0,0,.35-1.56v-5h1.25v5.35a3,3,0,0,1-.82,2.17,3.07,3.07,0,0,1-5.33-2.17V19.77Z"/><path class="cls-2" d="M48.69,19.77v8.31H47.43V19.77Z"/><path class="cls-2" d="M50.69,28.08V19.77h1.74a6.14,6.14,0,0,1,2,.25,3.62,3.62,0,0,1,1.42.82,4,4,0,0,1,1.29,3.09A4,4,0,0,1,55.77,27a3.85,3.85,0,0,1-1.41.82,6.44,6.44,0,0,1-2,.23Zm1.25-1.18h.57a4.76,4.76,0,0,0,1.4-.17,3,3,0,0,0,1-.6,2.83,2.83,0,0,0,.93-2.2,2.9,2.9,0,0,0-.92-2.22A3.43,3.43,0,0,0,52.51,21h-.57Z"/><path class="cls-2" d="M63.28,21H60v2h3.23v1.18H60V26.9h3.33v1.18H58.69V19.77h4.59Z"/><path class="cls-2" d="M70.63,21v7.13H69.37V21H67.46V19.77h5.07V21Z"/><path class="cls-2" d="M73,23.89a4.06,4.06,0,0,1,1.29-3,4.23,4.23,0,0,1,3.08-1.26A4.34,4.34,0,0,1,81.7,24a4.06,4.06,0,0,1-1.29,3,4.39,4.39,0,0,1-6,.14A4.06,4.06,0,0,1,73,23.89Zm1.27,0a3.08,3.08,0,0,0,5.26,2.25,3.23,3.23,0,0,0,0-4.46,2.91,2.91,0,0,0-2.18-.91,3.11,3.11,0,0,0-3.11,3.14Z"/><path class="cls-2" d="M91.53,26.06H88l-.92,2H85.69l4.12-8.83,4,8.83H92.4ZM91,24.89l-1.23-2.83-1.3,2.83Z"/><path class="cls-2" d="M100.57,20.22V21.7a3.5,3.5,0,0,0-2.25-.91,2.9,2.9,0,0,0-2.16.92A3.1,3.1,0,0,0,95.28,24a3,3,0,0,0,.88,2.21,2.91,2.91,0,0,0,2.17.9,2.69,2.69,0,0,0,1.12-.21,2.86,2.86,0,0,0,.54-.3,4.92,4.92,0,0,0,.58-.44v1.52a4.6,4.6,0,0,1-2.26.6A4.35,4.35,0,0,1,94,24a4.3,4.3,0,0,1,1-2.83,4.51,4.51,0,0,1,5.57-1Z"/><path class="cls-2" d="M108.3,20.22V21.7a3.5,3.5,0,0,0-2.25-.91,2.9,2.9,0,0,0-2.16.92A3.11,3.11,0,0,0,103,24a3,3,0,0,0,.88,2.21,2.91,2.91,0,0,0,2.17.9,2.69,2.69,0,0,0,1.12-.21,3.55,3.55,0,0,0,.54-.3,4.92,4.92,0,0,0,.58-.44v1.52a4.6,4.6,0,0,1-2.26.6A4.17,4.17,0,0,1,103,27a4.13,4.13,0,0,1-1.26-3,4.26,4.26,0,0,1,1.05-2.83,4.33,4.33,0,0,1,5.51-.91Z"/><path class="cls-2" d="M114.47,21h-3.33v2h3.24v1.18h-3.24V26.9h3.33v1.18h-4.59V19.77h4.59Z"/><path class="cls-2" d="M120.82,21l-1,.6a1.88,1.88,0,0,0-.54-.65,1.32,1.32,0,0,0-.7-.17,1.29,1.29,0,0,0-.86.3,1,1,0,0,0-.35.73c0,.41.3.73.91,1l.83.34a3.57,3.57,0,0,1,1.48,1,2.23,2.23,0,0,1,.47,1.45,2.53,2.53,0,0,1-.77,1.89,2.62,2.62,0,0,1-1.91.75,2.5,2.5,0,0,1-1.79-.64,2.89,2.89,0,0,1-.86-1.8l1.27-.28a2,2,0,0,0,.3,1,1.43,1.43,0,0,0,2,.23l.09-.08a1.39,1.39,0,0,0,.39-1,1.31,1.31,0,0,0-.07-.44.91.91,0,0,0-.21-.37,1.26,1.26,0,0,0-.37-.32,3.84,3.84,0,0,0-.53-.28l-.81-.34a2.31,2.31,0,0,1-1.7-2.11,2,2,0,0,1,.71-1.57,2.62,2.62,0,0,1,1.79-.63A2.48,2.48,0,0,1,120.82,21Z"/><path class="cls-2" d="M127.25,21l-1,.6a1.88,1.88,0,0,0-.54-.65,1.32,1.32,0,0,0-.7-.17,1.29,1.29,0,0,0-.86.3,1,1,0,0,0-.35.73c0,.41.3.73.91,1l.83.34a3.57,3.57,0,0,1,1.48,1,2.23,2.23,0,0,1,.47,1.45,2.53,2.53,0,0,1-.77,1.89,2.62,2.62,0,0,1-1.91.75A2.5,2.5,0,0,1,123,27.6a3,3,0,0,1-.87-1.8l1.28-.28a2,2,0,0,0,.3,1,1.43,1.43,0,0,0,2,.23l.09-.08a1.39,1.39,0,0,0,.39-1,1.31,1.31,0,0,0-.07-.44.91.91,0,0,0-.21-.37,1.26,1.26,0,0,0-.37-.32,3.84,3.84,0,0,0-.53-.28l-.81-.34a2.31,2.31,0,0,1-1.7-2.11,2,2,0,0,1,.71-1.57,2.58,2.58,0,0,1,1.78-.63A2.49,2.49,0,0,1,127.25,21Z"/><path class="cls-2" d="M130.23,19.77v8.31H129V19.77Z"/><path class="cls-2" d="M132.23,28.08V19.77h1.25a5.41,5.41,0,0,1,1.33.13,2,2,0,0,1,.85.43,2.21,2.21,0,0,1,.55.8,2.46,2.46,0,0,1,.21,1,2,2,0,0,1-.68,1.51,2,2,0,0,1,1,.79A2.39,2.39,0,0,1,135.51,28a5.67,5.67,0,0,1-1.42.15Zm1.26-4.74h.39a1.39,1.39,0,0,0,1-.31,1.23,1.23,0,0,0,.32-.91,1.18,1.18,0,0,0-.33-.89,1.39,1.39,0,0,0-1-.31h-.44Zm0,3.56h.77a1.92,1.92,0,0,0,1.25-.33,1.14,1.14,0,0,0,.42-.91,1.17,1.17,0,0,0-.4-.91,2.13,2.13,0,0,0-1.41-.36h-.63Z"/><path class="cls-2" d="M140,19.77V26.9h2.44v1.18h-3.7V19.77Z"/><path class="cls-2" d="M148.23,21H144.9v2h3.23v1.18H144.9V26.9h3.33v1.18h-4.59V19.77h4.59Z"/><path class="cls-2" d="M156.55,23.46l1.5,1.81v-.06q.24-.26.45-.51l.42-.51.82.84a6.25,6.25,0,0,1-.4.5c-.16.19-.36.41-.58.65l1.54,1.9h-1.56l-.83-1a3.38,3.38,0,0,1-2.38,1.18,2.7,2.7,0,0,1-1.87-.71,2.35,2.35,0,0,1-.76-1.76,2.43,2.43,0,0,1,1.2-2.06l.54-.37h0l.08-.06a2.56,2.56,0,0,1-.83-1.73,1.82,1.82,0,0,1,.55-1.37,2.05,2.05,0,0,1,1.45-.53,2,2,0,0,1,1.41.52,1.68,1.68,0,0,1,.56,1.29,1.63,1.63,0,0,1-.31,1A5.16,5.16,0,0,1,156.55,23.46Zm-1,.7-.07.05a6.31,6.31,0,0,0-1,.86,1,1,0,0,0-.27.68,1.36,1.36,0,0,0,.41.95,1.34,1.34,0,0,0,1,.41,2.61,2.61,0,0,0,1.68-.95Zm.27-1.58.11-.08c.17-.13.32-.25.43-.35a1.48,1.48,0,0,0,.25-.25.72.72,0,0,0,.16-.49.67.67,0,0,0-.22-.53.91.91,0,0,0-1.16,0,.65.65,0,0,0-.23.52,1.13,1.13,0,0,0,.29.72l.31.37Z"/><path class="cls-2" d="M167.56,24.54l2.58,3.54H168.6l-2.37-3.4H166v3.4h-1.25V19.77h1.47a3.72,3.72,0,0,1,2.38.62,2.3,2.3,0,0,1,.81,1.82,2.39,2.39,0,0,1-.51,1.52A2.27,2.27,0,0,1,167.56,24.54ZM166,23.59h.4c1.19,0,1.78-.46,1.78-1.36S167.6,21,166.45,21H166Z"/><path class="cls-2" d="M176,21h-3.34v2h3.24v1.18h-3.24V26.9H176v1.18h-4.59V19.77H176Z"/><path class="cls-2" d="M182.32,21l-1,.6a1.82,1.82,0,0,0-.55-.65,1.44,1.44,0,0,0-1.56.13.91.91,0,0,0-.34.73c0,.41.3.73.9,1l.83.34a3.57,3.57,0,0,1,1.48,1,2.23,2.23,0,0,1,.47,1.45,2.53,2.53,0,0,1-.77,1.89,2.62,2.62,0,0,1-1.91.75,2.54,2.54,0,0,1-1.78-.64,2.82,2.82,0,0,1-.87-1.8l1.27-.28a2.2,2.2,0,0,0,.3,1,1.46,1.46,0,0,0,2.13.15,1.42,1.42,0,0,0,.38-1,1.61,1.61,0,0,0-.06-.44,1.36,1.36,0,0,0-.21-.37,1.89,1.89,0,0,0-.37-.32,3.45,3.45,0,0,0-.54-.28l-.8-.34c-1.14-.48-1.71-1.18-1.71-2.11a2,2,0,0,1,.72-1.57,2.58,2.58,0,0,1,1.78-.63A2.46,2.46,0,0,1,182.32,21Z"/><path class="cls-2" d="M185.31,24.71v3.37h-1.26V19.77h1.42a6,6,0,0,1,1.58.15,2.06,2.06,0,0,1,.95.54,2.36,2.36,0,0,1,.72,1.77A2.28,2.28,0,0,1,188,24a3,3,0,0,1-2.06.67Zm0-1.17h.47c1.15,0,1.72-.44,1.72-1.33s-.59-1.28-1.78-1.28h-.41Z"/><path class="cls-2" d="M189.59,23.89a4.06,4.06,0,0,1,1.29-3A4.26,4.26,0,0,1,194,19.61a4.34,4.34,0,0,1,4.33,4.33A4.09,4.09,0,0,1,197,27a4.28,4.28,0,0,1-3.1,1.25,4.32,4.32,0,0,1-2.9-1.11A4.08,4.08,0,0,1,189.59,23.89Zm1.27,0a3.08,3.08,0,0,0,5.26,2.25,3.23,3.23,0,0,0,0-4.46,2.91,2.91,0,0,0-2.19-.91,3.06,3.06,0,0,0-3.07,3.14Z"/><path class="cls-2" d="M199.86,28.08V19.2l6.07,6.35V19.77h1.25v8.82l-6.06-6.33v5.82Z"/><path class="cls-2" d="M213.88,21l-1,.6a1.82,1.82,0,0,0-.55-.65,1.44,1.44,0,0,0-1.56.13.91.91,0,0,0-.34.73c0,.41.3.73.9,1l.83.34a3.48,3.48,0,0,1,1.48,1,2.23,2.23,0,0,1,.47,1.45,2.53,2.53,0,0,1-.76,1.89,2.65,2.65,0,0,1-1.92.75,2.54,2.54,0,0,1-1.78-.64,2.82,2.82,0,0,1-.87-1.8l1.27-.28a2.2,2.2,0,0,0,.3,1,1.46,1.46,0,0,0,2.13.15,1.39,1.39,0,0,0,.39-1,1.31,1.31,0,0,0-.07-.44,1.36,1.36,0,0,0-.21-.37,1.89,1.89,0,0,0-.37-.32,3.45,3.45,0,0,0-.54-.28l-.8-.34c-1.14-.48-1.71-1.18-1.71-2.11a2,2,0,0,1,.72-1.57,2.58,2.58,0,0,1,1.78-.63A2.49,2.49,0,0,1,213.88,21Z"/><path class="cls-2" d="M216.86,19.77v8.31H215.6V19.77Z"/><path class="cls-2" d="M219.28,19.77l2.3,5.76,2.33-5.76h1.37l-3.73,8.94-3.65-8.94Z"/><path class="cls-2" d="M230.9,21h-3.33v2h3.24v1.18h-3.24V26.9h3.33v1.18h-4.59V19.77h4.59Z"/><path class="cls-2" d="M240.66,21l-1,.6a1.82,1.82,0,0,0-.55-.65,1.44,1.44,0,0,0-1.56.13.91.91,0,0,0-.34.73c0,.41.3.73.9,1l.83.34a3.48,3.48,0,0,1,1.48,1,2.23,2.23,0,0,1,.47,1.45,2.53,2.53,0,0,1-.76,1.89,2.65,2.65,0,0,1-1.92.75,2.54,2.54,0,0,1-1.78-.64,2.82,2.82,0,0,1-.87-1.8l1.27-.28a2.2,2.2,0,0,0,.3,1,1.46,1.46,0,0,0,2.13.15,1.39,1.39,0,0,0,.39-1,1.31,1.31,0,0,0-.07-.44,1.36,1.36,0,0,0-.21-.37,1.89,1.89,0,0,0-.37-.32,3.45,3.45,0,0,0-.54-.28l-.8-.34c-1.14-.48-1.71-1.18-1.71-2.11a2,2,0,0,1,.72-1.57,2.58,2.58,0,0,1,1.78-.63A2.49,2.49,0,0,1,240.66,21Z"/><path class="cls-2" d="M244.83,21v7.13h-1.25V21h-1.91V19.77h5.07V21Z"/><path class="cls-2" d="M250.68,24.54l2.57,3.54h-1.53l-2.38-3.4h-.22v3.4h-1.26V19.77h1.47a3.72,3.72,0,0,1,2.38.62,2.3,2.3,0,0,1,.81,1.82,2.39,2.39,0,0,1-.51,1.52A2.29,2.29,0,0,1,250.68,24.54Zm-1.56-.95h.39c1.19,0,1.79-.46,1.79-1.36S250.72,21,249.56,21h-.44Z"/><path class="cls-2" d="M259.09,21h-3.34v2H259v1.18h-3.24V26.9h3.34v1.18h-4.6V19.77h4.59Z"/><path class="cls-2" d="M265.32,21H262v2h3.24v1.18H262V26.9h3.33v1.18h-4.58V19.77h4.58Z"/><path class="cls-2" d="M269.27,21v7.13H268V21h-1.9V19.77h5.07V21Z"/><path class="cls-2" d="M279.85,21H277v2h2.8v1.18H277v3.95h-1.3V19.77h4.15Z"/><path class="cls-2" d="M282.56,19.77v5a2.74,2.74,0,0,0,.35,1.56,1.86,1.86,0,0,0,2.61.33,2.57,2.57,0,0,0,.33-.33,2.66,2.66,0,0,0,.35-1.56v-5h1.26v5.35a3.11,3.11,0,0,1-5.34,2.17,3,3,0,0,1-.82-2.17V19.77Z"/><path class="cls-2" d="M292.27,24.54l2.57,3.54H293.3l-2.37-3.4h-.23v3.4h-1.25V19.77h1.47a3.72,3.72,0,0,1,2.38.62,2.3,2.3,0,0,1,.81,1.82,2.39,2.39,0,0,1-.51,1.52A2.29,2.29,0,0,1,292.27,24.54Zm-1.57-.95h.4c1.19,0,1.78-.46,1.78-1.36S292.31,21,291.15,21h-.45Z"/><path class="cls-2" d="M296.09,28.08V19.2l6.06,6.35V19.77h1.26v8.82l-6.07-6.33v5.82Z"/><path class="cls-2" d="M306.65,19.77v8.31H305.4V19.77Z"/><path class="cls-2" d="M311,21v7.13h-1.26V21h-1.91V19.77h5.07V21Z"/><path class="cls-2" d="M315.23,19.77v5a2.74,2.74,0,0,0,.35,1.56,1.86,1.86,0,0,0,2.61.33,2.57,2.57,0,0,0,.33-.33,2.66,2.66,0,0,0,.35-1.56v-5h1.26v5.35a3,3,0,0,1-.82,2.17A3.08,3.08,0,0,1,314,25.12V19.77Z"/><path class="cls-2" d="M324.94,24.54l2.57,3.54H326l-2.38-3.4h-.22v3.4h-1.26V19.77h1.47a3.72,3.72,0,0,1,2.38.62,2.3,2.3,0,0,1,.81,1.82,2.39,2.39,0,0,1-.51,1.52A2.29,2.29,0,0,1,324.94,24.54Zm-1.56-.95h.39c1.19,0,1.79-.46,1.79-1.36S325,21,323.82,21h-.44Z"/><path class="cls-2" d="M333.35,21H330v2h3.24v1.18H330V26.9h3.34v1.18h-4.59V19.77h4.59Z"/></g><path class="cls-3" d="M1355,0s6,3,7,9a68,68,0,0,0,4,13V146s-18,21-27,54-7,111-5,126,7,44-7,74-52,64-68,119-48,169-150,181-140-33-153-46-56-73-41-143,39-81,47-132,5-96-1-127-20-104,33-131,100-15,138-37,89-72,89-72l12-12Z"/><path class="cls-4" d="M1195.43,301.55l.46-.54c3.59-4.25,9-10.68,7.2-19.27-1.54-7.33-8.17-14.24-20.2-21,1.39-1.11,2.9-2.4,4.39-3.79,7.5-7.05,10.41-13.38,8.65-18.82-2.56-7.88-13.52-11.37-35.22-11.09.32-.6.65-1.22,1-1.85,3.7-7.57,4.41-14.5,2-20-3.13-7.31-11.15-11.77-23.87-13.31A23.25,23.25,0,0,0,1133,177.9c-5.65-5.31-14-7.28-24.78-5.87-8.73,1.14-11-3-15-11.85-4.89-10.88-11.6-25.78-40.86-18a130.08,130.08,0,0,0-16.52,5.73c-12.4,5.36-18.64,11.12-19.09,17.61-.57,8.36,8.78,13.71,14.62,16.38-.45,2-1.31,4.15-2.58,4.9-1.45.84-4-.26-5.43-1-7.34-3.83-14.86-2.17-19.63,4.32-4.56,6.22-6.08,16.71-1,21.83a.92.92,0,0,1,.27,1.27.22.22,0,0,1-.05.08c-1.21,2.21-6.19,4.6-13.5,3-12.3-2.68-24.68,14-28.52,26.57-2.94,9.56-1.44,17.16,4,21-5.21,1.52-10.86,3.66-12.14,8.78a23.74,23.74,0,0,0,0,9.35c.64,4.85,1.31,9.87-3.3,18.74-4.05,7.8-1.64,18.88,6.32,28.91,8.3,10.46,24.14,20.92,43,18.61.24,5.09,1.75,12.38,7.61,17.94,8.08,7.66,21.53,9.38,40,5.11a3,3,0,0,0,1.09-.4c.58-.25,3.71-1.31,8.28,2.11a4.26,4.26,0,0,0,1.73.79,8.27,8.27,0,0,0,1.57.15,10.51,10.51,0,0,0,7.39-3.19c3.25-3.26,5-8.6,5.19-16.15,10,6,12.09,14.89,12.09,14.89l-3.39,75.87-49.48-27.93a1.1,1.1,0,0,0-.81-.11l-51.32,13h0a1.28,1.28,0,0,0-.27.11h0l-.05.05a.65.65,0,0,0-.18.15l-.07.08a1.4,1.4,0,0,0-.1.16L978,431a1.21,1.21,0,0,0,0,.18.19.19,0,0,0,0,.07s0,0,0,.06,0,.05,0,.08v4.19a1.46,1.46,0,0,0,0,.22v46.75a1.1,1.1,0,0,0,.53.94l7.75,4.67a.93.93,0,0,0,.14.14,1.23,1.23,0,0,0,.4.19h0a1.11,1.11,0,0,0,1.1,0,1.27,1.27,0,0,0,.28-.23l50.47-12.77a1.09,1.09,0,0,0,.82-1.06v-3.1l38.83,22,0,1s3.09,6.8,10.51,6.8a9.89,9.89,0,0,0,2.71-.36l24.35,13.8V560.9a1.07,1.07,0,0,0,.53.93l8.3,5a1.1,1.1,0,0,0,1.11,0l.16-.12,50.89-12.88a1.1,1.1,0,0,0,.83-1.06V505.29a1.13,1.13,0,0,0-.06-.31V501.2a1.21,1.21,0,0,0,0-.14,1.09,1.09,0,0,0-.55-1.1l-80.62-45.52c-.69-29.76-1.52-66.57-1.52-74.41,0-13.59,8.66-15.45,8.66-15.45L1124,354c7.19,6.41,18.23,10.31,33.55,11.89,15.51,1.6,27.92-.83,36.9-7.24,7.58-5.41,12.37-13.44,13.85-23.21C1210.5,320.48,1204.51,305.19,1195.43,301.55Zm-20,202.88-49.24,12.45v-2.17l49.24-12.46ZM980.12,437.74l6.11,3.46v44.42l-6.11-3.68Zm8.3,48.21V442.44l48.82,27.67v3.49Zm-8.27-50.71v-2l143.93,81.27v2.27ZM1118,516l6.11,3.45V564l-6.11-3.69Zm8.3,48.36V519.13l49.13-12.43V552Zm-.93-51.65L982,431.79l48.24-12.2,143.37,80.93Zm74.24-178.65a25.55,25.55,0,0,1-10.27,17.39c-7.19,5.13-17.59,7-30.92,5.66-15.42-1.59-25.9-5.76-31.14-12.39-5.57-7-4.41-15.86-3.56-22.3.6-4.58,1.08-8.21-1.39-10.67a5.89,5.89,0,0,0-5.11-1.6,3.09,3.09,0,0,1-2.48-.4c-.92-.84-1.27-3.07-1.22-4.27a4.39,4.39,0,0,0-8.09-2.59,49.84,49.84,0,0,1-40.69,23.91,4.39,4.39,0,0,0-4.48,4.28,4.19,4.19,0,0,0,.09,1c5.07,24.25,1.41,30.84.16,32.28a2.62,2.62,0,0,1-.81.67,18.69,18.69,0,0,0-10.21-3.24,13.69,13.69,0,0,0-5.47,1.08c-14.92,3.37-25.8,2.33-31.47-3-6.39-6-4.8-16.1-4.78-16.19a4.38,4.38,0,0,0-5.4-5c-17.31,4.42-32.2-5.05-39.68-14.49-5.6-7.07-7.78-14.87-5.42-19.42,5.89-11.32,4.92-18.62,4.21-23.94a16.68,16.68,0,0,1-.17-5.92c1-1.2,5.92-2.59,8.06-3.19,4.69-1.31,9.11-2.55,9.34-6.85s-4.88-6.5-7.63-7.6c-4.4-1.76-2.4-9.53-1.68-11.88,3.36-11,12.94-21.73,18.28-20.56,10,2.18,19.49-.86,23.05-7.38a9.61,9.61,0,0,0-1.71-11.75c-1-1-1.18-6.36,1.82-10.44,2.23-3.05,4.94-3.6,8.5-1.74,6.66,3.48,11.24,2.36,13.9.8,6.77-4,7.31-13.91,7.35-15a4.38,4.38,0,0,0-2.72-4.2c-9.29-3.83-12.45-7.25-12.33-9,.14-2,3.81-5.83,13.74-10.12a120.47,120.47,0,0,1,15.34-5.33h0c22.07-5.86,25.85,2.53,30.63,13.15,3.8,8.45,8.53,19,24.13,16.94,8-1.05,13.93.14,17.58,3.52,4.68,4.34,4.37,11.27,4.36,11.31a4.39,4.39,0,0,0,4.07,4.67c7.85.55,17.73,2.45,20.26,8.35,2.84,6.63-3.83,16.92-6.64,20.32a4.39,4.39,0,0,0,3.6,7.18c26-1.31,34.21,2.38,35,4.76,1,3-6.35,11-15.34,16.86a4.37,4.37,0,0,0,.47,7.61c16.54,8.07,21,14.38,21.79,18.25.86,4.08-1.78,7.61-5.32,11.8-2.51,3-5.09,6-3.83,9.67s5.08,4.27,6.34,4.53c3.86.76,9.84,11.66,7.89,24.53Zm-92-19.23a10.27,10.27,0,0,0,.87,1c-9.22,13.57-13.1,14-14.65,10.94a58.2,58.2,0,0,0,13.78-11.93ZM1071.27,345q-.46-4.5-1.4-9.71a59.92,59.92,0,0,0,18.67-5.58c0,9.16-.93,19.74-4.77,20.09s-8.84-2.37-12.5-4.8Zm21.78,7.27c0-12.14,11.34-26.27,18.66-34.12a11.37,11.37,0,0,0,3.58.86c-.09.77-.2,1.61-.29,2.34-.93,7.06-2.48,18.86,5.3,28.79-16.53,11.39-27.25,18.86-27.25,2.13Z"/><path class="cls-4" d="M1077,240.82a10.23,10.23,0,0,1,8.52-2.48c7,.93,15-4,22-8.37,6.55-4.05,12.74-7.88,16.14-5.83,3.12,1.87,4.3,9,3.51,21.08-.94,14.55,2.31,24.56,9.66,29.76,3.76,2.65,8.63,4,14.31,4a41.2,41.2,0,0,0,6.46-.54,52.45,52.45,0,0,0,11.27-3.1,1.1,1.1,0,0,0-.86-2h0c-.18.08-18.65,7.83-29.92-.14-6.68-4.73-9.62-14.09-8.73-27.83.87-13.36-.58-20.7-4.57-23.1-4.55-2.73-11,1.24-18.42,5.84-6.75,4.17-14.39,8.89-20.6,8.07a12.43,12.43,0,0,0-10.26,3c-7.91,6.92-9.25,23.33-9.48,28.94-5.74-3.19-25.78-12.6-50-4.71-9.32,3-16.85,2.87-22.38-.49-6.9-4.19-8.31-12.09-8.34-12.24a1.09,1.09,0,1,0-2.16.35c.06.36,1.54,9,9.34,13.75,6.1,3.72,14.25,4,24.22.71,27.56-9,49.52,5.29,49.74,5.43a1.09,1.09,0,0,0,1.7-.91C1068.18,269.8,1068.29,248.41,1077,240.82Z"/><path class="cls-4" d="M1048.17,288.72a63.9,63.9,0,0,0-13.44-1.41c-7.66-.19-11.15-.27-12.3-9.4a1.09,1.09,0,0,0-1.22-1,1,1,0,0,0-.34.1c-.21.1-21.24,10.12-36,.08a1.09,1.09,0,0,0-1.53.27,1.08,1.08,0,0,0,.27,1.52l0,0c6.56,4.46,15.26,5.89,25.15,4.12a57.17,57.17,0,0,0,11.68-3.44c1.65,9.57,6.71,9.69,14.21,9.87a61.71,61.71,0,0,1,13,1.36c5.74,1.32,6.11,2.73,6.13,3,.09,1.31-3.49,3.54-6.89,4.8a1.11,1.11,0,0,0-.69,1.26c0,.09,1.93,9.6-4.37,17.58-5.61,7.13-15.85,10.95-30.44,11.38-14,.41-23.15-1.68-27.12-6.22-3.53-4-2.65-9.37-1.88-14.07a19.84,19.84,0,0,0,.45-6,4.58,4.58,0,0,0-2.42-3.44c-4.86-2.57-15.26,2.09-16.43,2.63a1.09,1.09,0,0,0-.54,1.45,1.11,1.11,0,0,0,1.46.54c2.91-1.34,11.17-4.44,14.49-2.68A2.34,2.34,0,0,1,980.7,303a18.76,18.76,0,0,1-.44,5.27c-.81,4.93-1.82,11.06,2.39,15.88s12.43,7,25.34,7c1.13,0,2.3,0,3.5-.05,15.28-.45,26.09-4.57,32.12-12.25a25.06,25.06,0,0,0,4.92-18.44c2.35-1,7.67-3.51,7.47-6.66C1055.86,291.51,1053.37,289.92,1048.17,288.72Z"/><path class="cls-4" d="M1174.4,290.57c-17.07,3.72-32,1.48-43.15-6.47a38.4,38.4,0,0,1-11.87-13.31,1.09,1.09,0,0,0-1.45-.54l0,0c-19.17,9.58-34.38,6.73-34.53,6.7a1.1,1.1,0,0,0-.75.12c-.3.17-7.52,4.25-7.29,9.92.16,3.73,3.47,7.08,9.85,10a1.09,1.09,0,0,0,.9-2c-5.48-2.48-8.44-5.26-8.56-8.05-.16-3.75,4.56-6.93,5.85-7.73,2.64.43,16.69,2.13,34.54-6.49a41.23,41.23,0,0,0,12,13.11c14,10.06,30.87,9.66,43.14,7.28-2.28,6.45-11.72,28.42-33.48,25.89a1.1,1.1,0,1,0-.26,2.18,32.3,32.3,0,0,0,3.68.21c9.75,0,18.31-4.69,24.92-13.71a53.6,53.6,0,0,0,7.82-15.73,1.09,1.09,0,0,0-.77-1.35,1,1,0,0,0-.52,0Z"/><path class="cls-5" d="M1,619s62,29,102,35,145,9,145,9,84-4,113,22,70,57,58,138-40,59-83,162-40,92-43,126-6,56-28,64-43-13-74-28-131-56-161-58l-30-2Z"/></g></g></svg>