<svg xmlns="http://www.w3.org/2000/svg" viewBox="0 0 558.21 728.46"><defs><style>.cls-1{fill:#b9d7e9;opacity:0.6;}.cls-2{fill:#474749;}</style></defs><title>Asset 2</title><g id="Layer_2" data-name="Layer 2"><g id="Layer_2-2" data-name="Layer 2"><path class="cls-1" d="M250.21,0s38,56,52,72,70,58,116,77,98,41,114,68,6,1,16,27l10,26V403s-40,45-54,62-62,78-70,117-8,114-42,132-86,25-118-14-17-84-101-158-122-91-135-113,20-103,16-143-58-170-54-208,14.94-78,23-78Z"/><path class="cls-2" d="M352.58,222.58a5.94,5.94,0,0,0-2.5-1.14l-125.84-71a6,6,0,0,0-4.45-.59l-21.06,5.42a6,6,0,0,0-4.47,5,4.87,4.87,0,0,0,0,.66,2.35,2.35,0,0,0,0,.27V417.62a6,6,0,0,0,3,5.24l40.28,22.81V493.2l-13.31-7.51a6,6,0,0,0-4.44-.58l-21.06,5.42a6,6,0,0,0-1.46,11.07l62.61,35.32,15.92,9.19a6.34,6.34,0,0,0,1.45.6l47,26.52a6.09,6.09,0,0,0,3,.77,5.88,5.88,0,0,0,1.5-.19l21.06-5.42a6,6,0,0,0,1.46-11.07l-45.09-25.43V484.53L324.6,495a6,6,0,0,0,3,.78h.13a6,6,0,0,0,1.63-.19l21.06-5.42a6,6,0,0,0,4.53-5.83v-257A6.08,6.08,0,0,0,352.58,222.58Zm-22.95,12.31,18.66-4.8V484.6l-18.66,4.79ZM328,232.67,204,162.75l17.7-4.55,124,69.92ZM202,164.55,327,235.31V488.88L202,418.12ZM243,520,204,498l17.7-4.55,21.24,12Zm2.4,1.1V445.43L278.21,464v76Zm35.51,19.5v-75l18.66,10.56v59.64Zm19.78-2.6,45,25.4L328,567.9l-45-25.4Z"/><path class="cls-2" d="M209.86,412.05,317.6,473.34a1.2,1.2,0,0,0,1.64-.45,1.14,1.14,0,0,0,.15-.6V242.43a1.23,1.23,0,0,0-.6-1.05L211.05,180.09a1.22,1.22,0,0,0-1.64.45,1.14,1.14,0,0,0-.15.6V411A1.2,1.2,0,0,0,209.86,412.05Zm1.8-228.84L317,243.13V470.22L211.66,410.31Z"/><path class="cls-2" d="M104.53,303.77A83.13,83.13,0,0,1,129,244.61a4.81,4.81,0,1,0-6.73-6.88l-.08.07a93.29,93.29,0,0,0,0,131.93,4.81,4.81,0,1,0,6.81-6.8A83.13,83.13,0,0,1,104.53,303.77Z"/><path class="cls-2" d="M126.8,303.77a61,61,0,0,1,18-43.41,4.82,4.82,0,0,0-6.81-6.81A71,71,0,0,0,138,354h0a4.82,4.82,0,1,0,6.81-6.81h0A61,61,0,0,1,126.8,303.77Z"/><path class="cls-2" d="M149.07,303.77a38.86,38.86,0,0,1,11.46-27.66,4.82,4.82,0,0,0-6.81-6.81h0a48.74,48.74,0,0,0,0,68.94,4.82,4.82,0,1,0,6.81-6.81A38.86,38.86,0,0,1,149.07,303.77Z"/><path class="cls-2" d="M176.27,285a4.82,4.82,0,0,0-6.81,0,26.48,26.48,0,0,0,0,37.45,4.81,4.81,0,1,0,6.81-6.8,16.85,16.85,0,0,1,0-23.83h0A4.82,4.82,0,0,0,176.27,285Z"/><path class="cls-2" d="M426.89,328.08a4.82,4.82,0,0,0-6.81,6.81,83.66,83.66,0,0,1,0,118.31h0a4.82,4.82,0,0,0,6.81,6.81A93.29,93.29,0,0,0,426.89,328.08Z"/><path class="cls-2" d="M411.14,343.83a4.82,4.82,0,0,0-6.81,6.81h0a61.38,61.38,0,0,1,0,86.82,4.82,4.82,0,0,0,6.81,6.81,71,71,0,0,0,0-100.43Z"/><path class="cls-2" d="M395.39,359.58a4.81,4.81,0,0,0-6.8,6.8,39.14,39.14,0,0,1,0,55.33h0a4.81,4.81,0,0,0,6.72,6.89.6.6,0,0,0,.08-.08,48.75,48.75,0,0,0,0-68.94Z"/><path class="cls-2" d="M379.65,375.32a4.82,4.82,0,0,0-6.81,6.81h0a16.85,16.85,0,0,1,0,23.83h0a4.82,4.82,0,0,0,6.81,6.81h0a26.48,26.48,0,0,0,0-37.45Z"/></g></g></svg>