<svg xmlns="http://www.w3.org/2000/svg" viewBox="0 0 2559 996.13"><defs><style>.cls-1{fill:#c1f5c3;opacity:0.6;}.cls-2{fill:#e9b9c9;}.cls-3{fill:#b9d7e9;}.cls-4{fill:#f9eccc;}.cls-5{fill:#fff;}.cls-6{fill:#f9daf2;}.cls-7{fill:#474749;}.cls-8{fill:none;stroke:#474749;stroke-linecap:round;stroke-linejoin:round;}</style></defs><title>Asset 17</title><g id="Layer_2" data-name="Layer 2"><g id="Layer_1-2" data-name="Layer 1"><path class="cls-1" d="M292,.13s84-6,121,65,136,115,161,124,81.5,40.5,87.5,105.5S652,356.49,592,442.13c-65.5,93.5-36.5,100.5-55,149-20,52.51-48.23,53-69,49-74.5-14.5-65.08-105.4-138-162-71.5-55.5-87.5-62.5-93-73-27.08-51.71,17.51-100.68-2.5-161.5-25-76-55-154-16.5-196.5C251.74,9.88,292,.13,292,.13Z"/><path class="cls-2" d="M978,.13s64.32,6.94,82,52c15.5,39.5,6.5,47.5,21,101,10.53,38.86,32.47,115.69,66,168,12.5,19.5,44.5,88.5,85,145,21.58,30.11,24,99-3,130s-78.78,63.45-130,57c-67.5-8.5-116-37-142-73s-42-115-51-140-46-84-72-113-35-55-35-78,11-55,47-89,51-70,57-97S925,6.13,978,.13Z"/><path class="cls-3" d="M1613.5,35.63s82.5-19.5,125.5,16.5,65.5,83.5,58.5,128.5c-6.3,40.51-41,119-44.5,175.5-2,31.93,10.5,87.5,3.5,107.5s-19,38-35.5,49.5c-19.45,13.55-19,12-36,15s-83,6-115,21-56,33-77,30-32-22-38-47-21-67-54-103-46.13-53.26-42-79c6.5-40.5,21.5-48.27,72-97,28.5-27.5,59-86,71-114S1555.5,46.63,1613.5,35.63Z"/><path class="cls-4" d="M2261,17.13s55.5,5.5,69,42c12.44,33.62,19.5,49.5-6,92-9.8,16.32-36.29,50.52-34,123,1.5,47.5,5.5,82.5-3,99-21.2,41.14-50,71-59,103s-19.5,121.5-96,154c-70.46,29.93-127.18-1.76-142-13-41.5-31.5-59.5-80.5-60-105-.88-43,19.5-90.5,31-114,14.18-29,20-79,18-103s-18-77-15-92,18.5-61.5,49-70c34.14-9.52,89.5-19.5,117.5-33.5,18.8-9.41,47.37-41,78.5-65.5C2232.5,15.63,2261,17.13,2261,17.13Z"/><rect class="cls-5" y="746.13" width="2559" height="250"/><path class="cls-6" d="M2559,746.13s-36-2-76,12-140,79-158,88-48.5,25.5-138,29c-74.19,2.9-117-1-144,6s-75.4,29.7-93,54c-10.5,14.5-35.5,46.5-35,61h644Z"/><path class="cls-7" d="M554.13,118.1,489.39,81.56,389.48,25a2.9,2.9,0,0,0-2.89,0,3.6,3.6,0,0,0-.4.28L304.37,45.46a2.9,2.9,0,0,0-.73,5.34l.7.39V205a.71.71,0,0,0,.39.64l6.12,3.21a.63.63,0,0,0,.33.09.7.7,0,0,0,.37-.11.65.65,0,0,0,.2-.17l7.16-1.71a.73.73,0,0,0,.55-.7V59.73l65.7,37.09v31.72l-28.43,6.86h0a.64.64,0,0,0-.19.08h0l0,0-.13.11,0,0-.07.11,0,.07s0,.08,0,.12,0,0,0,0v5.14a.62.62,0,0,0,0,.19.64.64,0,0,1,0,.07.73.73,0,0,0,.36.73l28.62,16.15v22.51a2.89,2.89,0,0,0,1.46,2.52l76.1,43.1v70.78a.74.74,0,0,0,.38.64l6.12,3.21a.7.7,0,0,0,.9-.2l7.16-1.7a.72.72,0,0,0,.56-.7V235l73.28,41.51a2.9,2.9,0,0,0,4-1.09,3,3,0,0,0,.37-1.43V121.54a2.85,2.85,0,0,0-1.31-3.44Zm-90,22.62,4.68,2.46v156l-4.68-2.46Zm-73.21,20.83,71.77,40.52v17.68l-71.77-40.64Zm71.77,35.12v3.62l-105.1-59.57v-3.39ZM552,226.24l-29.87,7.21v-3.92L552,222.32Zm-1.22-5.1-29.27,7.06-43.66-24.65V180Zm-30.09,8.25v3.74l-42.84-24.28V205.2Zm-42.84-51.08V142.08l71.82-17.72v94.5ZM305.78,52l4.68,2.65V207.06l-4.68-2.46Zm6.12,155.17V55.46L318,58.91V205.72Zm.94-157.83,75-18.5,157.14,88.72L470,138.05ZM462.72,140.6v29.18L391,129.26V100.09ZM388.1,129.3l74.62,42.13V195L358.84,136.37Zm82.17,170V142.43l6.12-1.46V297.86Zm7.56-88.72,43.09,24.33.11.06.08,0,.06,0h0a.69.69,0,0,0,.35,0l28.1-6.78V269l-71.82-40.67Z"/><path class="cls-7" d="M1113.62,163.78v-25c0-.11,0-.21,0-.31a3.11,3.11,0,0,0-1.57-3L1004,74.33l5.17-13.88a.84.84,0,0,0-.29-1l-5.31-3.3a1.06,1.06,0,0,0-1.4.52.69.69,0,0,0,0,.13L997,70.4,974.82,57.83l5.77-15.49a.83.83,0,0,0-.28-1L975,38a1.06,1.06,0,0,0-1.41.53l-.05.12L967.87,53.9,900,15.52a3.2,3.2,0,0,0-2.1-.35L871,20.11a3.1,3.1,0,0,0-3,2.69,3,3,0,0,0,0,.42V49.68a3.48,3.48,0,0,0,.11.85V75.29a3.48,3.48,0,0,0-.11.85V102.6a3.48,3.48,0,0,0,.11.85v24.76a3.48,3.48,0,0,0-.11.85v26.46a3.41,3.41,0,0,0,.11.85v25.68a3.15,3.15,0,0,0,1.58,2.71l17.31,9.8.49.49h.38l18,10.18-11.78,2.16c-.9.17-1.28,1.38-.56,1.79l13.71,7.69L897,244.27a.83.83,0,0,0,.28,1l5.31,3.3a1.07,1.07,0,0,0,1.41-.53s0-.08,0-.12l10.12-27.17,22.24,12.49-10.84,29.11a.83.83,0,0,0,.29,1l5.31,3.3a1,1,0,0,0,1.4-.52.61.61,0,0,0,0-.12l12.45-33.46,6.87-1.25,41,23.19.18.18.32.11,69.91,39.59a3.88,3.88,0,0,0,.65.5l16.44,9.31a3.1,3.1,0,0,0,3.43,1.84l27.39-5a3.12,3.12,0,0,0,2.56-3.07V164.75A3.23,3.23,0,0,0,1113.62,163.78ZM1110,297.47l-26.15,4.79V276.14l26.15-4.8ZM898.39,18.89l33.6,19L906.5,42.56l-33.59-19Zm132.19,252.7v-25l34.12,19.33v25Zm-35.3-20v-25l34,19.29v25Zm-35.3-20v-25l34,19.28v25Zm-70.6-40v-25l30.18,17.09L912,204.12l-.39.07ZM966.55,57.45l-.23.61-24.48,4.49-33.65-19,25.49-4.67ZM1038,97.85l-25.48,4.67L996.8,93.64l5.37-14.42,2.18-.4Zm35.33,20-25.48,4.67-33.64-19,25.48-4.67Zm35.39,20-25.48,4.67-33.7-19.06L1075,118.8Zm-185.27,58v13.93l-4.29-2.41ZM1049.72,256l-1.49-.84v-25l34.13,19.33v25ZM1047,201.5l-34.06-19.29v-25L1047,176.47Zm-53-56.45-13.52-7.66,6.59-17.71,4.78-.88L994,120Zm-50.82-2.32.93-2.48,21.58,12.11a.78.78,0,0,0,.56.09l.22,0-1.08,2.9-21.61-12.24Zm34.41,7.64,7.25-1.33c.9-.17,1.28-1.38.56-1.79l-7.11-4,1.75-4.69,31.61,17.9v25l-34.06-19.29Zm-1.24.23v10.91l-4-2.27,3.16-8.49Zm2.91-32.55-5.73,15.4L960,125.76V107.2Zm-6.17,16.59-1.76,4.72-22.24-12.49,1.79-4.81Zm56.21,30.4-34.06-19.29v-25L1029.34,140ZM944,118.12l-1.64,4.39V117.2ZM958.74,153v20.34l-.65,1.75-22.25-12.49,6.94-18.64ZM960,170v-16.3l5,2.84Zm35.3,3.7,34.06,19.28v25l-34.06-19.28Zm35.3,20L1064.7,213v25l-34.12-19.32Zm34.12-8.57-34.12-19.33v-25L1064.7,160Zm-106-78.57v18.55l-7.38-4.17,5.7-15.32Zm-34.06,27.16L935.83,140l-7.58,20.37-.48.09-3.09-1.75Zm52.7,54.88-3.51-2,.73-.14c.9-.16,1.28-1.38.56-1.78L965.05,179l6.89-18.52L994,172.94v25l-16.65-9.43Zm-38.12-93,10.83,6.08-5.68,15.29-19.73-11.17v-25l21.11,12-6,1.1c-.89.16-1.27,1.38-.55,1.78Zm-15.82,9.49L889.38,85.77v-25L923.44,80ZM907,97.2l34.06,19.29v6H941l-18.59,3.41c-.9.16-1.28,1.38-.56,1.78l15.35,8.62-.91,2.46L907,122.24ZM1049.72,203l-1.49-.84v-25l34.12,19.33v25Zm32.63-34.44-32.63-18.48-1.49-.84v-25l34.12,19.32Zm-35.37-20-34.05-19.29v-25L1047,123.54Zm-35.3-20L993.8,118.45l8.51-1.56c.9-.16,1.28-1.38.56-1.78l-11.63-6.53,5.11-13.72,15.34,8.69Zm-27.4-23.91-6.65-3.74V84.26l11.77,6.67Zm-7.89-4.43L962,92.18l5.15-13.83,9.2,5.21Zm-22.4-9-6.29,1.15-3.88-2.2-1.49-.84v-25l17.91,10.14Zm-64.61,22.48L923.44,133v25L889.38,138.7Zm51.71,68v12.77l-14.14-8,3.92-10.51Zm20.28,7.17L972,186.9l4.43,2.5v25L956.11,203Zm16.26,1.27,34.06,19.29v25l-34.06-19.29Zm35.3,20L1047,229.39v25l-34.06-19.29Zm-124.79-125-16.28-9.22v-25L888.14,60ZM907,150.13l18.82,10.66-13.74,2.52c-.9.16-1.28,1.38-.56,1.78L923.91,172,920,182.5l-13-7.34Zm35.3,45V182.37l10.77,6L949.17,199l-5.35-3Zm140.31,53-16.52-9.36V213.9l16.52,9.35Zm-16.52-62.28V161l16.36,9.27v1a.62.62,0,0,0,.16.41v23.63ZM905.79,96.5v25l-34.06-19.29v-25ZM888.14,138l-16.29-9.23v-25L888.14,113Zm53-74.43v25L907,69.31v-25l19.31,10.92Zm142.8,131.92v-25.2L1110,165.5v25.2Zm-105-112,14.27-2.62-3.28,8.83Zm-35.33-20,22.29-4.09-5.14,13.79ZM905.79,43.59v25L871.73,49.32v-25Zm0,105.83v25l-34.06-19.29v-25Zm18.89,43.11,1.83-4.91,22.21,12.58-7.33,19.69-16.71-9.38ZM1110,243.3l-26.15,4.8V223.21l26.15-4.79Zm0-26.15-26.15,4.8v-25.2L1110,192Zm-.15-52.89-26.15,4.79V144.32l26.15-4.79ZM993.65,79.52l-16.48,3-9.53-5.4,5.86-15.76,22.22,12.56ZM957.11,228.71l-8.76-4.91,7.32-19.67,3.07,1.74v25l-1.49-.84a.89.89,0,0,0,0-1.26l-.1-.08Zm109,38.1,16.52,9.36v25l-16.52-9.36Zm43.91,3.27-26.15,4.79V249.36l26.15-4.79ZM871.85,156.66l16.29,9.23v25l-16.29-9.23Z"/><line class="cls-8" x1="906.41" y1="43.21" x2="906.41" y2="43.21"/><line class="cls-8" x1="941.59" y1="63.23" x2="941.59" y2="63.23"/><line class="cls-8" x1="977.08" y1="83.19" x2="977.08" y2="83.19"/><line class="cls-8" x1="1047.75" y1="123.16" x2="1047.75" y2="123.16"/><path class="cls-7" d="M2230.62,133.71l.3-.37c2.42-2.85,6.06-7.17,4.85-13-1-4.92-5.5-9.56-13.58-14.12.94-.75,1.95-1.61,2.95-2.55,5-4.74,7-9,5.81-12.64-1.72-5.3-9.08-7.65-23.67-7.46.22-.4.44-.82.65-1.24,2.49-5.09,3-9.75,1.37-13.47-2.1-4.91-7.49-7.91-16-8.94a15.68,15.68,0,0,0-4.59-9.37c-3.8-3.57-9.4-4.89-16.65-4-5.87.77-7.42-2-10.09-8-3.29-7.31-7.79-17.33-27.46-12.11a85.65,85.65,0,0,0-11.1,3.84c-8.34,3.61-12.54,7.48-12.83,11.84-.39,5.62,5.9,9.21,9.82,11-.3,1.35-.88,2.79-1.74,3.29s-2.7-.17-3.64-.67c-4.94-2.57-10-1.46-13.2,2.9-3.06,4.18-4.08,11.23-.64,14.68a.62.62,0,0,1,.19.85l0,.06c-.81,1.48-4.16,3.08-9.07,2-8.27-1.8-16.59,9.41-19.17,17.85-2,6.43-1,11.54,2.66,14.14-3.5,1-7.3,2.46-8.16,5.9a15.81,15.81,0,0,0,0,6.28c.43,3.27.88,6.64-2.22,12.6-2.72,5.24-1.1,12.69,4.25,19.43,5.57,7,16.23,14.07,28.92,12.51a17.57,17.57,0,0,0,5.12,12.06c5.43,5.14,14.47,6.3,26.89,3.44a1.91,1.91,0,0,0,.73-.28c.39-.16,2.49-.88,5.56,1.43a3.16,3.16,0,0,0,1.17.52,4.67,4.67,0,0,0,1,.1,7.06,7.06,0,0,0,5-2.14c2.19-2.19,3.35-5.78,3.49-10.85,6.74,4.06,8.12,10,8.12,10l-2.27,51L2120,211.61a.73.73,0,0,0-.54-.07l-34.5,8.73h0a.62.62,0,0,0-.19.07h0l0,0-.12.1,0,.06a.61.61,0,0,0-.07.1l0,.08a.56.56,0,0,0,0,.12v.08s0,0,0,.06v2.82s0,.09,0,.14v31.42a.76.76,0,0,0,.36.64l5.21,3.14.09.09a.84.84,0,0,0,.27.13h0a.74.74,0,0,0,.75,0,.84.84,0,0,0,.18-.15l33.92-8.58a.74.74,0,0,0,.56-.72v-2.08l26.09,14.79,0,.69s2.08,4.57,7.06,4.57a7.07,7.07,0,0,0,1.83-.24l16.36,9.27V308a.73.73,0,0,0,.36.63L2183,312a.73.73,0,0,0,.74,0l.11-.08,34.2-8.66a.73.73,0,0,0,.56-.71V270.65a.76.76,0,0,0,0-.21V267.9a.36.36,0,0,0,0-.1.74.74,0,0,0-.36-.74l-54.19-30.59c-.47-20-1-44.74-1-50,0-9.14,5.82-10.39,5.82-10.39l13.7-7.14c4.84,4.31,12.26,6.94,22.55,8s18.77-.56,24.8-4.87a22.78,22.78,0,0,0,9.31-15.6C2240.75,146.43,2236.72,136.16,2230.62,133.71Zm-13.43,136.36-33.09,8.37V277l33.09-8.37ZM2085.9,225.25l4.11,2.32v29.86L2085.9,255Zm5.58,32.4V228.41l32.81,18.6v2.34Zm-5.56-34.09v-1.31l96.74,54.61v1.53Zm92.64,54.3,4.1,2.32v29.91l-4.1-2.48Zm5.58,32.5V280l33-8.35V302Zm-.64-34.71-96.35-54.4,32.42-8.21,96.36,54.4Zm49.91-120.07a17.2,17.2,0,0,1-6.91,11.68c-4.83,3.45-11.82,4.73-20.78,3.81-10.37-1.07-17.41-3.88-20.93-8.33-3.74-4.73-3-10.66-2.39-15,.4-3.08.72-5.52-.93-7.17a4,4,0,0,0-3.44-1.08,2.05,2.05,0,0,1-1.67-.27,4.41,4.41,0,0,1-.82-2.87,2.94,2.94,0,0,0-5.43-1.73,33.48,33.48,0,0,1-27.35,16.06,3,3,0,0,0-3,2.88,2.5,2.5,0,0,0,.06.67c3.4,16.3.94,20.73.1,21.7a1.8,1.8,0,0,1-.54.45,12.56,12.56,0,0,0-6.86-2.18,9.26,9.26,0,0,0-3.68.73c-10,2.26-17.34,1.57-21.15-2-4.3-4-3.23-10.82-3.21-10.88a3,3,0,0,0-2.4-3.41,2.84,2.84,0,0,0-1.23.05c-11.64,3-21.65-3.4-26.68-9.74-3.76-4.75-5.22-10-3.64-13.05,4-7.61,3.31-12.52,2.83-16.1a11.3,11.3,0,0,1-.11-4c.65-.8,4-1.73,5.42-2.14,3.15-.88,6.12-1.71,6.28-4.6s-3.29-4.37-5.14-5.11c-3-1.18-1.61-6.41-1.13-8,2.26-7.37,8.7-14.61,12.29-13.82,6.73,1.46,13.1-.58,15.5-5a6.45,6.45,0,0,0-1.16-7.9c-.67-.68-.79-4.27,1.23-7,1.5-2.05,3.32-2.41,5.71-1.16,4.48,2.33,7.55,1.58,9.35.53,4.55-2.65,4.91-9.35,4.93-10.11a2.94,2.94,0,0,0-1.82-2.82c-6.25-2.57-8.37-4.87-8.29-6.06s2.56-3.91,9.23-6.8A80.6,80.6,0,0,1,2136,32.28h0c14.84-3.93,17.38,1.7,20.59,8.84,2.56,5.68,5.74,12.75,16.22,11.39,5.39-.71,9.37.09,11.82,2.36,3.15,2.92,2.94,7.58,2.93,7.6a3,3,0,0,0,2.74,3.14c5.27.37,11.91,1.65,13.61,5.62,1.91,4.45-2.57,11.37-4.46,13.65a3,3,0,0,0,.39,4.15,2.9,2.9,0,0,0,2,.68c17.45-.88,23,1.59,23.51,3.2.65,2-4.27,7.39-10.31,11.33a2.94,2.94,0,0,0,.31,5.11c11.12,5.43,14.11,9.67,14.65,12.27s-1.19,5.11-3.57,7.93c-1.69,2-3.43,4.06-2.58,6.5s3.41,2.87,4.27,3c2.59.52,6.61,7.84,5.3,16.5Zm-61.88-12.93c.19.23.38.45.59.66-6.19,9.13-8.8,9.44-9.85,7.36a39,39,0,0,0,9.26-8Zm-24.36,20.23c-.21-2-.53-4.19-1-6.53a40.24,40.24,0,0,0,12.55-3.74c0,6.15-.62,13.26-3.2,13.49s-5.94-1.58-8.4-3.22Zm14.63,4.88c0-8.16,7.63-17.65,12.55-22.93a7.6,7.6,0,0,0,2.4.58c-.06.52-.13,1.09-.19,1.57-.63,4.75-1.67,12.68,3.56,19.35C2169,174,2161.8,179,2161.8,167.76Z"/><path class="cls-7" d="M2151,92.89a6.88,6.88,0,0,1,5.73-1.67c4.69.63,10.07-2.69,14.81-5.62,4.41-2.73,8.57-5.3,10.85-3.92,2.1,1.26,2.9,6,2.37,14.17-.64,9.78,1.55,16.51,6.49,20a16.44,16.44,0,0,0,9.61,2.69,26.21,26.21,0,0,0,4.34-.36,34.58,34.58,0,0,0,7.59-2.08.74.74,0,0,0-.58-1.36h0c-.13.06-12.54,5.26-20.11-.09-4.5-3.18-6.47-9.48-5.87-18.71.58-9-.4-13.91-3.08-15.52-3-1.84-7.37.83-12.38,3.92-4.53,2.8-9.67,6-13.84,5.42a8.4,8.4,0,0,0-6.9,2c-5.31,4.65-6.22,15.68-6.37,19.45a43.11,43.11,0,0,0-33.58-3.17c-6.27,2.05-11.33,1.94-15.05-.32a13.06,13.06,0,0,1-5.6-8.23.74.74,0,0,0-1.46.23,14.32,14.32,0,0,0,6.28,9.24c4.1,2.51,9.58,2.67,16.28.48a41.4,41.4,0,0,1,33.43,3.66.75.75,0,0,0,1.15-.62C2145.09,112.37,2145.16,98,2151,92.89Z"/><path class="cls-7" d="M2131.64,125.09a42.23,42.23,0,0,0-9-1c-5.15-.13-7.5-.18-8.27-6.32a.74.74,0,0,0-.82-.64.62.62,0,0,0-.23.07c-.14.07-14.27,6.8-24.19,0a.74.74,0,1,0-.85,1.21h0c4.41,3,10.25,4,16.9,2.77A38.25,38.25,0,0,0,2113,119c1.11,6.43,4.51,6.51,9.55,6.63a41.37,41.37,0,0,1,8.74.91c3.86.89,4.11,1.84,4.12,2,.06.88-2.34,2.37-4.63,3.22a.73.73,0,0,0-.46.84,15.63,15.63,0,0,1-2.94,11.82c-3.77,4.79-10.66,7.36-20.46,7.65-9.43.28-15.56-1.13-18.23-4.18-2.37-2.71-1.78-6.3-1.26-9.46a13.39,13.39,0,0,0,.3-4,3.07,3.07,0,0,0-1.63-2.31c-3.27-1.73-10.25,1.4-11,1.76a.74.74,0,1,0,.62,1.34c2-.9,7.51-3,9.74-1.8a1.59,1.59,0,0,1,.85,1.25,12.8,12.8,0,0,1-.29,3.54c-.55,3.32-1.23,7.44,1.6,10.67s8.35,4.72,17,4.72l2.35,0c10.28-.3,17.54-3.07,21.59-8.23a16.82,16.82,0,0,0,3.31-12.4c1.58-.65,5.16-2.36,5-4.48C2136.81,127,2135.14,125.89,2131.64,125.09Z"/><path class="cls-7" d="M2216.48,126.33c-11.47,2.5-21.5,1-29-4.35a25.9,25.9,0,0,1-8-8.94.73.73,0,0,0-1-.37h0c-12.88,6.45-23.1,4.53-23.2,4.51a.73.73,0,0,0-.5.08c-.21.11-5.06,2.85-4.9,6.66.1,2.51,2.33,4.77,6.61,6.7a.74.74,0,0,0,.61-1.34c-3.68-1.66-5.67-3.53-5.75-5.41-.11-2.52,3.06-4.66,3.93-5.19,1.77.29,11.21,1.43,23.21-4.36a27.81,27.81,0,0,0,8,8.81c9.43,6.76,20.74,6.49,29,4.89-1.54,4.34-7.88,19.1-22.51,17.4a.74.74,0,0,0-.17,1.47,22.72,22.72,0,0,0,2.47.14c6.56,0,12.31-3.15,16.75-9.22a36.07,36.07,0,0,0,5.26-10.57.74.74,0,0,0-.52-.91.82.82,0,0,0-.35,0Z"/><path class="cls-7" d="M1614,77.23a3.9,3.9,0,0,0-1.65-.76l-83-46.83a3.9,3.9,0,0,0-2.93-.39l-13.9,3.58a3.94,3.94,0,0,0-3,3.33,3.15,3.15,0,0,0,0,.44.91.91,0,0,0,0,.17V205.93a4,4,0,0,0,2,3.46l26.58,15.05v31.37l-8.78-5a3.94,3.94,0,0,0-2.93-.38l-13.9,3.57a4,4,0,0,0-1,7.31l41.32,23.3,10.51,6.07a4.16,4.16,0,0,0,.95.4l31,17.5a4.11,4.11,0,0,0,2,.51,4.06,4.06,0,0,0,1-.13l13.9-3.57a4,4,0,0,0,1-7.31l-29.76-16.78V250.09l12.18,6.89a3.92,3.92,0,0,0,2,.51h.09a3.86,3.86,0,0,0,1.07-.12l13.9-3.58a4,4,0,0,0,3-3.84V80.36A4,4,0,0,0,1614,77.23Zm-15.15,8.12,12.32-3.17v168l-12.32,3.16Zm-1.08-1.47L1516,37.74l11.68-3,81.8,46.14ZM1514.7,38.93l82.43,46.69V253l-82.43-46.7Zm27,234.53L1516,259l11.68-3,14,7.91Zm1.59.72V224.29L1565,236.56V286.7Zm23.43,12.87V237.56l12.31,7v39.36Zm13-1.71,29.72,16.76-11.68,3-29.72-16.76Z"/><path class="cls-7" d="M1519.86,202.25,1591,242.7a.79.79,0,0,0,1.08-.3.76.76,0,0,0,.1-.39V90.32a.79.79,0,0,0-.4-.69l-71.09-40.44a.79.79,0,0,0-1.08.29.8.8,0,0,0-.11.4V201.56A.78.78,0,0,0,1519.86,202.25Zm1.19-151,69.5,39.54V240.64l-69.5-39.54Z"/><path class="cls-7" d="M1450.35,130.8a54.9,54.9,0,0,1,16.17-39,3.18,3.18,0,1,0-4.44-4.54l0,0a61.56,61.56,0,0,0,0,87.06,3.17,3.17,0,1,0,4.49-4.49A54.88,54.88,0,0,1,1450.35,130.8Z"/><path class="cls-7" d="M1465.05,130.8a40.23,40.23,0,0,1,11.86-28.64,3.18,3.18,0,1,0-4.49-4.5,46.86,46.86,0,0,0,0,66.27h0a3.17,3.17,0,1,0,4.49-4.49h0A40.26,40.26,0,0,1,1465.05,130.8Z"/><path class="cls-7" d="M1479.75,130.8a25.62,25.62,0,0,1,7.56-18.25,3.18,3.18,0,0,0-4.5-4.5h0a32.18,32.18,0,0,0,0,45.5,3.18,3.18,0,0,0,4.5-4.49A25.64,25.64,0,0,1,1479.75,130.8Z"/><path class="cls-7" d="M1497.7,118.44a3.19,3.19,0,0,0-4.5,0,17.49,17.49,0,0,0,0,24.72,3.18,3.18,0,0,0,4.5-4.5,11.1,11.1,0,0,1,0-15.72h0A3.19,3.19,0,0,0,1497.7,118.44Z"/><path class="cls-7" d="M1663.08,146.85a3.18,3.18,0,0,0-4.5,4.49,55.21,55.21,0,0,1,0,78.07h0a3.18,3.18,0,0,0,4.5,4.5A61.56,61.56,0,0,0,1663.08,146.85Z"/><path class="cls-7" d="M1652.69,157.24a3.18,3.18,0,0,0-4.5,4.49h0a40.51,40.51,0,0,1,0,57.29,3.18,3.18,0,0,0,4.5,4.49,46.86,46.86,0,0,0,0-66.27Z"/><path class="cls-7" d="M1642.29,167.63a3.18,3.18,0,0,0-4.49,4.49,25.82,25.82,0,0,1,0,36.51h0a3.18,3.18,0,0,0,4.44,4.55l0-.06a32.16,32.16,0,0,0,0-45.49Z"/><path class="cls-7" d="M1631.9,178a3.17,3.17,0,0,0-4.49,4.49h0a11.13,11.13,0,0,1,0,15.73h0a3.17,3.17,0,0,0,4.49,4.49h0a17.46,17.46,0,0,0,0-24.71Z"/></g></g></svg>