<svg xmlns="http://www.w3.org/2000/svg" viewBox="0 0 194.01 211.41"><defs><style>.cls-1{fill:#a3ed98;}</style></defs><title>Asset 2</title><g id="Layer_2" data-name="Layer 2"><g id="Layer_1-2" data-name="Layer 1"><path class="cls-1" d="M130.66,0l-5.15,3.56V7.92l-20.19,5.94L101,9.1,71.27,15.83,68.1,7.92,52.26,18.61H13.06L0,49.88,4.76,62.55l13.85-2.77,7.92.4,3.17,9.5L51.47,67.3,41.18,80.37,28.91,97,15.45,114,10.3,129.46,11.88,133,0,146.88v4.55l9.9-2.17L14.66,158,13.47,174.2l6.73,3.16,14.25-5.93,7.13,15.83,9.1,4.36-7.52,7.52,4.75,4.75,5.94-5.54h5.54l-1.58,10.29,7.52,2.77,7.52-8.71-4.75-7.92L82,188.45,73.25,173.8l18.61-6.33,9.1-25.74,10.69,6.73,10.69-10.69V133l26.13-25.34,12.28.79,2.37,5.55,6.73-3.17,5.94,5.74,15.84-14.85L194,93,169.46,74.82,177,73.64l-2.38-9.11-15.44,5.94L163.52,57l5.15-4.75-9.5-12.67-23.76-2-29.3,11.88.79-4L117.53,38,137,33.65l-.4-7.52-21,3.56,14.65-12.27,3.17-8.32Z"/><path d="M5,92.13v10.59H9.18v3H1.42V92.13Z"/><path d="M14.27,92.13v7.38c0,.4,0,.8.05,1.22a3.29,3.29,0,0,0,.27,1.12,1.88,1.88,0,0,0,.71.82,2.5,2.5,0,0,0,1.37.32,2.46,2.46,0,0,0,1.36-.32,1.94,1.94,0,0,0,.71-.82,3.29,3.29,0,0,0,.28-1.12c0-.42,0-.82,0-1.22V92.13h3.51V100a6.36,6.36,0,0,1-1.45,4.63,6,6,0,0,1-4.45,1.45,6.1,6.1,0,0,1-4.47-1.45A6.36,6.36,0,0,1,10.75,100V92.13Z"/><path d="M29.3,98.47l-4.23-6.34h4.36l1.84,3.51,2.26-3.51h4.36l-4.48,6.34,5.06,7.24H34.16l-2.71-4.43-3.19,4.43H24Z"/><path d="M47.61,95.12H43.42v2.27h4v3h-4v2.34h4.19v3H39.89V92.13h7.72Z"/><path d="M49.54,105.71l2.3-13.58h3.49l2.72,7.24,2.7-7.24h3.49l2.31,13.58H63l-1.17-7.82-3.21,7.82h-1.4l-3-7.82-1.17,7.82Z"/><path d="M68.78,92.13H74a4.06,4.06,0,0,1,2.85.9,3.37,3.37,0,0,1,1,2.6,3.48,3.48,0,0,1-.37,1.7,3.13,3.13,0,0,1-1.12,1.14,4.27,4.27,0,0,1,1.28.44,2.85,2.85,0,0,1,.87.73,2.65,2.65,0,0,1,.47,1,4.32,4.32,0,0,1,.15,1.15,4,4,0,0,1-.34,1.7,3.47,3.47,0,0,1-.93,1.24,3.93,3.93,0,0,1-1.47.75,6.8,6.8,0,0,1-1.94.26H68.78Zm3.53,5.33H73c1.11,0,1.66-.44,1.66-1.31s-.55-1.32-1.66-1.32h-.64Zm0,5.51h.77a3.94,3.94,0,0,0,1.91-.34,1.35,1.35,0,0,0,0-2.2,3.94,3.94,0,0,0-1.91-.34h-.77Z"/><path d="M80.51,98.92a7.13,7.13,0,0,1,.56-2.82A7,7,0,0,1,85,92.31a8.59,8.59,0,0,1,6.05,0A7,7,0,0,1,95,96.1,7.12,7.12,0,0,1,93.43,104,7.21,7.21,0,0,1,91,105.54a8.74,8.74,0,0,1-6.05,0A7.12,7.12,0,0,1,82.62,104a6.89,6.89,0,0,1-1.55-2.27A7.13,7.13,0,0,1,80.51,98.92Zm3.69,0a3.64,3.64,0,0,0,.31,1.49,3.59,3.59,0,0,0,.83,1.19,3.78,3.78,0,0,0,1.21.79,4.14,4.14,0,0,0,2.94,0,3.83,3.83,0,0,0,1.22-.79,3.77,3.77,0,0,0,.84-1.19,3.85,3.85,0,0,0,0-3,3.77,3.77,0,0,0-.84-1.19,3.64,3.64,0,0,0-1.22-.78,4,4,0,0,0-2.94,0,3.74,3.74,0,0,0-2,2A3.64,3.64,0,0,0,84.2,98.92Z"/><path d="M101.3,92.13v7.38c0,.4,0,.8,0,1.22a3.29,3.29,0,0,0,.27,1.12,1.81,1.81,0,0,0,.71.82,3.07,3.07,0,0,0,2.73,0,2,2,0,0,0,.71-.82,3.29,3.29,0,0,0,.28-1.12c0-.42,0-.82,0-1.22V92.13h3.51V100a6.36,6.36,0,0,1-1.45,4.63,7.58,7.58,0,0,1-8.92,0A6.36,6.36,0,0,1,97.77,100V92.13Z"/><path d="M123.73,105.71h-4.39L116,100.49v5.22h-3.53V92.13h5.49a5.4,5.4,0,0,1,2,.34,3.74,3.74,0,0,1,2.23,2.24,4.75,4.75,0,0,1,.28,1.62,4,4,0,0,1-.75,2.51,3.72,3.72,0,0,1-2.21,1.3ZM116,98.2h.67a2.56,2.56,0,0,0,1.6-.43,1.48,1.48,0,0,0,.56-1.24,1.5,1.5,0,0,0-.56-1.25,2.63,2.63,0,0,0-1.6-.43H116Z"/><path d="M131.63,98.11h7a19.44,19.44,0,0,1-.09,2,6.9,6.9,0,0,1-.36,1.64,6.54,6.54,0,0,1-1,1.88,6,6,0,0,1-1.52,1.37,7.22,7.22,0,0,1-1.92.84,8.34,8.34,0,0,1-2.2.28,7.65,7.65,0,0,1-2.88-.52,6.35,6.35,0,0,1-3.7-3.73,7.91,7.91,0,0,1-.53-2.93,8,8,0,0,1,.52-2.9,6.26,6.26,0,0,1,1.46-2.26,6.52,6.52,0,0,1,2.27-1.46,8.05,8.05,0,0,1,3-.52,7.39,7.39,0,0,1,3.73.91,6.41,6.41,0,0,1,2.54,2.85l-3.35,1.38a3.43,3.43,0,0,0-1.22-1.6,3.07,3.07,0,0,0-1.7-.48,3.53,3.53,0,0,0-1.44.29,3.05,3.05,0,0,0-1.1.85,4,4,0,0,0-.72,1.32A5.23,5.23,0,0,0,128.1,99a5.43,5.43,0,0,0,.23,1.6,3.64,3.64,0,0,0,.67,1.28,3.12,3.12,0,0,0,1.12.84,3.73,3.73,0,0,0,1.55.29,4.23,4.23,0,0,0,1-.11,2.84,2.84,0,0,0,.87-.38,2.09,2.09,0,0,0,.64-.68,2.62,2.62,0,0,0,.34-1h-2.9Z"/><path d="M156.76,96.67a3.86,3.86,0,0,0-4.49-1.21,3.67,3.67,0,0,0-1.16.79,3.55,3.55,0,0,0-.77,1.18,3.93,3.93,0,0,0-.28,1.47,4.08,4.08,0,0,0,.28,1.5,3.71,3.71,0,0,0,1.94,2,3.59,3.59,0,0,0,1.44.28,4.08,4.08,0,0,0,3-1.44v4.18l-.36.13a10.55,10.55,0,0,1-1.51.42,7.34,7.34,0,0,1-1.39.13,6.9,6.9,0,0,1-2.69-.53,7,7,0,0,1-2.27-1.49,7.29,7.29,0,0,1-1.57-2.29A7.27,7.27,0,0,1,147,96a7.23,7.23,0,0,1,8.15-4.08,9.24,9.24,0,0,1,1.65.53Z"/><path d="M162.52,92.13v13.58H159V92.13Z"/><path d="M170.51,95.12v10.59H167V95.12h-2.89v-3h9.32v3Z"/><path d="M179.13,99.19l-4.95-7.06h4.22l2.52,3.71,2.5-3.71h4.21l-5,7.06v6.52h-3.53Z"/></g></g></svg>