<svg xmlns="http://www.w3.org/2000/svg" viewBox="0 0 249.77 168.51"><defs><style>.cls-1{fill:#a3ed98;}</style></defs><title>Asset 4</title><g id="Layer_2" data-name="Layer 2"><g id="Layer_1-2" data-name="Layer 1"><path class="cls-1" d="M9.41,76.56,0,85.39l4.7,25,23.52,9L41.48,133l6,3,17.11-23.1,26.52-2.14-3.85,12.84,3.85,6.84h8.12L95,144.56l13.68,5.14,9.41-6.85,7.27,4.7,5.56,21,22.67-3.42,10.7-6.84,6,2.56,18.4-19.24,26.09-9,10.69.43,4.7-16.25,16.68-3.42,3-4.28-6.84-14.54L249.77,92l-6.84-6.56-7.7-2-8.55-29.09-17.11,6.42-3.85-14.54-11.55-7.27-2.57-9.84-14.54-7.27-5.13-7.27-11.12,2.14-4.7,6.84V37.64L141.57,48.33l-9.41-7.27-7.27,3.42L111.63,30.36l-6.42-.43.43,6.42L96.23,24,99,20.74,86,3.42,77.41,0H70.57L65.65,7.27l3.63,19.67-6.41,10.7,7.7,1.28L66.29,50.25l-6.41,9-3,.21L53.67,68,36.14,74.21l-9,12.61Z"/><path d="M92.83,75.43l3.28,8.26,3.29-8.26h3.84L97.52,89H94.71L89,75.43Z"/><path d="M108.19,75.43V89h-3.53V75.43Z"/><path d="M111,75.43h5.26a4,4,0,0,1,2.84.9,3.34,3.34,0,0,1,1,2.59,3.6,3.6,0,0,1-.36,1.7,3.16,3.16,0,0,1-1.13,1.14,4.76,4.76,0,0,1,1.29.44,3,3,0,0,1,.86.73,2.89,2.89,0,0,1,.48,1,4.71,4.71,0,0,1,.14,1.15,4.11,4.11,0,0,1-.33,1.69,3.3,3.3,0,0,1-.94,1.24,4,4,0,0,1-1.46.76,6.93,6.93,0,0,1-2,.25H111Zm3.53,5.33h.65q1.65,0,1.65-1.32c0-.87-.55-1.31-1.65-1.31h-.65Zm0,5.5h.77a3.91,3.91,0,0,0,1.91-.34,1.17,1.17,0,0,0,.58-1.1,1.16,1.16,0,0,0-.58-1.09,3.89,3.89,0,0,0-1.91-.35h-.77Z"/><path d="M122.77,82.21a7,7,0,0,1,4.47-6.61,8.62,8.62,0,0,1,6.06,0,7,7,0,0,1,2.38,1.52,6.91,6.91,0,0,1,1.56,2.28,7.36,7.36,0,0,1,0,5.63,6.91,6.91,0,0,1-1.56,2.28,7.14,7.14,0,0,1-2.38,1.52,8.62,8.62,0,0,1-6.06,0,7.09,7.09,0,0,1-2.37-1.52,7.11,7.11,0,0,1-2.1-5.1Zm3.69,0a3.72,3.72,0,0,0,.3,1.5,4,4,0,0,0,.83,1.19,3.86,3.86,0,0,0,1.22.78,4,4,0,0,0,2.93,0A4.15,4.15,0,0,0,133,84.9a3.81,3.81,0,0,0,.83-1.19,3.57,3.57,0,0,0,.31-1.5,3.52,3.52,0,0,0-.31-1.49,3.7,3.7,0,0,0-.83-1.19,4,4,0,0,0-1.23-.78,4,4,0,0,0-2.93,0,3.69,3.69,0,0,0-1.22.78,3.86,3.86,0,0,0-.83,1.19A3.67,3.67,0,0,0,126.46,82.21Z"/><path d="M151.32,89h-4.4l-3.36-5.22V89H140V75.43h5.49a5.4,5.4,0,0,1,2,.33,4,4,0,0,1,1.4.91,3.8,3.8,0,0,1,.82,1.33,4.6,4.6,0,0,1,.28,1.62,4,4,0,0,1-.75,2.51,3.76,3.76,0,0,1-2.2,1.31Zm-7.76-7.51h.66a2.59,2.59,0,0,0,1.61-.43,1.67,1.67,0,0,0,0-2.48,2.59,2.59,0,0,0-1.61-.43h-.66Z"/><path d="M159.22,81.4h7a19.65,19.65,0,0,1-.09,2,6.93,6.93,0,0,1-.36,1.63,6.41,6.41,0,0,1-1,1.88,5.86,5.86,0,0,1-1.53,1.37,7,7,0,0,1-1.91.84,8.35,8.35,0,0,1-2.2.29,7.67,7.67,0,0,1-2.89-.53A6.35,6.35,0,0,1,154,87.39a6.77,6.77,0,0,1-1.46-2.27A7.86,7.86,0,0,1,152,82.2a8,8,0,0,1,.51-2.91A6.48,6.48,0,0,1,154,77a6.71,6.71,0,0,1,2.28-1.46,8.05,8.05,0,0,1,3-.52,7.36,7.36,0,0,1,3.72.92,6.33,6.33,0,0,1,2.54,2.84l-3.35,1.39a3.32,3.32,0,0,0-1.21-1.6,3,3,0,0,0-1.7-.49,3.37,3.37,0,0,0-1.44.3,3.14,3.14,0,0,0-1.11.84,4.13,4.13,0,0,0-.72,1.33,5.45,5.45,0,0,0-.26,1.72,5.22,5.22,0,0,0,.23,1.61,3.59,3.59,0,0,0,.67,1.27,3,3,0,0,0,1.12.84,3.71,3.71,0,0,0,1.54.3,4.17,4.17,0,0,0,1-.12,2.58,2.58,0,0,0,.88-.38,2.13,2.13,0,0,0,.63-.67,2.68,2.68,0,0,0,.35-1h-2.9Z"/></g></g></svg>