<svg xmlns="http://www.w3.org/2000/svg" viewBox="0 0 150.94 185.68"><defs><style>.cls-1{fill:#a3ed98;}</style></defs><title>Asset 3</title><g id="Layer_2" data-name="Layer 2"><g id="Layer_2-2" data-name="Layer 2"><path class="cls-1" d="M77.22,0,74.47,7.5,71,5.25V2.5l-6,5h-5.5l2,5.25H57.22l-8,14L43,30v5.5l-6.75-5.25L28.48,31l1.25,3.25-5,1.25L21,32l-7.5,6.25,1.75,2.5h8.25l-1.75,8,5.25,11L17.25,78.46,10.75,98,0,101.45V107l13.49,10.5,22-13.74,16.25,8.75L47.48,126l7.75,24,6.24,23.49,12.75,8,3,4.25,4-2-4-20,20.49-.75V144.19l6.5-2.75,3.5,7.75,30,10.75-1.25-15.75,14.49-43-28-2.75,1.5-7L103,65.48,104.71,39,92,42,84.72,54.73l-7.25-8-5.31,2.75L61.48,43.73,56,34.49l11.24-12L77,20l6.5-10.5Z"/><path d="M53.64,85.38v12h4.81v3.4H49.63V85.38Z"/><path d="M62.69,93.41l-5.63-8h4.79l2.87,4.22,2.85-4.22h4.79l-5.65,8v7.41h-4Z"/><path d="M72,93.1a8.1,8.1,0,0,1,2.4-5.8,8.24,8.24,0,0,1,2.69-1.73,9.91,9.91,0,0,1,6.9,0,8.33,8.33,0,0,1,2.71,1.73,7.8,7.8,0,0,1,1.77,2.6,8.35,8.35,0,0,1,0,6.41,7.86,7.86,0,0,1-1.77,2.59A8.33,8.33,0,0,1,84,100.63a9.91,9.91,0,0,1-6.9,0,8.24,8.24,0,0,1-2.69-1.73A8.06,8.06,0,0,1,72,93.1Zm4.2,0a4.17,4.17,0,0,0,.35,1.7,4.31,4.31,0,0,0,.94,1.35,4.2,4.2,0,0,0,1.38.89,4.51,4.51,0,0,0,1.67.32A4.43,4.43,0,0,0,82.18,97a4.28,4.28,0,0,0,1.4-.89,4.21,4.21,0,0,0,0-6.1,4.48,4.48,0,0,0-3.07-1.21,4.51,4.51,0,0,0-1.67.32,4.36,4.36,0,0,0-1.38.89,4.31,4.31,0,0,0-.94,1.35A4.17,4.17,0,0,0,76.17,93.1Z"/><path d="M91.62,100.82V85.38h4L103,94.82V85.38h4v15.44h-4l-7.41-9.44v9.44Z"/></g></g></svg>