<svg xmlns="http://www.w3.org/2000/svg" viewBox="0 0 205.85 199.12"><defs><style>.cls-1{fill:#a3ed98;}</style></defs><title>Asset 1_1</title><g id="Layer_2" data-name="Layer 2"><g id="Layer_1-2" data-name="Layer 1"><path class="cls-1" d="M47.36,0l-13,16L22,28.71V39.16l7.83,8.57L17.15,55.19l4.48,5.59-8.58,3L0,67.12v6L10.44,69l3.73,4.1L4.85,80.92,3.35,92.11l5.23,14.67h6L22,124.18H13.05L15.66,135l4.85,2.24L22,142.07l-11.19,8.2,2.24,10.45,5.59,8.2L32.07,173l9,3-1.12,8.58L21.63,193.9l4.85,2.24,18.64-10.82,21.26-11.93,14.17-8.2,3.35,6.71-6.71,3.36,8.58,14.91,5.59.38,10.07,8.57h4.47l4.48-20.51L99.88,167.8v-3l27.66,5.59L141,164.07l-2.61-8.57,19.39-11.19V151l6.71.37,9.33-7.45,7.95,1v-4.48l7.46,1.25V138l-7.71-2.24L180,130.51l5.72-3.48,13.67,7,6.47-3.23-5-9.45-7-4.47,1.5-6.47,5-.25-1.24,4.73,4,1,2.74-3.48-3.48-6.72-10.94,3.24-4.72-5.47-3,.5,2.74-4.35h4.47l11.44-12.8-12.43,2-19.15-9.45-9.44-5.72-3.73,1,1.49-18.14-1.74-7.21-9.94-3.73-8,6-6.21-13.68-11.19-5.22L117.59,38l-8-5.47L94.47,20.64,88.76,33.32l1,8-5.22,2.49L71.6,34.81,59.17,33.56l-.5-2.73,5-3L57.93,11.44,55.44,5.22l-3.23.5Z"/><path d="M51,91.43V102h4.23v3H47.42V91.43Z"/><path d="M63.67,91.43v9.41a9.36,9.36,0,0,1-.06,1.1,3.19,3.19,0,0,1-.21.86,3.67,3.67,0,0,1-.63,1.06,3.89,3.89,0,0,1-1,.81,5,5,0,0,1-1.2.52,5.09,5.09,0,0,1-1.37.19,4.14,4.14,0,0,1-3.55-2L58,101a1.92,1.92,0,0,0,.4,1,1,1,0,0,0,.76.36q1,0,1-1.56V91.43Z"/><path d="M70.06,91.43v7.38c0,.39,0,.8,0,1.21a3.35,3.35,0,0,0,.27,1.13,1.93,1.93,0,0,0,.71.82,2.5,2.5,0,0,0,1.37.31,2.47,2.47,0,0,0,1.36-.31,2,2,0,0,0,.71-.82,3.35,3.35,0,0,0,.28-1.13c0-.41,0-.82,0-1.21V91.43h3.51v7.86q0,3.18-1.45,4.63a6,6,0,0,1-4.45,1.46A6.1,6.1,0,0,1,68,103.92q-1.45-1.45-1.45-4.63V91.43Z"/><path d="M81.21,91.43h5.25a4.06,4.06,0,0,1,2.85.9,3.38,3.38,0,0,1,1,2.59,3.59,3.59,0,0,1-.37,1.7,3.08,3.08,0,0,1-1.13,1.14,4.24,4.24,0,0,1,1.29.45,2.94,2.94,0,0,1,.87.72,2.7,2.7,0,0,1,.47,1,4.26,4.26,0,0,1,.15,1.15,4,4,0,0,1-.34,1.69,3.38,3.38,0,0,1-.93,1.24,4,4,0,0,1-1.47.76,6.86,6.86,0,0,1-1.94.25H81.21Zm3.52,5.33h.65c1.11,0,1.66-.44,1.66-1.32s-.55-1.31-1.66-1.31h-.65Zm0,5.5h.78a3.94,3.94,0,0,0,1.91-.34,1.18,1.18,0,0,0,.57-1.1,1.17,1.17,0,0,0-.57-1.09,3.92,3.92,0,0,0-1.91-.35h-.78Z"/><path d="M97.19,91.43V102h4.23v3H93.66V91.43Z"/><path d="M109.92,91.43v9.41a7.54,7.54,0,0,1-.07,1.1,3.64,3.64,0,0,1-.2.86,4,4,0,0,1-.64,1.06,3.89,3.89,0,0,1-1,.81,5,5,0,0,1-1.2.52,5.09,5.09,0,0,1-1.37.19,4.15,4.15,0,0,1-3.55-2l2.31-2.36a1.91,1.91,0,0,0,.39,1,1,1,0,0,0,.76.36q1,0,1-1.56V91.43Z"/><path d="M120.75,102.64h-5L114.9,105h-3.76l5.17-13.57h3.85L125.32,105h-3.76Zm-.93-2.68-1.59-4.52L116.65,100Z"/><path d="M126.87,105V91.43h3.53l6.52,8.3v-8.3h3.51V105h-3.51l-6.52-8.3V105Z"/><path d="M151.62,102.64h-5l-.81,2.36H142l5.17-13.57H151L156.19,105h-3.76Zm-.93-2.68-1.59-4.52L147.52,100Z"/></g></g></svg>