<svg xmlns="http://www.w3.org/2000/svg" viewBox="0 0 396.14 59.3"><defs><style>.cls-1{fill:#5fa269;}.cls-2{fill:#fff;}</style></defs><title>alllogotop</title><g id="Layer_2" data-name="Layer 2"><g id="Layer_1-2" data-name="Layer 1"><g id="Layer_2-2" data-name="Layer 2-2"><path class="cls-1" d="M396,0s7,36.81-78,46c-74,8-123,6-123,6s-54,1.08-65,2c-36,3-60,3-81,5C28.87,60.92,0,53,0,53V0Z"/></g><path class="cls-2" d="M33.27,23.75h3.44V24a6,6,0,0,1-.22,1.66,3.81,3.81,0,0,1-3.68,2.55,4,4,0,0,1-3-1.26,4.34,4.34,0,0,1,4.92-7,5.08,5.08,0,0,1,1.59,1.29l-.9.85A3,3,0,0,0,33,20.79a3,3,0,0,0-2.21.91,3,3,0,0,0-.9,2.24,3.14,3.14,0,0,0,3,3.13,2.5,2.5,0,0,0,1.66-.63,2.24,2.24,0,0,0,.83-1.51H33.27Z"/><path class="cls-2" d="M39.54,19.77v5a2.77,2.77,0,0,0,.35,1.56,1.87,1.87,0,0,0,3,0,2.72,2.72,0,0,0,.35-1.56v-5h1.25v5.35a3,3,0,0,1-.82,2.17,3.07,3.07,0,0,1-5.33-2.17V19.77Z"/><path class="cls-2" d="M47.69,19.77v8.31H46.43V19.77Z"/><path class="cls-2" d="M49.69,28.08V19.77h1.74a6.15,6.15,0,0,1,2,.25,3.72,3.72,0,0,1,1.42.82,4,4,0,0,1,1.29,3.09A3.94,3.94,0,0,1,54.77,27a3.77,3.77,0,0,1-1.41.82,6.24,6.24,0,0,1-2,.23Zm1.25-1.18h.57a4.65,4.65,0,0,0,1.4-.17,3,3,0,0,0,1-.6,2.83,2.83,0,0,0,.93-2.2,2.89,2.89,0,0,0-.92-2.22A3.41,3.41,0,0,0,51.51,21h-.57Z"/><path class="cls-2" d="M62.28,21H59v2h3.23v1.18H59V26.9h3.33v1.18H57.69V19.77h4.59Z"/><path class="cls-2" d="M69.63,21v7.13H68.37V21H66.46V19.77h5.07V21Z"/><path class="cls-2" d="M72,23.89a4.08,4.08,0,0,1,1.29-3,4.24,4.24,0,0,1,3.08-1.26,4.35,4.35,0,0,1,4.33,4.33,4.07,4.07,0,0,1-1.29,3,4.4,4.4,0,0,1-6,.14A4.06,4.06,0,0,1,72,23.89Zm1.27,0a3.08,3.08,0,0,0,5.26,2.25,3.23,3.23,0,0,0,0-4.46,2.91,2.91,0,0,0-2.18-.91,3,3,0,0,0-2.2.91A3,3,0,0,0,73.24,23.91Z"/><path class="cls-2" d="M90.53,26.06H87l-.92,2H84.69l4.12-8.83,4,8.83H91.4ZM90,24.89l-1.23-2.83-1.3,2.83Z"/><path class="cls-2" d="M99.57,20.22V21.7a3.49,3.49,0,0,0-2.25-.91,2.9,2.9,0,0,0-2.16.92A3.1,3.1,0,0,0,94.28,24a3,3,0,0,0,.88,2.21,2.92,2.92,0,0,0,2.17.9,2.7,2.7,0,0,0,1.12-.21,3.28,3.28,0,0,0,.54-.3,4.94,4.94,0,0,0,.58-.44v1.52a4.58,4.58,0,0,1-2.26.6,4.16,4.16,0,0,1-3-1.24A4.12,4.12,0,0,1,93,24a4.28,4.28,0,0,1,1-2.83,4.22,4.22,0,0,1,3.35-1.52A4.16,4.16,0,0,1,99.57,20.22Z"/><path class="cls-2" d="M107.3,20.22V21.7a3.49,3.49,0,0,0-2.25-.91,2.9,2.9,0,0,0-2.16.92A3.1,3.1,0,0,0,102,24a3,3,0,0,0,.88,2.21,2.92,2.92,0,0,0,2.17.9,2.7,2.7,0,0,0,1.12-.21,3.74,3.74,0,0,0,.54-.3,4.94,4.94,0,0,0,.58-.44v1.52a4.58,4.58,0,0,1-2.26.6A4.16,4.16,0,0,1,102,27a4.12,4.12,0,0,1-1.26-3,4.28,4.28,0,0,1,1.05-2.83,4.33,4.33,0,0,1,5.51-.91Z"/><path class="cls-2" d="M113.47,21h-3.33v2h3.24v1.18h-3.24V26.9h3.33v1.18h-4.59V19.77h4.59Z"/><path class="cls-2" d="M119.82,21l-1,.6a1.88,1.88,0,0,0-.54-.65,1.32,1.32,0,0,0-.7-.17,1.27,1.27,0,0,0-.86.3.92.92,0,0,0-.35.73c0,.41.3.73.91,1l.83.34a3.56,3.56,0,0,1,1.48,1,2.25,2.25,0,0,1,.47,1.45,2.54,2.54,0,0,1-.77,1.89,2.62,2.62,0,0,1-1.91.75,2.55,2.55,0,0,1-1.79-.64,2.89,2.89,0,0,1-.86-1.8l1.27-.28a2,2,0,0,0,.3,1,1.43,1.43,0,0,0,2.1.15,1.36,1.36,0,0,0,.39-1,1.23,1.23,0,0,0-.07-.44.91.91,0,0,0-.21-.37,1.32,1.32,0,0,0-.37-.32,3.72,3.72,0,0,0-.53-.28l-.81-.34a2.31,2.31,0,0,1-1.7-2.11,2,2,0,0,1,.71-1.57,2.61,2.61,0,0,1,1.79-.63A2.48,2.48,0,0,1,119.82,21Z"/><path class="cls-2" d="M126.25,21l-1,.6a1.88,1.88,0,0,0-.54-.65,1.32,1.32,0,0,0-.7-.17,1.27,1.27,0,0,0-.86.3.92.92,0,0,0-.35.73c0,.41.3.73.91,1l.83.34a3.56,3.56,0,0,1,1.48,1,2.25,2.25,0,0,1,.47,1.45,2.54,2.54,0,0,1-.77,1.89,2.62,2.62,0,0,1-1.91.75,2.55,2.55,0,0,1-1.79-.64,3,3,0,0,1-.87-1.8l1.28-.28a2,2,0,0,0,.3,1,1.43,1.43,0,0,0,2.1.15,1.36,1.36,0,0,0,.39-1,1.23,1.23,0,0,0-.07-.44.91.91,0,0,0-.21-.37,1.32,1.32,0,0,0-.37-.32,3.72,3.72,0,0,0-.53-.28l-.81-.34a2.31,2.31,0,0,1-1.7-2.11,2,2,0,0,1,.71-1.57,2.6,2.6,0,0,1,1.78-.63A2.48,2.48,0,0,1,126.25,21Z"/><path class="cls-2" d="M129.23,19.77v8.31H128V19.77Z"/><path class="cls-2" d="M131.23,28.08V19.77h1.25a5.26,5.26,0,0,1,1.33.13,2,2,0,0,1,.85.43,2.28,2.28,0,0,1,.55.8,2.39,2.39,0,0,1,.21,1,2,2,0,0,1-.68,1.51,2,2,0,0,1,1,.79,2.34,2.34,0,0,1-.3,3,2.31,2.31,0,0,1-.93.58,5.66,5.66,0,0,1-1.42.15Zm1.26-4.74h.39a1.44,1.44,0,0,0,1-.31,1.23,1.23,0,0,0,.32-.91,1.15,1.15,0,0,0-.33-.89,1.36,1.36,0,0,0-1-.31h-.44Zm0,3.56h.77a1.93,1.93,0,0,0,1.25-.33,1.16,1.16,0,0,0,.42-.91,1.17,1.17,0,0,0-.4-.91,2.1,2.1,0,0,0-1.41-.36h-.63Z"/><path class="cls-2" d="M139,19.77V26.9h2.44v1.18h-3.7V19.77Z"/><path class="cls-2" d="M147.23,21H143.9v2h3.23v1.18H143.9V26.9h3.33v1.18h-4.59V19.77h4.59Z"/><path class="cls-2" d="M155.55,23.46l1.5,1.81,0-.06q.24-.26.45-.51t.42-.51l.82.84a5.78,5.78,0,0,1-.4.5c-.16.19-.36.41-.58.65l1.54,1.9h-1.56l-.83-1a3.36,3.36,0,0,1-2.38,1.18,2.67,2.67,0,0,1-1.87-.71,2.33,2.33,0,0,1-.76-1.76,2.44,2.44,0,0,1,1.2-2.06l.54-.37,0,0,.08-.06a2.59,2.59,0,0,1-.83-1.73,1.84,1.84,0,0,1,.55-1.37,2.05,2.05,0,0,1,1.45-.53,2,2,0,0,1,1.41.52,1.68,1.68,0,0,1,.56,1.29,1.6,1.6,0,0,1-.31,1A5.25,5.25,0,0,1,155.55,23.46Zm-1,.7-.07.05a6.3,6.3,0,0,0-1,.86,1,1,0,0,0-.27.68,1.36,1.36,0,0,0,.41.95,1.34,1.34,0,0,0,1,.41,2.57,2.57,0,0,0,1.68-.95Zm.27-1.58.11-.08c.17-.13.32-.25.43-.35a1.45,1.45,0,0,0,.25-.25.72.72,0,0,0,.16-.49.68.68,0,0,0-.22-.53.82.82,0,0,0-.59-.21.8.8,0,0,0-.57.21.65.65,0,0,0-.23.52,1.11,1.11,0,0,0,.29.72l.31.37Z"/><path class="cls-2" d="M166.56,24.54l2.58,3.54H167.6l-2.37-3.4H165v3.4h-1.25V19.77h1.47a3.69,3.69,0,0,1,2.38.62,2.28,2.28,0,0,1,.81,1.82,2.36,2.36,0,0,1-.51,1.52A2.27,2.27,0,0,1,166.56,24.54ZM165,23.59h.4c1.19,0,1.78-.46,1.78-1.36S166.6,21,165.45,21H165Z"/><path class="cls-2" d="M175,21h-3.34v2h3.24v1.18h-3.24V26.9H175v1.18h-4.59V19.77H175Z"/><path class="cls-2" d="M181.32,21l-1,.6a1.88,1.88,0,0,0-.55-.65,1.31,1.31,0,0,0-.69-.17,1.28,1.28,0,0,0-.87.3.91.91,0,0,0-.34.73c0,.41.3.73.9,1l.83.34a3.56,3.56,0,0,1,1.48,1,2.25,2.25,0,0,1,.47,1.45,2.54,2.54,0,0,1-.77,1.89,2.62,2.62,0,0,1-1.91.75,2.53,2.53,0,0,1-1.78-.64,2.85,2.85,0,0,1-.87-1.8l1.27-.28a2.19,2.19,0,0,0,.3,1,1.31,1.31,0,0,0,1.13.54,1.33,1.33,0,0,0,1-.39,1.4,1.4,0,0,0,.38-1,1.51,1.51,0,0,0-.06-.44,1.23,1.23,0,0,0-.21-.37,1.67,1.67,0,0,0-.37-.32,3.37,3.37,0,0,0-.54-.28l-.8-.34c-1.14-.48-1.71-1.18-1.71-2.11a2,2,0,0,1,.72-1.57,2.58,2.58,0,0,1,1.78-.63A2.46,2.46,0,0,1,181.32,21Z"/><path class="cls-2" d="M184.31,24.71v3.37h-1.26V19.77h1.42a6.19,6.19,0,0,1,1.58.15,2,2,0,0,1,.95.54,2.37,2.37,0,0,1,.72,1.77A2.29,2.29,0,0,1,187,24a3.06,3.06,0,0,1-2.06.67Zm0-1.17h.47c1.15,0,1.72-.44,1.72-1.33s-.59-1.28-1.78-1.28h-.41Z"/><path class="cls-2" d="M188.59,23.89a4.08,4.08,0,0,1,1.29-3A4.24,4.24,0,0,1,193,19.61a4.35,4.35,0,0,1,4.33,4.33A4.07,4.07,0,0,1,196,27a4.25,4.25,0,0,1-3.1,1.25,4.32,4.32,0,0,1-2.9-1.11A4.08,4.08,0,0,1,188.59,23.89Zm1.27,0a3.08,3.08,0,0,0,5.26,2.25,3.23,3.23,0,0,0,0-4.46,2.92,2.92,0,0,0-2.19-.91,3,3,0,0,0-2.19.91A3,3,0,0,0,189.86,23.91Z"/><path class="cls-2" d="M198.86,28.08V19.2l6.07,6.35V19.77h1.25v8.82l-6.06-6.33v5.82Z"/><path class="cls-2" d="M212.88,21l-1,.6a1.78,1.78,0,0,0-.55-.65,1.31,1.31,0,0,0-.69-.17,1.28,1.28,0,0,0-.87.3.91.91,0,0,0-.34.73c0,.41.3.73.9,1l.83.34a3.49,3.49,0,0,1,1.48,1,2.25,2.25,0,0,1,.47,1.45,2.53,2.53,0,0,1-.76,1.89,2.66,2.66,0,0,1-1.92.75,2.53,2.53,0,0,1-1.78-.64,2.85,2.85,0,0,1-.87-1.8l1.27-.28a2.19,2.19,0,0,0,.3,1,1.31,1.31,0,0,0,1.13.54,1.33,1.33,0,0,0,1-.39,1.36,1.36,0,0,0,.39-1,1.5,1.5,0,0,0-.07-.44,1.23,1.23,0,0,0-.21-.37,1.67,1.67,0,0,0-.37-.32,3.37,3.37,0,0,0-.54-.28l-.8-.34c-1.14-.48-1.71-1.18-1.71-2.11a2,2,0,0,1,.72-1.57,2.58,2.58,0,0,1,1.78-.63A2.48,2.48,0,0,1,212.88,21Z"/><path class="cls-2" d="M215.86,19.77v8.31H214.6V19.77Z"/><path class="cls-2" d="M218.28,19.77l2.3,5.76,2.33-5.76h1.37l-3.73,8.94-3.65-8.94Z"/><path class="cls-2" d="M229.9,21h-3.33v2h3.24v1.18h-3.24V26.9h3.33v1.18h-4.59V19.77h4.59Z"/><path class="cls-2" d="M239.66,21l-1,.6a1.78,1.78,0,0,0-.55-.65,1.31,1.31,0,0,0-.69-.17,1.28,1.28,0,0,0-.87.3.91.91,0,0,0-.34.73c0,.41.3.73.9,1l.83.34a3.49,3.49,0,0,1,1.48,1,2.25,2.25,0,0,1,.47,1.45,2.53,2.53,0,0,1-.76,1.89,2.65,2.65,0,0,1-1.92.75,2.53,2.53,0,0,1-1.78-.64,2.85,2.85,0,0,1-.87-1.8l1.27-.28a2.19,2.19,0,0,0,.3,1,1.31,1.31,0,0,0,1.13.54,1.33,1.33,0,0,0,1-.39,1.36,1.36,0,0,0,.39-1,1.5,1.5,0,0,0-.07-.44,1.23,1.23,0,0,0-.21-.37,1.67,1.67,0,0,0-.37-.32,3.37,3.37,0,0,0-.54-.28l-.8-.34c-1.14-.48-1.71-1.18-1.71-2.11a2,2,0,0,1,.72-1.57,2.58,2.58,0,0,1,1.78-.63A2.48,2.48,0,0,1,239.66,21Z"/><path class="cls-2" d="M243.83,21v7.13h-1.25V21h-1.91V19.77h5.07V21Z"/><path class="cls-2" d="M249.68,24.54l2.57,3.54h-1.53l-2.38-3.4h-.22v3.4h-1.26V19.77h1.47a3.69,3.69,0,0,1,2.38.62,2.28,2.28,0,0,1,.81,1.82,2.36,2.36,0,0,1-.51,1.52A2.28,2.28,0,0,1,249.68,24.54Zm-1.56-.95h.39c1.19,0,1.79-.46,1.79-1.36S249.72,21,248.56,21h-.44Z"/><path class="cls-2" d="M258.09,21h-3.34v2H258v1.18h-3.24V26.9h3.34v1.18H253.5V19.77h4.59Z"/><path class="cls-2" d="M264.32,21H261v2h3.24v1.18H261V26.9h3.33v1.18h-4.58V19.77h4.58Z"/><path class="cls-2" d="M268.27,21v7.13H267V21H265.1V19.77h5.07V21Z"/><path class="cls-2" d="M278.85,21H276v2h2.8v1.18H276v3.95H274.7V19.77h4.15Z"/><path class="cls-2" d="M281.56,19.77v5a2.69,2.69,0,0,0,.35,1.56,1.86,1.86,0,0,0,2.94,0,2.65,2.65,0,0,0,.35-1.56v-5h1.26v5.35a3.11,3.11,0,0,1-5.34,2.17,3,3,0,0,1-.82-2.17V19.77Z"/><path class="cls-2" d="M291.27,24.54l2.57,3.54H292.3l-2.37-3.4h-.23v3.4h-1.25V19.77h1.47a3.69,3.69,0,0,1,2.38.62,2.28,2.28,0,0,1,.81,1.82,2.36,2.36,0,0,1-.51,1.52A2.28,2.28,0,0,1,291.27,24.54Zm-1.57-.95h.4c1.19,0,1.78-.46,1.78-1.36S291.31,21,290.15,21h-.45Z"/><path class="cls-2" d="M295.09,28.08V19.2l6.06,6.35V19.77h1.26v8.82l-6.07-6.33v5.82Z"/><path class="cls-2" d="M305.65,19.77v8.31H304.4V19.77Z"/><path class="cls-2" d="M310,21v7.13h-1.26V21h-1.91V19.77h5.07V21Z"/><path class="cls-2" d="M314.23,19.77v5a2.69,2.69,0,0,0,.35,1.56,1.86,1.86,0,0,0,2.94,0,2.65,2.65,0,0,0,.35-1.56v-5h1.26v5.35a3,3,0,0,1-.82,2.17A3.08,3.08,0,0,1,313,25.12V19.77Z"/><path class="cls-2" d="M323.94,24.54l2.57,3.54H325l-2.38-3.4h-.22v3.4h-1.26V19.77h1.47a3.69,3.69,0,0,1,2.38.62,2.28,2.28,0,0,1,.81,1.82,2.36,2.36,0,0,1-.51,1.52A2.28,2.28,0,0,1,323.94,24.54Zm-1.56-.95h.39c1.19,0,1.79-.46,1.79-1.36S324,21,322.82,21h-.44Z"/><path class="cls-2" d="M332.35,21H329v2h3.24v1.18H329V26.9h3.34v1.18h-4.59V19.77h4.59Z"/></g></g></svg>