<svg xmlns="http://www.w3.org/2000/svg" width="175" height="206.659" viewBox="0 0 175 206.659"><defs><style>.a{fill:#474749;}</style></defs><g transform="translate(-4614 -2166.996)"><path class="a" d="M4856.134,2202.5a2.917,2.917,0,0,0-1.219-.559l-61.289-34.566a2.916,2.916,0,0,0-2.167-.284l-10.259,2.638a2.919,2.919,0,0,0-2.177,2.459,2.428,2.428,0,0,0-.021.323c0,.041,0,.084,0,.13V2297.49a2.936,2.936,0,0,0,1.487,2.551l19.619,11.112V2334.3l-6.481-3.656a2.924,2.924,0,0,0-2.164-.282L4781.2,2333a2.931,2.931,0,0,0-.711,5.393l30.5,17.2,7.753,4.478a2.93,2.93,0,0,0,.706.292l22.9,12.916a2.941,2.941,0,0,0,1.436.375,2.9,2.9,0,0,0,.73-.092l10.259-2.638a2.931,2.931,0,0,0,.711-5.392l-21.959-12.385V2330.08l8.983,5.088a2.937,2.937,0,0,0,1.443.38h.064a2.779,2.779,0,0,0,.793-.092l10.257-2.638a2.93,2.93,0,0,0,2.2-2.839V2204.811A2.95,2.95,0,0,0,4856.134,2202.5Zm-11.18,5.992,9.087-2.337V2330.11l-9.087,2.337Zm-.8-1.081-60.376-34.051,8.62-2.216,60.376,34.051Zm-61.347-33.177,60.845,34.462v123.5l-60.845-34.462Zm19.933,173.095-18.962-10.694,8.62-2.216,10.342,5.833Zm1.172.537v-36.828l16,9.06V2357.1Zm17.295,9.5v-36.531l9.087,5.147v29.047Zm9.633-1.267,21.934,12.371-8.62,2.216-21.934-12.37Z" transform="translate(-116.632)"/><path class="a" d="M4804.3,2330.3l52.471,29.85a.586.586,0,0,0,.876-.51V2247.685a.585.585,0,0,0-.3-.51l-52.471-29.85a.586.586,0,0,0-.876.51v111.953A.586.586,0,0,0,4804.3,2330.3Zm.876-111.455,51.3,29.183v110.6l-51.3-29.183Z" transform="translate(-134.305 -35.522)"/><path class="a" d="M4618.69,2343.87a40.478,40.478,0,0,1,11.934-28.811,2.345,2.345,0,0,0-3.316-3.317,45.436,45.436,0,0,0,0,64.256,2.345,2.345,0,1,0,3.316-3.317A40.478,40.478,0,0,1,4618.69,2343.87Z" transform="translate(0 -101.831)"/><path class="a" d="M4655.69,2362.364a29.7,29.7,0,0,1,8.757-21.142,2.345,2.345,0,1,0-3.315-3.316,34.587,34.587,0,0,0,0,48.917,2.345,2.345,0,1,0,3.315-3.316A29.7,29.7,0,0,1,4655.69,2362.364Z" transform="translate(-26.154 -120.325)"/><path class="a" d="M4692.69,2380.858a18.928,18.928,0,0,1,5.581-13.473,2.345,2.345,0,0,0-3.317-3.316,23.744,23.744,0,0,0,0,33.578,2.345,2.345,0,0,0,3.317-3.316A18.928,18.928,0,0,1,4692.69,2380.858Z" transform="translate(-52.308 -138.819)"/><path class="a" d="M4732.094,2390.231a2.346,2.346,0,0,0-3.317,0,12.9,12.9,0,0,0,0,18.24,2.345,2.345,0,0,0,3.317-3.316,8.207,8.207,0,0,1,0-11.607A2.346,2.346,0,0,0,4732.094,2390.231Z" transform="translate(-78.462 -157.313)"/><path class="a" d="M5155.949,2461.742a2.345,2.345,0,0,0-3.317,3.317,40.745,40.745,0,0,1,0,57.622,2.345,2.345,0,0,0,3.317,3.317,45.437,45.437,0,0,0,0-64.256Z" transform="translate(-380.256 -207.861)"/><path class="a" d="M5129.784,2487.906a2.345,2.345,0,1,0-3.316,3.316,29.9,29.9,0,0,1,0,42.284,2.345,2.345,0,1,0,3.316,3.316,34.587,34.587,0,0,0,0-48.917Z" transform="translate(-361.762 -226.356)"/><path class="a" d="M5103.622,2514.069a2.345,2.345,0,0,0-3.316,3.316,19.053,19.053,0,0,1,0,26.946,2.345,2.345,0,1,0,3.316,3.316,23.743,23.743,0,0,0,0-33.578Z" transform="translate(-343.268 -244.849)"/><path class="a" d="M5077.459,2540.231a2.345,2.345,0,0,0-3.316,3.316,8.207,8.207,0,0,1,0,11.607,2.345,2.345,0,1,0,3.316,3.316,12.9,12.9,0,0,0,0-18.24Z" transform="translate(-324.775 -263.343)"/></g></svg>