<svg xmlns="http://www.w3.org/2000/svg" width="131.765" height="215.409" viewBox="0 0 131.765 215.409"><defs><style>.a{fill:#474749;}</style></defs><g transform="translate(-6608.789 -2096.162)"><path class="a" d="M6733.847,2177.657l.229-.273c1.812-2.144,4.549-5.385,3.635-9.721-.779-3.7-4.123-7.18-10.19-10.6.7-.562,1.464-1.209,2.212-1.913,3.785-3.557,5.252-6.75,4.364-9.492-1.29-3.977-6.818-5.738-17.768-5.6.164-.3.327-.613.484-.936,1.869-3.819,2.226-7.314,1.033-10.108-1.576-3.686-5.621-5.939-12.041-6.712a11.746,11.746,0,0,0-3.447-7.031c-2.849-2.675-7.054-3.672-12.5-2.961-4.406.576-5.568-1.534-7.567-5.976-2.47-5.489-5.852-13.006-20.613-9.094a64.673,64.673,0,0,0-8.333,2.888c-6.257,2.7-9.408,5.61-9.63,8.885-.287,4.215,4.427,6.914,7.376,8.261a4.029,4.029,0,0,1-1.306,2.472c-.732.426-2.03-.132-2.739-.5a7.392,7.392,0,0,0-9.9,2.177c-2.3,3.135-3.064,8.429-.48,11.013a.465.465,0,0,1,.111.683c-.607,1.112-3.121,2.318-6.808,1.517-6.205-1.353-12.451,7.067-14.391,13.4-1.479,4.825-.724,8.658,2,10.61-2.627.77-5.478,1.849-6.123,4.428a12.016,12.016,0,0,0-.026,4.716,13.537,13.537,0,0,1-1.662,9.455c-2.046,3.935-.825,9.523,3.188,14.583,4.185,5.278,12.18,10.557,21.711,9.388a13.163,13.163,0,0,0,3.842,9.052c4.073,3.862,10.861,4.73,20.178,2.581a1.478,1.478,0,0,0,.551-.206c.292-.125,1.868-.662,4.173,1.068a2.218,2.218,0,0,0,.876.4,3.894,3.894,0,0,0,.792.077,5.312,5.312,0,0,0,3.728-1.609c1.642-1.643,2.513-4.339,2.621-8.145a13.2,13.2,0,0,1,6.094,7.512l-1.706,38.275-24.964-14.093a.551.551,0,0,0-.407-.055l-25.89,6.549h0a.553.553,0,0,0-.14.057l0,0c-.011.007-.02.016-.03.023a.584.584,0,0,0-.088.074.391.391,0,0,0-.033.044.486.486,0,0,0-.054.081.543.543,0,0,0-.023.056.63.63,0,0,0-.026.091c0,.01-.007.02-.009.031s0,.021,0,.032-.005.027-.005.041v2.115a.555.555,0,0,0-.014.106v23.586a.554.554,0,0,0,.267.474l3.908,2.357a.588.588,0,0,0,.071.07.547.547,0,0,0,.2.093l.009.005a.549.549,0,0,0,.286.08.555.555,0,0,0,.272-.071.572.572,0,0,0,.138-.115l25.46-6.44a.553.553,0,0,0,.417-.536v-1.565l19.586,11.1-.023.516a6.122,6.122,0,0,0,5.3,3.43,5.1,5.1,0,0,0,1.37-.178l12.282,6.961v23.344a.553.553,0,0,0,.267.474l4.188,2.526a.554.554,0,0,0,.558.008.608.608,0,0,0,.082-.062l25.672-6.494a.553.553,0,0,0,.417-.536v-23.966a.553.553,0,0,0-.026-.158v-1.908a.464.464,0,0,0,.021-.072.555.555,0,0,0-.276-.555l-40.67-22.96c-.351-15.017-.766-33.583-.766-37.538,0-6.86,4.365-7.8,4.365-7.8l10.286-5.36c3.629,3.234,9.2,5.2,16.927,6,7.822.807,14.086-.422,18.616-3.654a17.128,17.128,0,0,0,6.987-11.711C6741.451,2187.206,6738.426,2179.494,6733.847,2177.657Zm-10.077,102.348-24.836,6.283v-1.1l24.836-6.283Zm-98.542-33.643,3.083,1.747v22.408l-3.083-1.859Zm4.188,24.323v-21.95l24.63,13.959v1.761Zm-4.173-25.586v-.989l72.612,40.994v1.148Zm69.531,40.755,3.082,1.74v22.445l-3.082-1.859Zm4.187,24.393v-22.825l24.784-6.269v22.825Zm-.474-26.057-72.322-40.83,24.336-6.156,72.323,40.83Zm37.455-90.12a12.892,12.892,0,0,1-5.182,8.771c-3.627,2.587-8.874,3.548-15.595,2.855-7.783-.8-13.07-2.906-15.713-6.251-2.806-3.55-2.221-8-1.794-11.248.305-2.313.545-4.141-.7-5.384a2.975,2.975,0,0,0-2.579-.807,1.56,1.56,0,0,1-1.252-.2,3.3,3.3,0,0,1-.613-2.152,2.212,2.212,0,0,0-4.081-1.305,25.152,25.152,0,0,1-20.528,12.061,2.211,2.211,0,0,0-2.214,2.663c2.556,12.232.708,15.558.08,16.286a1.341,1.341,0,0,1-.408.334,9.44,9.44,0,0,0-5.151-1.63,6.863,6.863,0,0,0-2.763.543c-7.526,1.7-13.012,1.177-15.875-1.514-3.221-3.028-2.417-8.124-2.41-8.165a2.211,2.211,0,0,0-2.725-2.525c-8.732,2.227-16.241-2.547-20.019-7.311-2.826-3.563-3.923-7.5-2.73-9.794a17.9,17.9,0,0,0,2.122-12.079,8.6,8.6,0,0,1-.084-2.988c.487-.6,2.989-1.3,4.068-1.606,2.364-.663,4.6-1.289,4.713-3.457.12-2.245-2.464-3.279-3.852-3.834-2.218-.887-1.209-4.809-.848-5.99,1.7-5.533,6.529-10.965,9.224-10.375,5.051,1.1,9.833-.431,11.628-3.719a4.844,4.844,0,0,0-.864-5.929c-.507-.507-.594-3.207.918-5.269,1.127-1.535,2.49-1.812,4.29-.874,3.358,1.752,5.667,1.185,7.012.4,3.416-1.991,3.686-7.019,3.7-7.586a2.21,2.21,0,0,0-1.368-2.121c-4.689-1.93-6.282-3.656-6.221-4.546.067-1,1.923-2.937,6.93-5.107a61.1,61.1,0,0,1,7.738-2.688l.009,0c11.138-2.955,13.043,1.275,15.453,6.632,1.919,4.264,4.306,9.572,12.173,8.546,4.046-.527,7.031.069,8.871,1.774a8,8,0,0,1,2.2,5.708,2.212,2.212,0,0,0,2.052,2.353c3.957.279,8.941,1.236,10.22,4.216,1.434,3.341-1.932,8.534-3.348,10.25a2.211,2.211,0,0,0,1.813,3.621c13.1-.661,17.256,1.2,17.647,2.4.485,1.492-3.2,5.547-7.74,8.5a2.211,2.211,0,0,0,.236,3.841c8.345,4.073,10.586,7.254,11,9.2.434,2.058-.9,3.84-2.686,5.956-1.264,1.5-2.57,3.042-1.93,4.876.618,1.768,2.559,2.156,3.2,2.284C6733.907,2182.079,6736.922,2187.574,6735.94,2194.07Zm-46.439-9.7a5.426,5.426,0,0,0,.439.5c-4.649,6.847-6.606,7.082-7.389,5.521A29.373,29.373,0,0,0,6689.5,2184.368Zm-18.29,15.183q-.234-2.269-.708-4.9a30.2,30.2,0,0,0,9.418-2.811c-.021,4.618-.467,9.955-2.4,10.131S6673.057,2200.781,6671.211,2199.551Zm10.986,3.669c0-6.126,5.723-13.252,9.416-17.213a5.679,5.679,0,0,0,1.805.435c-.043.389-.1.815-.146,1.18-.468,3.561-1.249,9.515,2.676,14.522C6687.607,2207.889,6682.2,2211.661,6682.2,2203.219Z" transform="translate(0 0)"/><path class="a" d="M6721.134,2254.462a5.157,5.157,0,0,1,4.3-1.254c3.522.471,7.559-2.024,11.119-4.224,3.306-2.042,6.428-3.972,8.142-2.941,1.574.946,2.172,4.524,1.774,10.635-.476,7.34,1.163,12.391,4.874,15.014a12.32,12.32,0,0,0,7.214,2.021,20.918,20.918,0,0,0,3.259-.269,26.249,26.249,0,0,0,5.69-1.567.553.553,0,1,0-.435-1.016c-.094.04-9.409,3.949-15.094-.073-3.373-2.387-4.854-7.11-4.4-14.037.438-6.742-.3-10.445-2.309-11.655-2.292-1.377-5.535.627-9.292,2.948-3.4,2.1-7.259,4.486-10.392,4.069a6.28,6.28,0,0,0-5.176,1.519c-3.99,3.494-4.667,11.77-4.781,14.6a32.362,32.362,0,0,0-25.21-2.378c-4.7,1.533-8.5,1.451-11.291-.245a9.79,9.79,0,0,1-4.206-6.178.553.553,0,1,0-1.092.177,10.749,10.749,0,0,0,4.711,6.938c3.081,1.878,7.191,2,12.221.359a31.081,31.081,0,0,1,25.09,2.741.554.554,0,0,0,.86-.46C6716.707,2269.077,6716.762,2258.289,6721.134,2254.462Z" transform="translate(-47.054 -107.438)"/><path class="a" d="M6680.493,2352.028a32.067,32.067,0,0,0-6.781-.714c-3.864-.093-5.627-.136-6.2-4.741a.553.553,0,0,0-.79-.429c-.106.052-10.712,5.1-18.156.04a.553.553,0,1,0-.622.914c3.31,2.25,7.7,2.968,12.686,2.075a28.762,28.762,0,0,0,5.893-1.731c.83,4.824,3.386,4.886,7.166,4.977a31.1,31.1,0,0,1,6.559.686c2.9.668,3.085,1.375,3.094,1.51.042.661-1.762,1.786-3.475,2.421a.554.554,0,0,0-.349.633,11.722,11.722,0,0,1-2.205,8.872c-2.831,3.592-8,5.524-15.355,5.74-7.08.206-11.682-.847-13.685-3.138-1.781-2.035-1.337-4.726-.946-7.1a10.028,10.028,0,0,0,.225-3.02,2.314,2.314,0,0,0-1.219-1.736c-2.454-1.3-7.7,1.053-8.289,1.324a.553.553,0,0,0,.464,1c1.466-.675,5.637-2.236,7.308-1.351a1.2,1.2,0,0,1,.646.94,9.683,9.683,0,0,1-.225,2.658c-.41,2.486-.919,5.58,1.2,8.008,2.08,2.378,6.27,3.542,12.783,3.542q.856,0,1.766-.027c7.71-.227,13.162-2.3,16.2-6.175a12.637,12.637,0,0,0,2.484-9.3c1.187-.488,3.871-1.771,3.769-3.363C6684.371,2353.433,6683.116,2352.634,6680.493,2352.028Z" transform="translate(-20.934 -180.84)"/><path class="a" d="M6891.988,2343.986c-8.614,1.873-16.141.744-21.769-3.266a19.28,19.28,0,0,1-5.986-6.714.553.553,0,0,0-.75-.264c-9.671,4.836-17.341,3.4-17.417,3.382a.555.555,0,0,0-.377.059c-.155.086-3.8,2.144-3.679,5,.078,1.882,1.749,3.573,4.967,5.026a.553.553,0,0,0,.455-1.007c-2.765-1.249-4.258-2.653-4.317-4.062-.081-1.891,2.3-3.494,2.948-3.9,1.332.217,8.419,1.072,17.425-3.274a20.834,20.834,0,0,0,6.039,6.613c7.082,5.076,15.573,4.874,21.758,3.675-1.15,3.253-5.913,14.336-16.889,13.061a.553.553,0,0,0-.128,1.1,16,16,0,0,0,1.856.109c4.92,0,9.237-2.366,12.569-6.919a26.989,26.989,0,0,0,3.946-7.936.552.552,0,0,0-.65-.687Z" transform="translate(-168.75 -171.864)"/></g></svg>