<svg xmlns="http://www.w3.org/2000/svg" width="480.367" height="568.75" viewBox="0 0 480.367 568.75"><defs><style>.a{fill:#474749;}.b{fill:none;stroke:#474749;stroke-linecap:round;stroke-linejoin:round;}</style></defs><g transform="translate(-1216 -1195.37)"><path class="a" d="M1696.063,1485.918v-48.857a5.9,5.9,0,0,0-.031-.6,6.106,6.106,0,0,0-3.058-5.908l-211.185-119.463,10.1-27.14a1.618,1.618,0,0,0-.551-2l-10.382-6.451a2.072,2.072,0,0,0-2.84,1.265L1468.2,1303.4l-43.417-24.56,11.273-30.285a1.619,1.619,0,0,0-.551-2l-10.383-6.451a2.072,2.072,0,0,0-2.839,1.265l-11.086,29.784-132.581-75a6.091,6.091,0,0,0-4.089-.687l-52.666,9.65a6.04,6.04,0,0,0-5.8,5.254,5.194,5.194,0,0,0-.065.817v51.718a6.012,6.012,0,0,0,.233,1.659v48.4a6.013,6.013,0,0,0-.233,1.659v51.718a6.014,6.014,0,0,0,.233,1.658v48.4a6.011,6.011,0,0,0-.233,1.658v51.718a6.014,6.014,0,0,0,.233,1.659v50.191a6.1,6.1,0,0,0,3.086,5.294l33.823,19.156.959.958h.733l35.134,19.9-23.027,4.219c-1.757.322-2.5,2.7-1.09,3.489l26.784,15.038-19.934,53.552a1.619,1.619,0,0,0,.551,2l10.382,6.451a2.072,2.072,0,0,0,2.839-1.266l19.765-53.1,43.473,24.408-21.178,56.9a1.618,1.618,0,0,0,.551,2l10.382,6.45a2.072,2.072,0,0,0,2.839-1.265l24.338-65.384,13.426-2.459,80.048,45.336.345.345.642.214,136.632,77.383a6.014,6.014,0,0,0,1.277.97l32.122,18.192a6.087,6.087,0,0,0,6.7,3.614l53.542-9.81a6.081,6.081,0,0,0,4.989-5.984V1487.811A6.04,6.04,0,0,0,1696.063,1485.918Zm-7,261.293-51.109,9.364v-51.069l51.109-9.365Zm-413.654-544.48,65.652,37.138-49.81,9.126-65.651-37.138Zm258.35,493.889V1647.7l66.692,37.772v48.92Zm-68.992-39.073v-48.921l66.558,37.7v48.92Zm-68.991-39.073v-48.92l66.557,37.7v48.92ZM1257.8,1540.326v-48.92l58.985,33.406-14.866,39.937-.754.138Zm150.824-262.241-.449,1.207-47.859,8.768-65.755-37.2,49.81-9.126Zm139.619,78.979-49.809,9.126-30.691-17.361,10.49-28.182,4.255-.78Zm69.059,39.065-49.81,9.126-65.756-37.2,49.809-9.127Zm69.161,39.123-49.81,9.126-65.858-37.255L1620.6,1398Zm-362.106,113.4v27.229l-8.383-4.708Zm-33.279-298.385Zm68.754,39.12Zm69.363,39.01Zm138.117,78.13Zm3.856,259.562-2.908-1.647V1615.52l66.693,37.772v48.92Zm-5.342-106.461-66.557-37.7v-48.92l66.557,37.7ZM1462.337,1449.3l-26.424-14.965,12.884-34.613,9.353-1.713,4.188,2.372Zm-99.314-4.529,1.806-4.852,42.181,23.683a1.616,1.616,0,0,0,1.09.161l.442-.081-2.111,5.672-42.239-23.922Zm67.252,14.93,14.164-2.6c1.758-.322,2.5-2.7,1.09-3.489l-13.891-7.8,3.415-9.172,61.78,34.99v48.92l-66.558-37.7Zm-2.434.446v21.334l-7.828-4.433,6.179-16.6Zm5.694-63.61-11.206,30.105-26.55-15.037v-36.268Zm-12.065,32.415-3.434,9.227-43.474-24.408,3.5-9.4Zm109.859,59.422-66.558-37.695v-48.921l66.558,37.7Zm-166.85-91.7-3.195,8.583v-10.392Zm28.867,68.066V1504.5l-1.271,3.412-43.473-24.408,13.561-36.429Zm2.434,33.227v-31.848l9.79,5.545Zm68.991,7.226,66.558,37.7v48.92l-66.558-37.695Zm68.992,39.073,66.692,37.772v48.92l-66.692-37.772Zm66.692-16.744-66.692-37.772v-48.92l66.692,37.772Zm-207.109-153.552v36.255l-14.424-8.169,11.141-29.929Zm-66.558,53.075,21.792,12.342-14.823,39.822-.937.172-6.031-3.416Zm103,107.258-6.873-3.893,1.441-.264c1.758-.323,2.5-2.7,1.091-3.49l-19.772-11.1,13.475-36.2,43.183,24.457v48.92l-32.542-18.431Zm-74.5-181.7,21.167,11.884-11.12,29.874-38.551-21.833v-48.92l41.261,23.369-11.667,2.137C1354.625,1349.436,1353.883,1351.812,1355.292,1352.6Zm-30.937,18.547-66.558-37.7v-48.92l66.558,37.7Zm-32.062-15.362,66.557,37.7v11.779a1.905,1.905,0,0,0-.2.021l-36.34,6.658c-1.757.323-2.5,2.7-1.09,3.49l30.006,16.847-1.785,4.8-57.147-32.366Zm278.873,206.863-2.908-1.646v-48.921l66.693,37.771v48.92Zm63.785-67.311-63.785-36.125-2.908-1.646v-48.921l66.693,37.772Zm-69.126-39.15-66.557-37.7v-48.92l66.557,37.695Zm-68.991-39.074-34.951-19.8,16.631-3.047c1.758-.322,2.5-2.7,1.09-3.489l-22.73-12.762,9.979-26.807,29.982,16.98Zm-53.564-46.732-12.993-7.3V1330.5l22.993,13.022Zm-15.427-8.662-28.046-15.746,10.064-27.038,17.982,10.184Zm-43.772-17.682-12.289,2.251-7.589-4.3-2.907-1.647v-48.921l34.993,19.818ZM1257.8,1387.97l66.558,37.7v48.92l-66.558-37.7Zm101.054,132.905v24.965l-27.626-15.646,7.645-20.537Zm39.633,14.011,20.7-3.793,8.654,4.9v48.92l-39.627-22.442Zm31.792,2.487,66.558,37.7v48.92l-66.558-37.7Zm68.992,39.074,66.557,37.695v48.921l-66.557-37.7Zm-243.9-244.37-31.828-18.026v-48.921l31.828,18.027Zm36.93,127.148,36.794,20.839-26.856,4.921c-1.757.322-2.5,2.7-1.09,3.489l24.125,13.545-7.624,20.483-25.349-14.356Zm68.991,88v-24.978l21.058,11.823-7.71,20.714-10.441-5.913Zm274.239,103.6-32.3-18.291v-48.674l32.3,18.291v48.674Zm-32.3-121.726v-48.674l31.991,18.118v1.879a1.211,1.211,0,0,0,.3.8v46.172Zm-313.369-174.681v48.921l-66.558-37.7v-48.92Zm-34.5,81.1-31.828-18.026v-48.921l31.828,18.027Zm103.487-145.463v48.92l-66.557-37.695v-48.895l37.744,21.351Zm279.107,257.83v-49.244l51.109-9.365v49.244Zm-205.281-218.885,27.9-5.112-6.426,17.262Zm-69.059-39.065,43.567-7.982-10.033,26.952ZM1289.859,1251V1299.9l-66.558-37.7v-48.848Zm0,206.844v48.921l-66.558-37.7v-48.92Zm36.929,84.266,3.576-9.607,43.408,24.584-14.328,38.492-32.656-18.335Zm362.278,99.23-51.109,9.365v-48.636l51.109-9.364Zm0-51.11-51.109,9.365v-49.244l51.109-9.365Zm-.3-103.38-51.11,9.364v-48.331l51.11-9.365Zm-227.194-165.626-32.2,5.9-18.635-10.541,11.47-30.814,43.417,24.56Zm-71.406,291.6-17.114-9.608,14.308-38.437,5.991,3.393v48.921l-2.906-1.646A1.74,1.74,0,0,0,1390.161,1612.827Zm213.066,74.462,32.3,18.29v48.92l-32.3-18.29Zm85.838,6.379-51.109,9.365V1653.18l51.109-9.365ZM1223.534,1472l31.828,18.027v48.92l-31.828-18.027Z" transform="translate(0 0)"/><line class="b" transform="translate(1291.076 1250.265)"/><line class="b" transform="translate(1359.83 1289.386)"/><line class="b" transform="translate(1429.193 1328.395)"/><line class="b" transform="translate(1567.31 1406.525)"/></g></svg>