<svg xmlns="http://www.w3.org/2000/svg" width="366.666" height="599.429" viewBox="0 0 366.666 599.429"><defs><style>.a{fill:#474749;}</style></defs><g transform="translate(-6608.789 -2096.162)"><path class="a" d="M6956.791,2322.942c.219-.262.438-.519.639-.76,5.041-5.967,12.658-14.984,10.117-27.052-2.17-10.285-11.473-19.979-28.357-29.488,1.951-1.563,4.072-3.365,6.156-5.324,10.531-9.9,14.615-18.785,12.143-26.414-3.588-11.066-18.973-15.967-49.441-15.573.455-.836.908-1.706,1.348-2.6,5.2-10.627,6.193-20.353,2.873-28.127-4.385-10.256-15.643-16.527-33.506-18.678-.732-5.391-2.977-13.359-9.592-19.566-7.928-7.443-19.631-10.217-34.777-8.239-12.262,1.6-15.494-4.27-21.057-16.63-6.873-15.275-16.285-36.191-57.361-25.306a179.918,179.918,0,0,0-23.187,8.037c-17.414,7.525-26.18,15.612-26.8,24.726-.8,11.728,12.318,19.239,20.525,22.989-.645,2.812-1.84,5.833-3.635,6.88-2.035,1.184-5.648-.366-7.621-1.4-10.3-5.376-20.863-3.055-27.555,6.06-6.4,8.725-8.527,23.456-1.336,30.646a1.294,1.294,0,0,1,.309,1.9c-1.691,3.1-8.686,6.45-18.943,4.221-17.268-3.764-34.648,19.666-40.047,37.294-4.117,13.426-2.014,24.094,5.555,29.525-7.312,2.141-15.244,5.145-17.039,12.323-1.187,4.751-.619,9.007-.07,13.124.908,6.816,1.848,13.864-4.625,26.311-5.693,10.95-2.3,26.5,8.871,40.581,11.646,14.688,33.895,29.377,60.416,26.125.344,7.146,2.465,17.389,10.691,25.188,11.334,10.748,30.225,13.162,56.15,7.181a4.122,4.122,0,0,0,1.533-.572c.814-.346,5.2-1.842,11.613,2.971a6.169,6.169,0,0,0,2.438,1.1,10.828,10.828,0,0,0,2.2.214,14.784,14.784,0,0,0,10.375-4.479c4.568-4.571,6.994-12.075,7.293-22.665,14.074,8.478,16.959,20.9,16.959,20.9l-4.746,106.51-69.469-39.218a1.531,1.531,0,0,0-1.133-.152l-72.047,18.225-.01,0a1.543,1.543,0,0,0-.389.158c-.006,0-.008.007-.014.011-.031.019-.055.045-.084.065a1.516,1.516,0,0,0-.246.207,1.3,1.3,0,0,0-.094.122,1.383,1.383,0,0,0-.148.226,1.418,1.418,0,0,0-.064.156,1.577,1.577,0,0,0-.074.253c-.006.029-.02.055-.025.085s.006.059,0,.09-.016.075-.016.113v5.886a1.662,1.662,0,0,0-.037.3v65.633a1.542,1.542,0,0,0,.744,1.318l10.875,6.56a1.657,1.657,0,0,0,.2.2,1.533,1.533,0,0,0,.555.258l.025.015a1.543,1.543,0,0,0,1.553.023,1.593,1.593,0,0,0,.385-.321l70.85-17.922a1.539,1.539,0,0,0,1.162-1.492v-4.354l54.5,30.888-.064,1.435s4.34,9.545,14.752,9.545a14.18,14.18,0,0,0,3.811-.5l34.178,19.371v64.958a1.537,1.537,0,0,0,.744,1.319l11.652,7.03a1.541,1.541,0,0,0,1.553.021,1.574,1.574,0,0,0,.227-.172l71.439-18.072a1.539,1.539,0,0,0,1.16-1.49v-66.69a1.51,1.51,0,0,0-.072-.44v-5.31a1.419,1.419,0,0,0,.061-.2,1.546,1.546,0,0,0-.77-1.544L6817.8,2537.58c-.977-41.787-2.131-93.454-2.131-104.459,0-19.089,12.146-21.692,12.146-21.692l28.623-14.915c10.1,9,25.605,14.481,47.105,16.7,21.768,2.245,39.2-1.175,51.8-10.167,10.645-7.591,17.369-18.861,19.443-32.589C6977.951,2349.514,6969.533,2328.054,6956.791,2322.942ZM6928.75,2607.75l-69.113,17.484v-3.054l69.113-17.483Zm-274.219-93.621,8.578,4.861v62.356l-8.578-5.173Zm11.652,67.686v-61.082l68.541,38.844v4.9Zm-11.613-71.2v-2.753l202.063,114.075v3.195Zm193.486,113.411,8.576,4.843v62.459l-8.576-5.174Zm11.652,67.88v-63.517l68.967-17.446v63.516Zm-1.318-72.51-201.254-113.62,67.721-17.131,201.256,113.619Zm104.227-250.78c-1.092,7.221-4.48,17.319-14.42,24.409-10.094,7.2-24.693,9.874-43.4,7.944-21.658-2.232-36.369-8.086-43.725-17.394-7.807-9.879-6.18-22.259-4.994-31.3.85-6.438,1.518-11.523-1.947-14.981a8.279,8.279,0,0,0-7.178-2.247c-1.656.221-2.832.03-3.484-.567-1.289-1.18-1.777-4.3-1.705-5.988a6.154,6.154,0,0,0-11.355-3.633c-21.184,33.732-55.7,33.572-57.125,33.563a6.152,6.152,0,0,0-6.16,7.41c7.113,34.039,1.969,43.294.223,45.32a3.745,3.745,0,0,1-1.135.93,26.27,26.27,0,0,0-14.334-4.536,19.1,19.1,0,0,0-7.687,1.511c-20.943,4.728-36.209,3.276-44.178-4.214-8.963-8.425-6.727-22.606-6.705-22.721a6.154,6.154,0,0,0-7.582-7.026c-24.3,6.2-45.2-7.087-55.707-20.344-7.863-9.916-10.918-20.87-7.6-27.255,8.266-15.9,6.9-26.136,5.9-33.613-.437-3.286-.787-5.9-.234-8.314,1.354-1.674,8.316-3.627,11.32-4.47,6.576-1.844,12.791-3.586,13.113-9.621.334-6.248-6.855-9.124-10.719-10.669-6.172-2.469-3.365-13.382-2.359-16.668,4.719-15.4,18.168-30.513,25.666-28.872,14.055,3.058,27.363-1.2,32.359-10.351a13.481,13.481,0,0,0-2.406-16.5c-1.41-1.411-1.65-8.924,2.557-14.661,3.137-4.272,6.93-5.043,11.938-2.431,9.344,4.876,15.77,3.3,19.512,1.116,9.506-5.54,10.256-19.533,10.309-21.11a6.152,6.152,0,0,0-3.807-5.9c-13.047-5.372-17.48-10.173-17.311-12.651.188-2.783,5.35-8.174,19.283-14.21a170.086,170.086,0,0,1,21.533-7.481l.025-.005c30.994-8.224,36.295,3.549,43,18.455,5.342,11.867,11.984,26.637,33.877,23.782,11.258-1.467,19.564.192,24.686,4.938,6.57,6.093,6.127,15.823,6.121,15.883a6.156,6.156,0,0,0,5.709,6.548c11.012.776,24.883,3.44,28.441,11.732,3.99,9.3-5.377,23.748-9.316,28.524a6.154,6.154,0,0,0,5.047,10.077c36.453-1.84,48.02,3.333,49.105,6.68,1.35,4.153-8.916,15.436-21.537,23.664a6.153,6.153,0,0,0,.658,10.689c23.223,11.335,29.457,20.185,30.6,25.614,1.207,5.727-2.5,10.686-7.473,16.574-3.518,4.161-7.152,8.464-5.371,13.568,1.721,4.919,7.121,6,8.9,6.355C6956.961,2335.246,6965.35,2350.538,6962.617,2368.615Zm-129.229-27a15.061,15.061,0,0,0,1.223,1.389c-12.937,19.055-18.383,19.708-20.562,15.365A81.717,81.717,0,0,0,6833.389,2341.616Zm-50.895,42.249q-.65-6.315-1.969-13.631a84.042,84.042,0,0,0,26.207-7.822c-.059,12.852-1.3,27.7-6.684,28.191S6787.631,2387.287,6782.494,2383.865Zm30.57,10.209c0-17.046,15.926-36.877,26.2-47.9a15.79,15.79,0,0,0,5.023,1.211c-.119,1.083-.273,2.267-.408,3.285-1.3,9.91-3.475,26.478,7.447,40.412C6828.119,2407.07,6813.064,2417.564,6813.064,2394.074Z" transform="translate(0)"/><path class="a" d="M6805.485,2271.964a14.349,14.349,0,0,1,11.969-3.489c9.8,1.31,21.035-5.632,30.943-11.755,9.2-5.684,17.887-11.053,22.656-8.184,4.381,2.632,6.045,12.588,4.938,29.594-1.324,20.425,3.236,34.48,13.563,41.78,5.27,3.725,12.105,5.624,20.076,5.624a58.248,58.248,0,0,0,9.068-.748,73,73,0,0,0,15.834-4.362,1.538,1.538,0,1,0-1.211-2.828c-.26.111-26.184,10.989-42-.2-9.385-6.643-13.508-19.784-12.256-39.062,1.219-18.762-.824-29.066-6.426-32.432-6.377-3.831-15.4,1.745-25.857,8.2-9.473,5.853-20.2,12.484-28.92,11.323a17.475,17.475,0,0,0-14.4,4.226c-11.1,9.722-12.984,32.752-13.3,40.63-8.068-4.474-36.2-17.688-70.152-6.616-13.08,4.267-23.652,4.037-31.418-.682-9.691-5.884-11.67-16.973-11.705-17.191a1.538,1.538,0,1,0-3.037.493c.082.511,2.16,12.634,13.109,19.306,8.572,5.227,20.012,5.563,34.006,1,38.693-12.62,69.514,7.423,69.818,7.627a1.541,1.541,0,0,0,2.393-1.281C6793.165,2312.635,6793.317,2282.615,6805.485,2271.964Z" transform="translate(-15.007 -34.265)"/><path class="a" d="M6756.743,2362.615a89.223,89.223,0,0,0-18.869-1.985c-10.752-.26-15.658-.378-17.262-13.192a1.537,1.537,0,0,0-2.2-1.193c-.295.144-29.809,14.2-50.523.112a1.538,1.538,0,1,0-1.73,2.543c9.209,6.263,21.416,8.26,35.3,5.774a80.055,80.055,0,0,0,16.4-4.818c2.311,13.425,9.424,13.6,19.941,13.851a86.565,86.565,0,0,1,18.252,1.908c8.057,1.859,8.586,3.826,8.611,4.2.117,1.84-4.9,4.97-9.67,6.738a1.541,1.541,0,0,0-.971,1.76c.027.134,2.7,13.479-6.135,24.688-7.879,10-22.256,15.371-42.73,15.973-19.7.572-32.506-2.358-38.08-8.731-4.955-5.664-3.721-13.152-2.633-19.759.541-3.285,1.008-6.121.627-8.4a6.44,6.44,0,0,0-3.393-4.83c-6.83-3.61-21.424,2.93-23.066,3.686a1.538,1.538,0,0,0,1.289,2.793c4.08-1.879,15.686-6.222,20.338-3.759a3.334,3.334,0,0,1,1.795,2.616c.3,1.779-.15,4.507-.625,7.4-1.141,6.917-2.559,15.527,3.352,22.284,5.787,6.619,17.447,9.856,35.572,9.856q2.382,0,4.914-.074c21.455-.63,36.627-6.411,45.088-17.184,8.137-10.359,7.43-22.029,6.912-25.891,3.3-1.357,10.77-4.928,10.486-9.357C6767.536,2366.525,6764.044,2364.3,6756.743,2362.615Z" transform="translate(-6.677 -57.676)"/><path class="a" d="M6981.092,2362.352c-23.971,5.212-44.918,2.069-60.576-9.089-11.842-8.438-16.613-18.583-16.658-18.682a1.54,1.54,0,0,0-2.09-.735c-26.91,13.457-48.256,9.454-48.467,9.411a1.546,1.546,0,0,0-1.049.164c-.43.24-10.568,5.966-10.236,13.924.215,5.237,4.867,9.942,13.82,13.985a1.538,1.538,0,0,0,1.268-2.8c-7.693-3.475-11.85-7.383-12.014-11.3-.225-5.263,6.395-9.723,8.205-10.843,3.705.6,23.428,2.984,48.488-9.112a57.985,57.985,0,0,0,16.8,18.4c19.707,14.125,43.336,13.563,60.549,10.226-3.2,9.053-16.453,39.894-47,36.345a1.538,1.538,0,1,0-.357,3.056,44.548,44.548,0,0,0,5.164.3c13.691,0,25.705-6.584,34.977-19.254a75.073,75.073,0,0,0,10.979-22.084,1.536,1.536,0,0,0-1.809-1.91Z" transform="translate(-53.821 -54.814)"/></g></svg>