<svg xmlns="http://www.w3.org/2000/svg" width="486.605" height="394.858" viewBox="0 0 486.605 394.858"><defs><style>.a{fill:#facfa7;}.a,.b,.c,.d,.e,.f,.g,.h,.i,.k,.l,.m{fill-rule:evenodd;}.b,.j{fill:#0c2245;}.c{fill:#124057;}.d{fill:#7d2735;}.e{fill:#a93548;}.f{fill:#b28b67;}.g{fill:#297499;}.h{fill:#3aa2d6;}.i{fill:#e4e4e4;}.k{fill:#8ecf84;}.l{fill:#e8c010;}.m{fill:#a3ed98;}</style></defs><g transform="translate(-1270.373 -730.813)"><g transform="translate(1270.373 730.813)"><g transform="translate(85.558 0)"><g transform="translate(0 1.823)"><path class="a" d="M177.853,39.822c4,11.4-.844,37.96-8.428,38.7-3.025.295-8.931-2.509-14.64-7.295l-.42,28.61L131,96.183l13.9-36.228c-3.662-5.967-5.689-12.894-4.05-20.043C145.575,19.309,173.857,28.426,177.853,39.822Z" transform="translate(-131.004 -27.638)"/></g><g transform="translate(7.144)"><path class="b" d="M159.639,44.906c2.491-2.693,4.79-4.685,7.522-5.623,10.244,1.768,11.735.115,12.705-6.091-1.473-1.446-7.014-4.36-13.481-5.947a17.151,17.151,0,0,0-11.248-.92c-4.92.6-9.359,2.854-11.963,7.968-8.095,10-5.047,22.211.861,27.142,2.057-1.784,3.883-3.541,5.533-5.236a5.911,5.911,0,0,1,5.647-9.38,6.1,6.1,0,0,1,.694.151c-.485,4.056-2.022,17.793-1.193,22.777.975,5.877,11.555,8.937,15.319,9.525,3.252.509,3.623-2.587,3.889-4.807.037-.319.074-.621.116-.891.088-.564-.645-.677-1.474-.8-1.076-.166-2.313-.357-2.12-1.591.342-2.184,5.457-2.776,6.685-4.028,1.487-1.517,2.258-3.757.417-4.045-2.525-.394-7.979,2.5-13.735,1.6C158.094,63.807,159.62,45.139,159.639,44.906Z" transform="translate(-138.255 -25.788)"/></g></g><g transform="translate(27.426 158.831)"><g transform="translate(55.173)"><path class="b" d="M128,187l35.719,125.347,26.061,92.388h19.008L181.095,187Z" transform="translate(-128 -187)"/></g><g transform="translate(1.76)"><path class="c" d="M117.646,187c-.826,64.605-3.643,99.843-4.51,105.713s-13.984,43.21-39.35,112.022H93.478q48.438-99.02,54.079-112.022c3.76-8.668,15.366-43.906,32.844-105.713Z" transform="translate(-73.786 -187)"/></g><g transform="translate(0 214.779)"><path class="b" d="M72,425.69,72.985,405h20.69c14.715,10.345,38.424,16.749,38.424,16.749v3.941H94.66l-12.808-1.97v1.97Z" transform="translate(-72 -405)"/></g><g transform="translate(114.286 214.779)"><path class="b" d="M188,425.69l.985-20.69h20.69c14.715,10.345,38.424,16.749,38.424,16.749v3.941H210.66l-12.808-1.97v1.97Z" transform="translate(-188 -405)"/></g></g><g transform="translate(0 50.721)"><g transform="translate(0 71.114)"><path class="a" d="M45.978,247.224c7.248-4.97,17.695-13.67,19.106-16.534,2.887-5.857,17.312-81.24,17.312-81.24l21.573.081S79.324,229.384,77.8,233.151c-1.974,4.893,1.379,12,3.653,16.822.352.746.678,1.436.955,2.056-3.156,1.412-4.672-.295-6.269-2.094-1.8-2.033-3.715-4.182-8.211-2.091-1.737.808-3.38,1.763-4.986,2.7-5.547,3.224-10.642,6.186-17.574,1.908-1.1-.678-2.3-3.231.607-5.226Zm172.9-73.133,27.91,27.227a84.58,84.58,0,0,1,19.961,11.475c1.167,1.407,2.436,4.1-3.051,2.9s-11.314-2.229-12.346-.444c-.452.782-.123,1.746.23,2.778.452,1.325.943,2.765-.128,4.077q-1.906,2.336-12.822-14.858L209.6,190.13l9.27-16.039Z" transform="translate(-44.163 -149.45)"/></g><g transform="translate(103.973 8.453)"><path class="d" d="M149.7,87.31l8.519-1.461c13.421,47.441,82.376,79.778,86.608,97.512,1.553,6.5-3.128,9.792-.71,11.772l-11.074,8.106c-1.875-2.188-5.877,1.814-14.234-.985S149.7,143.484,149.7,87.31Z" transform="translate(-149.695 -85.849)"/></g><g transform="translate(17.771)"><path class="e" d="M159.787,79.134l-26.536-1.855a3.943,3.943,0,0,0-4.207,3.656l-.4,5.771C112.607,99.044,72.87,135.914,62.514,204.548a20.634,20.634,0,0,0,2.451,14.157c1.075,2.11,1.966,3.858,1.566,6.066l14.492,4c0-4,11-5.651,13.837-16.036,1.594-5.832,3.927-13.116,6.715-21.22.263,10.732,2.3,20.6,6.732,28.777,11.061,20.4,74.985-1.971,81.662-22.778,3.564-11.1-1.493-20.424-8.18-32.751-8.49-15.649-19.607-36.142-19.057-71.273l.709-10.15A3.943,3.943,0,0,0,159.787,79.134Z" transform="translate(-62.201 -77.269)"/></g></g></g><g transform="translate(1504.82 807.775)"><g transform="translate(114.523 22.159)"><path class="f" d="M130.175,36.548c-6.469,9.1-8.974,33.94-2.427,36.539,2.612,1.037,8.577.058,14.874-2.73l-6.955,25.524,21.69,2.739-3.072-35.745c4.781-4.362,8.357-10,8.733-16.769C164.105,26.594,136.646,27.448,130.175,36.548Z" transform="translate(-123.909 -30.344)"/></g><g transform="translate(118.829 0)"><path class="b" d="M140.506,24.832a28.556,28.556,0,0,1,9.2.143,15.731,15.731,0,0,1-.108-8.03c.652-2.56,2.093-4.627,3.461-6.811a9.846,9.846,0,0,1,2.266-2.712A6.527,6.527,0,0,1,158.6,6.164a8.272,8.272,0,0,1,3.529.444c.5.172.93.465,1.417.66s.789-.093,1.2-.37a6.5,6.5,0,0,1,3.528-.879,8.733,8.733,0,0,1,3.769.942A7.546,7.546,0,0,1,174.975,9.4a5.411,5.411,0,0,1,.771,1.585c.064.234.063.367.274.476.2.1.435.134.639.232a8.332,8.332,0,0,1,4.208,4.908,13.775,13.775,0,0,1,.039,5.705c-.368,2.329-3.25,8.165-5.507,10.141a13.371,13.371,0,0,1-7.345,3.006,19.765,19.765,0,0,1,2.739,7.133,32.951,32.951,0,0,1,.615,8.321,26.716,26.716,0,0,1-1.417,7.948,8.739,8.739,0,0,1-4.589,5.155,18.611,18.611,0,0,1-3.162,1.025,19.893,19.893,0,0,1-3.2.6c-2.05.16-4.343-.2-5.681-1.986a11.055,11.055,0,0,1-1.317-2.193c-.114-.27-.18-.445.027-.67a4.775,4.775,0,0,1,.921-.647,7.849,7.849,0,0,0,3.405-4.81c.513-2.086.29-4.89-1.652-6.073-2.4-1.462-5.36-.506-7.772.429a12.519,12.519,0,0,0-5.01-8.75c-3.2-2.151-7.1-2.848-10.424-4.765a6.529,6.529,0,0,1-2.318-1.922,3.281,3.281,0,0,1-.575-1.276c-.077-.588.351-1.017.69-1.426C131.134,29.39,137.428,25.361,140.506,24.832Z" transform="translate(-128.636 -6.018)"/></g><g transform="translate(19.87 176.877)"><path class="f" d="M50.782,256.2c1.7,18.529,0,58.357-.911,69.846-.573,7.221-10.414,5.331-11.332-.448S20.026,228.284,20,209c-.01-7.344,16.338-13.216,22.879-4.345,5.377-3.778,13.01-4.79,17.716,2.838,3.563,5.775,12.027,22.17,21.054,41.314,7.908,16.772,20.264,57.485,20.264,57.485l-10.49,4.793s-25.914-41.664-42.23-70.876C49.734,245.24,50.273,250.621,50.782,256.2Z" transform="translate(-20 -200.192)"/></g><g transform="translate(34.911 177.285)"><path class="g" d="M102.634,291.263l-36.006-85.3C58,192.091,33.818,208.79,36.759,216.838c6.678,18.27,40.643,77.421,42.633,82.865Z" transform="translate(-36.512 -200.64)"/></g><g transform="translate(18.959 165.089)"><path class="h" d="M19,214.511c0,24.177,10.6,81.007,10.6,86.331l25.672-.865S48.545,225.86,49.6,225.358c1.581-.753,64.809,8.751,83.772,9.469,27.345,1.035,38.657-15.741,39.575-47.576H119.977s-67.938,8.109-89.3,11.28C21.527,199.889,19,207.851,19,214.511Z" transform="translate(-19 -187.251)"/></g><g transform="translate(55.821 279.013)"><path class="i" d="M104.2,313.286a1.822,1.822,0,0,1,2.667.291,20.908,20.908,0,0,1,2.947,5.588,58.369,58.369,0,0,1,.943,7.176L60.9,338.771s-3.545-5.94.514-7.5,6.725-2.66,6.725-2.66l20.6-16.106a.911.911,0,0,1,1.294.177l2.39,3.242s4.327.842,6.75.238A15.012,15.012,0,0,0,104.2,313.286Z" transform="translate(-59.467 -312.316)"/></g><g transform="translate(0 283.582)"><path class="i" d="M46.826,321.9a1.823,1.823,0,0,1,2.517.929,20.92,20.92,0,0,1,1.508,6.134,58.526,58.526,0,0,1-.821,7.191H-1.348s-2-6.621,2.312-7.149,7.169-.953,7.169-.953l23.88-10.646a.911.911,0,0,1,1.213.485l1.535,3.724s3.994,1.864,6.491,1.864A15,15,0,0,0,46.826,321.9Z" transform="translate(1.813 -317.332)"/></g><g transform="translate(69.059 170.326)"><path class="c" d="M180.578,193H83.109A9.114,9.114,0,0,0,74,202.109v44.635H186.043a3.645,3.645,0,0,0,3.644-3.644V202.109A9.114,9.114,0,0,0,180.578,193Z" transform="translate(-74 -193)"/></g><g transform="translate(47.197 170.326)"><path class="c" d="M80.971,193h-2a9.11,9.11,0,0,0-8.989,7.634L50,322.351h9.734" transform="translate(-50 -193)"/></g><g transform="translate(35.355 285.102)"><ellipse class="j" cx="16.397" cy="16.397" rx="16.397" ry="16.397"/></g><g transform="translate(102.763 175.029)"><path class="b" d="M111,267.393a69.23,69.23,0,1,1,69.23,69.23A69.262,69.262,0,0,1,111,267.393Zm12.753,0A56.477,56.477,0,1,1,180.23,323.87a56.5,56.5,0,0,1-56.477-56.477Z" transform="translate(-111 -198.163)"/><g transform="translate(65.586 9.109)"><rect class="j" width="7.287" height="120.241"/></g><g transform="translate(24.897 24.897)"><path class="b" d="M141.441,226.028l-2.576,2.576a1.821,1.821,0,0,0,0,2.576l82.447,82.447a1.823,1.823,0,0,0,2.577,0l2.576-2.576a1.823,1.823,0,0,0,0-2.577l-82.447-82.446A1.823,1.823,0,0,0,141.441,226.028Z" transform="translate(-138.331 -225.494)"/></g><g transform="translate(9.109 65.586)"><path class="b" d="M121,271.985v3.644a1.823,1.823,0,0,0,1.822,1.822h116.6a1.822,1.822,0,0,0,1.822-1.822v-3.644a1.822,1.822,0,0,0-1.822-1.822h-116.6A1.823,1.823,0,0,0,121,271.985Z" transform="translate(-121 -270.163)"/></g><g transform="translate(24.897 24.896)"><path class="b" d="M138.865,311.051l2.576,2.576a1.823,1.823,0,0,0,2.577,0l82.447-82.447a1.821,1.821,0,0,0,0-2.576l-2.576-2.577a1.824,1.824,0,0,0-2.577,0l-82.447,82.447A1.823,1.823,0,0,0,138.865,311.051Z" transform="translate(-138.331 -225.494)"/></g></g><g transform="translate(21.996 69.214)"><g transform="translate(0 42.813)"><path class="f" d="M74.863,156.89l-33.007-14.5-16.75-13.137c-1.61-.513-4.361-.668-1.426,3.619s5.829,8.928,4.657,10.43c-.514.658-1.454.71-2.461.765-1.293.072-2.7.149-3.451,1.522q-1.343,2.443,17.179,5.845l24.72,18.953,10.539-13.5Zm126.825,5.25-18.286,5.27,34.8,52.87c2.991,3.851,1.8,11.017,1,15.876-.125.751-.24,1.447-.33,2.069,3.163.458,4.079-1.442,5.046-3.444,1.092-2.263,2.247-4.656,6.773-3.932,1.748.28,3.452.714,5.115,1.139,5.746,1.466,11.024,2.812,16.108-2.74.806-.88,1.232-3.453-1.858-4.493-7.7-2.589-19.186-7.685-21.163-9.873l-27.2-52.741Z" transform="translate(-22.334 -129)"/></g><g transform="translate(23.175 3.506)"><path class="k" d="M141.172,87.2,133.3,85.849c-17.156,16.643-24.158,56.626-35.591,61.918-10.81,5-26.134.162-44.349-6.376l-5.578,12.464c16.551,17.905,51.809,33.032,66.1,24.4C136.726,164.444,142,115.131,141.172,87.2Z" transform="translate(-47.776 -85.849)"/></g><g transform="translate(78.718)"><path class="l" d="M180.94,185.845h-69.7c-3.185,0-2.585-4.6-2.124-6.919,5.312-26.781,26.054-55.65,26.054-93.773L155.278,82C171.907,108.743,177.657,141.67,180.94,185.845Z" transform="translate(-108.75 -82)"/></g><g transform="translate(100.523)"><path class="m" d="M240.461,211.222s-12.682-51.767-28.232-73.883C194.915,106.58,158.707,82,158.707,82h-7.96s-27.072,92.281-14.926,122.974h62.737c-.993-14.973-4.175-30.806-8.534-46.245,0,0,10.582,20.549,14.833,27.115s21,28.239,21,28.239Z" transform="translate(-132.687 -82)"/></g></g></g></g></svg>