<svg xmlns="http://www.w3.org/2000/svg" width="995.229" height="492.188" viewBox="0 0 995.229 492.188"><defs><style>.a{fill:#cafcec;}.b{fill:#facfa7;}.b,.c,.d,.e,.f{fill-rule:evenodd;}.c{fill:#0c2245;}.d{fill:#124057;}.e{fill:#7d2735;}.f{fill:#a93548;}.g{fill:#474749;}.h{fill:none;}.i{fill:#5b9552;}</style></defs><g transform="translate(160.229 -1442.813)"><path class="a" d="M-4457.771,1677s-50.687-217.984-835.422-204.031c-349.205,6.209-17.24,54.88-17.4,55.109-2.167-.536,17.4,148.922,17.4,148.922Z" transform="translate(5292.771 258)"/><g transform="translate(116.373 1442.813)"><g transform="translate(85.558 0)"><g transform="translate(0 1.823)"><path class="b" d="M177.853,39.822c4,11.4-.844,37.96-8.428,38.7-3.025.295-8.931-2.509-14.64-7.295l-.42,28.61L131,96.183l13.9-36.228c-3.662-5.967-5.689-12.894-4.05-20.043C145.575,19.309,173.857,28.426,177.853,39.822Z" transform="translate(-131.004 -27.638)"/></g><g transform="translate(7.144)"><path class="c" d="M159.639,44.906c2.491-2.693,4.79-4.685,7.522-5.623,10.244,1.768,11.735.115,12.705-6.091-1.473-1.446-7.014-4.36-13.481-5.947a17.151,17.151,0,0,0-11.248-.92c-4.92.6-9.359,2.854-11.963,7.968-8.095,10-5.047,22.211.861,27.142,2.057-1.784,3.883-3.541,5.533-5.236a5.911,5.911,0,0,1,5.647-9.38,6.1,6.1,0,0,1,.694.151c-.485,4.056-2.022,17.793-1.193,22.777.975,5.877,11.555,8.937,15.319,9.525,3.252.509,3.623-2.587,3.889-4.807.037-.319.074-.621.116-.891.088-.564-.645-.677-1.474-.8-1.076-.166-2.313-.357-2.12-1.591.342-2.184,5.457-2.776,6.685-4.028,1.487-1.517,2.258-3.757.417-4.045-2.525-.394-7.979,2.5-13.735,1.6C158.094,63.807,159.62,45.139,159.639,44.906Z" transform="translate(-138.255 -25.788)"/></g></g><g transform="translate(27.426 158.831)"><g transform="translate(55.173)"><path class="c" d="M128,187l35.719,125.347,26.061,92.388h19.008L181.095,187Z" transform="translate(-128 -187)"/></g><g transform="translate(1.76)"><path class="d" d="M117.646,187c-.826,64.605-3.643,99.843-4.51,105.713s-13.984,43.21-39.35,112.022H93.478q48.438-99.02,54.079-112.022c3.76-8.668,15.366-43.906,32.844-105.713Z" transform="translate(-73.786 -187)"/></g><g transform="translate(0 214.779)"><path class="c" d="M72,425.69,72.985,405h20.69c14.715,10.345,38.424,16.749,38.424,16.749v3.941H94.66l-12.808-1.97v1.97Z" transform="translate(-72 -405)"/></g><g transform="translate(114.286 214.779)"><path class="c" d="M188,425.69l.985-20.69h20.69c14.715,10.345,38.424,16.749,38.424,16.749v3.941H210.66l-12.808-1.97v1.97Z" transform="translate(-188 -405)"/></g></g><g transform="translate(0 50.721)"><g transform="translate(0 71.114)"><path class="b" d="M45.978,247.224c7.248-4.97,17.695-13.67,19.106-16.534,2.887-5.857,17.312-81.24,17.312-81.24l21.573.081S79.324,229.384,77.8,233.151c-1.974,4.893,1.379,12,3.653,16.822.352.746.678,1.436.955,2.056-3.156,1.412-4.672-.295-6.269-2.094-1.8-2.033-3.715-4.182-8.211-2.091-1.737.808-3.38,1.763-4.986,2.7-5.547,3.224-10.642,6.186-17.574,1.908-1.1-.678-2.3-3.231.607-5.226Zm172.9-73.133,27.91,27.227a84.58,84.58,0,0,1,19.961,11.475c1.167,1.407,2.436,4.1-3.051,2.9s-11.314-2.229-12.346-.444c-.452.782-.123,1.746.23,2.778.452,1.325.943,2.765-.128,4.077q-1.906,2.336-12.822-14.858L209.6,190.13l9.27-16.039Z" transform="translate(-44.163 -149.45)"/></g><g transform="translate(103.973 8.453)"><path class="e" d="M149.7,87.31l8.519-1.461c13.421,47.441,82.376,79.778,86.608,97.512,1.553,6.5-3.128,9.792-.71,11.772l-11.074,8.106c-1.875-2.188-5.877,1.814-14.234-.985S149.7,143.484,149.7,87.31Z" transform="translate(-149.695 -85.849)"/></g><g transform="translate(17.771)"><path class="f" d="M159.787,79.134l-26.536-1.855a3.943,3.943,0,0,0-4.207,3.656l-.4,5.771C112.607,99.044,72.87,135.914,62.514,204.548a20.634,20.634,0,0,0,2.451,14.157c1.075,2.11,1.966,3.858,1.566,6.066l14.492,4c0-4,11-5.651,13.837-16.036,1.594-5.832,3.927-13.116,6.715-21.22.263,10.732,2.3,20.6,6.732,28.777,11.061,20.4,74.985-1.971,81.662-22.778,3.564-11.1-1.493-20.424-8.18-32.751-8.49-15.649-19.607-36.142-19.057-71.273l.709-10.15A3.943,3.943,0,0,0,159.787,79.134Z" transform="translate(-62.201 -77.269)"/></g></g></g><g transform="translate(-1873.422 1789.449)"><rect class="g" width="151.69" height="10.787" transform="translate(2395.956 -104.096) rotate(90)"/><g transform="translate(2328.608 -222.987)"><path class="h" d="M10.993,0H54.153A10.993,10.993,0,0,1,65.146,10.993v0A10.993,10.993,0,0,1,54.153,21.987H10.993A10.993,10.993,0,0,1,0,10.994v0A10.993,10.993,0,0,1,10.993,0Z" transform="translate(30.334 13.271)"/><path class="i" d="M2371.141,94.368a36.234,36.234,0,0,0,36.234,36.235h31.358a36.235,36.235,0,0,0,36.235-36.235V10.192H2371.141Z" transform="translate(-2359.808 51.939)"/><path class="i" d="M2449.407-38.708H2333.623a5.015,5.015,0,0,0-5.015,5.015v5.164h125.814v-5.164A5.015,5.015,0,0,0,2449.407-38.708Z" transform="translate(-2328.608 87.809)"/><path class="i" d="M2464.1-186.752a36.235,36.235,0,0,0-36.235-36.235h-42.307a36.235,36.235,0,0,0-36.235,36.235v12.867H2464.1Zm-24.815-7.241a6.283,6.283,0,0,1-6.264,6.264H2380.4a6.283,6.283,0,0,1-6.264-6.264v-9.458a6.283,6.283,0,0,1,6.264-6.264h52.617a6.283,6.283,0,0,1,6.264,6.264Z" transform="translate(-2343.802 223.987)"/></g></g></g></svg>