<svg xmlns="http://www.w3.org/2000/svg" width="508.36" height="600.327" viewBox="0 0 508.36 600.327"><defs><style>.a{fill:#474749;}</style></defs><g transform="translate(-4614 -2166.996)"><path class="a" d="M5003.071,2270.126a8.473,8.473,0,0,0-3.542-1.624l-178.038-100.411a8.471,8.471,0,0,0-6.293-.824l-29.8,7.663a8.481,8.481,0,0,0-6.325,7.145,7.028,7.028,0,0,0-.061.938c-.008.118-.012.244-.012.377v362.681a8.531,8.531,0,0,0,4.319,7.409l56.99,32.28V2653l-18.827-10.62a8.493,8.493,0,0,0-6.284-.819l-29.8,7.663a8.515,8.515,0,0,0-2.065,15.665l88.585,49.961,22.522,13.009a8.5,8.5,0,0,0,2.051.849l66.526,37.52a8.545,8.545,0,0,0,4.17,1.09,8.4,8.4,0,0,0,2.121-.268l29.8-7.663a8.515,8.515,0,0,0,2.064-15.665l-63.79-35.977v-67.009l26.1,14.78a8.538,8.538,0,0,0,4.191,1.1l.187,0a8.078,8.078,0,0,0,2.3-.266l29.8-7.663a8.511,8.511,0,0,0,6.4-8.248v-363.6A8.571,8.571,0,0,0,5003.071,2270.126Zm-32.478,17.407,26.4-6.789v360.084l-26.4,6.788Zm-2.316-3.141-175.387-98.916,25.041-6.438,175.387,98.916Zm-178.208-96.376,176.75,100.109v358.766l-176.75-100.109Zm57.9,502.825-55.083-31.066,25.041-6.438,30.042,16.943Zm3.405,1.561V2585.421l46.467,26.319v107.5Zm50.24,27.595V2613.877l26.4,14.951v84.38Zm27.982-3.679,63.717,35.936-25.041,6.438-63.717-35.934Z" transform="translate(-24.498)"/><path class="a" d="M4804.86,2545.646l152.423,86.712a1.7,1.7,0,0,0,2.545-1.48V2305.664a1.7,1.7,0,0,0-.861-1.48l-152.423-86.712a1.7,1.7,0,0,0-2.544,1.48v325.214A1.7,1.7,0,0,0,4804.86,2545.646Zm2.545-323.766,149.018,84.774v321.3l-149.018-84.774Z" transform="translate(-28.21 -7.461)"/><path class="a" d="M4627.625,2406.379a117.586,117.586,0,0,1,34.666-83.694,6.813,6.813,0,1,0-9.634-9.635,131.989,131.989,0,0,0,0,186.658,6.812,6.812,0,1,0,9.634-9.634A117.585,117.585,0,0,1,4627.625,2406.379Z" transform="translate(0 -21.389)"/><path class="a" d="M4664.625,2410.263a86.286,86.286,0,0,1,25.438-61.415,6.811,6.811,0,1,0-9.631-9.634,100.472,100.472,0,0,0,0,142.1,6.811,6.811,0,1,0,9.631-9.634A86.288,86.288,0,0,1,4664.625,2410.263Z" transform="translate(-5.494 -25.274)"/><path class="a" d="M4701.626,2414.148a54.986,54.986,0,0,1,16.211-39.138,6.812,6.812,0,0,0-9.636-9.632,68.973,68.973,0,0,0,0,97.542,6.812,6.812,0,0,0,9.636-9.632A54.986,54.986,0,0,1,4701.626,2414.148Z" transform="translate(-10.987 -29.159)"/><path class="a" d="M4745.608,2391.539a6.817,6.817,0,0,0-9.636,0,37.47,37.47,0,0,0,0,52.986,6.813,6.813,0,0,0,9.636-9.634,23.84,23.84,0,0,1,0-33.718A6.815,6.815,0,0,0,4745.608,2391.539Z" transform="translate(-16.481 -33.043)"/><path class="a" d="M5163.576,2463.05a6.813,6.813,0,0,0-9.636,9.635,118.359,118.359,0,0,1,0,167.388,6.813,6.813,0,0,0,9.636,9.634,131.993,131.993,0,0,0,0-186.657Z" transform="translate(-79.871 -43.661)"/><path class="a" d="M5137.409,2489.214a6.811,6.811,0,1,0-9.632,9.634,86.856,86.856,0,0,1,0,122.831,6.811,6.811,0,1,0,9.632,9.634,100.472,100.472,0,0,0,0-142.1Z" transform="translate(-75.987 -47.546)"/><path class="a" d="M5111.248,2515.377a6.812,6.812,0,0,0-9.634,9.632,55.35,55.35,0,0,1,0,78.277,6.812,6.812,0,1,0,9.634,9.632,68.971,68.971,0,0,0,0-97.542Z" transform="translate(-72.103 -51.43)"/><path class="a" d="M5085.084,2541.54a6.812,6.812,0,0,0-9.634,9.634,23.84,23.84,0,0,1,0,33.718,6.812,6.812,0,1,0,9.634,9.634,37.465,37.465,0,0,0,0-52.986Z" transform="translate(-68.218 -55.315)"/></g></svg>