<svg xmlns="http://www.w3.org/2000/svg" width="599.98" height="418.583" viewBox="0 0 599.98 418.583"><defs><style>.a{fill:#b28b67;}.a,.b,.c,.d,.e,.f,.h,.i,.j{fill-rule:evenodd;}.b,.g{fill:#0c2245;}.c{fill:#297499;}.d{fill:#3aa2d6;}.e{fill:#e4e4e4;}.f{fill:#124057;}.h{fill:#8ecf84;}.i{fill:#e8c010;}.j{fill:#a3ed98;}.k{fill:#b1bac0;opacity:0.731;}</style></defs><g transform="translate(-1320.203 -2155.054)"><g transform="translate(1601.071 2187.752) rotate(-11)"><g transform="translate(114.523 22.159)"><path class="a" d="M130.175,36.548c-6.469,9.1-8.974,33.94-2.427,36.539,2.612,1.037,8.577.058,14.874-2.73l-6.955,25.524,21.69,2.739-3.072-35.745c4.781-4.362,8.357-10,8.733-16.769C164.105,26.594,136.646,27.448,130.175,36.548Z" transform="translate(-123.909 -30.344)"/></g><g transform="translate(118.829 0)"><path class="b" d="M140.506,24.832a28.556,28.556,0,0,1,9.2.143,15.731,15.731,0,0,1-.108-8.03c.652-2.56,2.093-4.627,3.461-6.811a9.846,9.846,0,0,1,2.266-2.712A6.527,6.527,0,0,1,158.6,6.164a8.272,8.272,0,0,1,3.529.444c.5.172.93.465,1.417.66s.789-.093,1.2-.37a6.5,6.5,0,0,1,3.528-.879,8.733,8.733,0,0,1,3.769.942A7.546,7.546,0,0,1,174.975,9.4a5.411,5.411,0,0,1,.771,1.585c.064.234.063.367.274.476.2.1.435.134.639.232a8.332,8.332,0,0,1,4.208,4.908,13.775,13.775,0,0,1,.039,5.705c-.368,2.329-3.25,8.165-5.507,10.141a13.371,13.371,0,0,1-7.345,3.006,19.765,19.765,0,0,1,2.739,7.133,32.951,32.951,0,0,1,.615,8.321,26.716,26.716,0,0,1-1.417,7.948,8.739,8.739,0,0,1-4.589,5.155,18.611,18.611,0,0,1-3.162,1.025,19.893,19.893,0,0,1-3.2.6c-2.05.16-4.343-.2-5.681-1.986a11.055,11.055,0,0,1-1.317-2.193c-.114-.27-.18-.445.027-.67a4.775,4.775,0,0,1,.921-.647,7.849,7.849,0,0,0,3.405-4.81c.513-2.086.29-4.89-1.652-6.073-2.4-1.462-5.36-.506-7.772.429a12.519,12.519,0,0,0-5.01-8.75c-3.2-2.151-7.1-2.848-10.424-4.765a6.529,6.529,0,0,1-2.318-1.922,3.281,3.281,0,0,1-.575-1.276c-.077-.588.351-1.017.69-1.426C131.134,29.39,137.428,25.361,140.506,24.832Z" transform="translate(-128.636 -6.018)"/></g><g transform="translate(19.87 176.877)"><path class="a" d="M50.782,256.2c1.7,18.529,0,58.357-.911,69.846-.573,7.221-10.414,5.331-11.332-.448S20.026,228.284,20,209c-.01-7.344,16.338-13.216,22.879-4.345,5.377-3.778,13.01-4.79,17.716,2.838,3.563,5.775,12.027,22.17,21.054,41.314,7.908,16.772,20.264,57.485,20.264,57.485l-10.49,4.793s-25.914-41.664-42.23-70.876C49.734,245.24,50.273,250.621,50.782,256.2Z" transform="translate(-20 -200.192)"/></g><g transform="translate(34.911 177.285)"><path class="c" d="M102.634,291.263l-36.006-85.3C58,192.091,33.818,208.79,36.759,216.838c6.678,18.27,40.643,77.421,42.633,82.865Z" transform="translate(-36.512 -200.64)"/></g><g transform="translate(18.959 165.089)"><path class="d" d="M19,214.511c0,24.177,10.6,81.007,10.6,86.331l25.672-.865S48.545,225.86,49.6,225.358c1.581-.753,64.809,8.751,83.772,9.469,27.345,1.035,38.657-15.741,39.575-47.576H119.977s-67.938,8.109-89.3,11.28C21.527,199.889,19,207.851,19,214.511Z" transform="translate(-19 -187.251)"/></g><g transform="translate(55.821 279.013)"><path class="e" d="M104.2,313.286a1.822,1.822,0,0,1,2.667.291,20.908,20.908,0,0,1,2.947,5.588,58.369,58.369,0,0,1,.943,7.176L60.9,338.771s-3.545-5.94.514-7.5,6.725-2.66,6.725-2.66l20.6-16.106a.911.911,0,0,1,1.294.177l2.39,3.242s4.327.842,6.75.238A15.012,15.012,0,0,0,104.2,313.286Z" transform="translate(-59.467 -312.316)"/></g><g transform="translate(0 283.582)"><path class="e" d="M46.826,321.9a1.823,1.823,0,0,1,2.517.929,20.92,20.92,0,0,1,1.508,6.134,58.526,58.526,0,0,1-.821,7.191H-1.348s-2-6.621,2.312-7.149,7.169-.953,7.169-.953l23.88-10.646a.911.911,0,0,1,1.213.485l1.535,3.724s3.994,1.864,6.491,1.864A15,15,0,0,0,46.826,321.9Z" transform="translate(1.813 -317.332)"/></g><g transform="translate(69.059 170.326)"><path class="f" d="M180.578,193H83.109A9.114,9.114,0,0,0,74,202.109v44.635H186.043a3.645,3.645,0,0,0,3.644-3.644V202.109A9.114,9.114,0,0,0,180.578,193Z" transform="translate(-74 -193)"/></g><g transform="translate(47.197 170.326)"><path class="f" d="M80.971,193h-2a9.11,9.11,0,0,0-8.989,7.634L50,322.351h9.734" transform="translate(-50 -193)"/></g><g transform="translate(35.355 285.102)"><ellipse class="g" cx="16.397" cy="16.397" rx="16.397" ry="16.397"/></g><g transform="translate(102.763 175.029)"><path class="b" d="M111,267.393a69.23,69.23,0,1,1,69.23,69.23A69.262,69.262,0,0,1,111,267.393Zm12.753,0A56.477,56.477,0,1,1,180.23,323.87a56.5,56.5,0,0,1-56.477-56.477Z" transform="translate(-111 -198.163)"/><g transform="translate(65.586 9.109)"><rect class="g" width="7.287" height="120.241"/></g><g transform="translate(24.897 24.897)"><path class="b" d="M141.441,226.028l-2.576,2.576a1.821,1.821,0,0,0,0,2.576l82.447,82.447a1.823,1.823,0,0,0,2.577,0l2.576-2.576a1.823,1.823,0,0,0,0-2.577l-82.447-82.446A1.823,1.823,0,0,0,141.441,226.028Z" transform="translate(-138.331 -225.494)"/></g><g transform="translate(9.109 65.586)"><path class="b" d="M121,271.985v3.644a1.823,1.823,0,0,0,1.822,1.822h116.6a1.822,1.822,0,0,0,1.822-1.822v-3.644a1.822,1.822,0,0,0-1.822-1.822h-116.6A1.823,1.823,0,0,0,121,271.985Z" transform="translate(-121 -270.163)"/></g><g transform="translate(24.897 24.896)"><path class="b" d="M138.865,311.051l2.576,2.576a1.823,1.823,0,0,0,2.577,0l82.447-82.447a1.821,1.821,0,0,0,0-2.576l-2.576-2.577a1.824,1.824,0,0,0-2.577,0l-82.447,82.447A1.823,1.823,0,0,0,138.865,311.051Z" transform="translate(-138.331 -225.494)"/></g></g><g transform="translate(21.996 69.214)"><g transform="translate(0 42.813)"><path class="a" d="M74.863,156.89l-33.007-14.5-16.75-13.137c-1.61-.513-4.361-.668-1.426,3.619s5.829,8.928,4.657,10.43c-.514.658-1.454.71-2.461.765-1.293.072-2.7.149-3.451,1.522q-1.343,2.443,17.179,5.845l24.72,18.953,10.539-13.5Zm126.825,5.25-18.286,5.27,34.8,52.87c2.991,3.851,1.8,11.017,1,15.876-.125.751-.24,1.447-.33,2.069,3.163.458,4.079-1.442,5.046-3.444,1.092-2.263,2.247-4.656,6.773-3.932,1.748.28,3.452.714,5.115,1.139,5.746,1.466,11.024,2.812,16.108-2.74.806-.88,1.232-3.453-1.858-4.493-7.7-2.589-19.186-7.685-21.163-9.873l-27.2-52.741Z" transform="translate(-22.334 -129)"/></g><g transform="translate(23.175 3.506)"><path class="h" d="M141.172,87.2,133.3,85.849c-17.156,16.643-24.158,56.626-35.591,61.918-10.81,5-26.134.162-44.349-6.376l-5.578,12.464c16.551,17.905,51.809,33.032,66.1,24.4C136.726,164.444,142,115.131,141.172,87.2Z" transform="translate(-47.776 -85.849)"/></g><g transform="translate(78.718)"><path class="i" d="M180.94,185.845h-69.7c-3.185,0-2.585-4.6-2.124-6.919,5.312-26.781,26.054-55.65,26.054-93.773L155.278,82C171.907,108.743,177.657,141.67,180.94,185.845Z" transform="translate(-108.75 -82)"/></g><g transform="translate(100.523)"><path class="j" d="M240.461,211.222s-12.682-51.767-28.232-73.883C194.915,106.58,158.707,82,158.707,82h-7.96s-27.072,92.281-14.926,122.974h62.737c-.993-14.973-4.175-30.806-8.534-46.245,0,0,10.582,20.549,14.833,27.115s21,28.239,21,28.239Z" transform="translate(-132.687 -82)"/></g></g></g><path class="k" d="M3475.2,1650.637l599.98-131.52v131.52Z" transform="translate(-2155 923)"/></g></svg>