<svg xmlns="http://www.w3.org/2000/svg" width="995.229" height="567" viewBox="0 0 995.229 567"><defs><style>.a{fill:#fff;}.b{fill:#b28b67;}.b,.c,.d,.e,.f,.g,.h,.i,.j,.k{fill-rule:evenodd;}.c{fill:#191847;}.d{fill:#c5cfd6;}.e{fill:#1f28cf;}.f{fill:#2b44ff;}.g{fill:#e4e4e4;}.h{fill:#dde3e9;}.i{fill:#2f3676;}.j{fill:rgba(0,0,0,0.1);}.k{fill:rgba(255,255,255,0.2);}.l,.n{fill:#cfaeb3;}.m{fill:#f0f0f0;}.n{font-size:23px;font-family:Futura-Bold, Futura;font-weight:700;}</style></defs><g transform="translate(160.229 -1187)"><path class="a" d="M-4457.771,1677s-50.687-217.984-835.422-204.031c-349.205,6.209-17.24,54.88-17.4,55.109-2.167-.536,17.4,148.922,17.4,148.922Z" transform="translate(5292.771 77)"/><g transform="translate(150.286 1356.33)"><g transform="translate(51.077 0)"><g transform="translate(21.643 15.261)"><path class="b" d="M154.021,39.535c5.017,9.351,4.421,33.069-2.063,34.74-2.585.667-8.094-.966-13.7-4.345l3.519,24.894H121l7.152-33.338c-3.989-4.683-6.688-10.421-6.237-16.851C123.214,26.109,149,30.185,154.021,39.535Z" transform="translate(-121 -31.628)"/></g><path class="c" d="M178,23.661a4.494,4.494,0,0,0-3.148-3.191,4.133,4.133,0,0,0-1.157-.115c-.139.005-.179.046-.244-.052a1.273,1.273,0,0,1-.069-.334,6.006,6.006,0,0,0-1.771-3.063,7.726,7.726,0,0,0-4.643-2.2,6.765,6.765,0,0,0-2.792.381,10.987,10.987,0,0,0-1.355.579c-.132.067-.561.391-.693.37s-.441-.387-.561-.479A8.209,8.209,0,0,0,156.443,14c-2.071.016-4.064.119-5.792,1.382a11.386,11.386,0,0,0-1.046.867c-.175.163-.344.331-.5.506q-.147.158-.283.325c-.155.189-.13.25-.347.119a4.3,4.3,0,0,0-2.764-.622,6.2,6.2,0,0,0-1.669.471c-.181.078-.6.387-.793.39s-.605-.283-.8-.356a6.578,6.578,0,0,0-3.336-.309,8.614,8.614,0,0,0-3.27,1.286,4.413,4.413,0,0,0-1.212,1.1c-.143.2-.271.405-.433.588-.094.106-.281.216-.332.351a7.167,7.167,0,0,0-1.386-.612,3.418,3.418,0,0,0-1.95.074,7.75,7.75,0,0,0-3.075,2.185,8.726,8.726,0,0,0-1.138,1.529q-.232.393-.426.809a3.12,3.12,0,0,1-.187.421c-.107.156-.178.158-.371.226a6.009,6.009,0,0,0-2.556,1.711,5.887,5.887,0,0,0-1.322,2.8,1.439,1.439,0,0,1-.054.345c-.048.046-.246.026-.32.035a6.785,6.785,0,0,0-.768.135,6.281,6.281,0,0,0-1.35.486,7.053,7.053,0,0,0-3.458,4.129,8.374,8.374,0,0,0,.131,5.735,5.623,5.623,0,0,0,.426.84c.1.164.134.164.068.336-.074.191-.209.377-.3.564a8.116,8.116,0,0,0-.611,1.918,8.991,8.991,0,0,0-.106,3.315,4.793,4.793,0,0,0,.512,1.454,4.205,4.205,0,0,0,.449.651,3.985,3.985,0,0,0,.28.3,1.864,1.864,0,0,1,.177.164c.116.15.14.027.081.246-.084.306-.274.609-.39.907s-.229.619-.327.933a13.785,13.785,0,0,0-.477,1.946,6.111,6.111,0,0,0,.431,3.779,3.784,3.784,0,0,0,1.07,1.273,3.979,3.979,0,0,0,.7.427c.127.061.29.087.348.21s-.03.4-.051.544a9.049,9.049,0,0,0,.106,3.9,5.388,5.388,0,0,0,2.137,2.87,6.653,6.653,0,0,0,6.649.189,6.983,6.983,0,0,0,1.484-1.02c1.139,1.532,3.482,1.484,5.146,1.048a7.393,7.393,0,0,0,4.7-3.88,3.128,3.128,0,0,0,4.97-.653,4.145,4.145,0,0,0,.419-1.363c.035-.248.013-.5.038-.745a3.829,3.829,0,0,1,.364-.923,5.115,5.115,0,0,0,.387-1.84,9.4,9.4,0,0,0-.071-.988,3.359,3.359,0,0,1,.1-.868,3.974,3.974,0,0,1-1.681-.209,3.321,3.321,0,0,1-1.3-.914,7.58,7.58,0,0,1-1.634-3.055c-.739-2.42-.436-5.323,2-6.651,1.134-.619,4.53-.616,5.881-.311,1.421.321,3.03,3.454,3.11,3.749.048.182.024.408.191.529.368.267.975-.2,1.247-.425a4.914,4.914,0,0,0,1.092-1.453,17.971,17.971,0,0,0,1.5-3.673c.277-.978.454-1.988.816-2.942a4.5,4.5,0,0,1,1.81-2.336,15.868,15.868,0,0,1,3.113-1.26,7.727,7.727,0,0,0,2.881-1.583,4.026,4.026,0,0,0,.494-.551c.113-.158.225-.461.4-.561.268-.156.659.249.891.4a10.292,10.292,0,0,1,2.865,2.845,17.678,17.678,0,0,1,1.9,3.387,9.8,9.8,0,0,0,1.28,2.825,5.4,5.4,0,0,0,3.22.244,4.066,4.066,0,0,0,1.757-1.52,2.365,2.365,0,0,0,.2-1.549c-.062-.312-.188-.6-.257-.91a2.833,2.833,0,0,0-.236-.738,1.816,1.816,0,0,0-1.133-.9,5.332,5.332,0,0,0,1.224-1.66,7.132,7.132,0,0,0,.634-2.163,2.629,2.629,0,0,0-.351-1.685,4.434,4.434,0,0,0-1.439-1.194,9.335,9.335,0,0,0,2-2.181A6.806,6.806,0,0,0,178,23.661Z" transform="translate(-115 -14)"/></g><g transform="translate(0 149.768)"><g transform="translate(0 36.36)"><path class="d" d="M213.408,229H113.851A13.858,13.858,0,0,0,100,242.851V322.5a13.858,13.858,0,0,0,13.851,13.851h99.557A13.858,13.858,0,0,0,227.259,322.5V242.851A13.858,13.858,0,0,0,213.408,229Zm-13.851,24.24H127.7a3.464,3.464,0,0,0-3.463,3.463v51.943a3.464,3.464,0,0,0,3.463,3.463h71.854a3.464,3.464,0,0,0,3.463-3.463V256.7a3.464,3.464,0,0,0-3.463-3.463Z" transform="translate(-100 -229)"/></g><g transform="translate(57.257 27.847)"><path class="b" d="M125.89,274.93c3.22,11.279,11.241,32.656,22.334,57.206l10.541-3.076c-9.222-56.491-16.9-93.891-21.292-105.275-2.9-7.521-24.878-6.64-22.35,8.493,1.06,6.346,5.255,23.34,10.768,42.651ZM82.567,234.918c-17.189,3.562-52.828,16.151-63.006,20.174-6.4,2.528-2.272,11.1,3.184,10.352,3.893-.536,49.385-5.305,81.475-9.923,12.885-1.855,5.953-25.99-7.425-23.437-4.5.86-9.288,1.81-14.228,2.833Z" transform="translate(-16.315 -219.166)"/></g><g transform="translate(90.9)"><path class="e" d="M18.111,187h6.547s79.885,20.356,81.643,26.091c.012.041.023.081.033.121.028.036.055.072.081.108,10.554,14.515,16.875,85.38,18.95,90.686l-20.224,3.017C102.08,295.68,96.362,285.7,90.6,275.65c-8.8-15.365-17.694-30.885-17.3-51.66a11.28,11.28,0,0,1-.149-2.868L18.111,193.1Z" transform="translate(-18.111 -187)"/></g><g transform="translate(51.943)"><path class="f" d="M85,237.765c-5.037-1.008-9.675-1.908-13.644-2.6-25.637-4.5-33.113-18.22-28.692-48.161H89.9c7.716,2.216,47.815,19.033,68.621,27.976,13.77,5.92,9.429,27.26,1.631,32.813a.762.762,0,0,1-.433.676c-29.565,12.253-54.776,11.339-70.966,10.752-6.781-.246-11.979-.435-15.251.426l-5.128-16.175Z" transform="translate(-41.472 -187)"/></g><g transform="translate(52.33 61.167)"><path class="g" d="M169.185,259.422a1.731,1.731,0,0,0-1.841-1.763,19.868,19.868,0,0,0-5.868,1.267,55.641,55.641,0,0,0-5.8,3.7l21.4,43.885s6.49-1.048,5.143-4.953-2.172-6.521-2.172-6.521L179.2,270.2a.866.866,0,0,0-.919-.835l-3.82.24s-3.256-2.635-4.3-4.768A14.273,14.273,0,0,1,169.185,259.422Z" transform="translate(-155.675 -257.656)"/></g><g transform="translate(182.665 131.009)"><path class="g" d="M-17.988,342.678a1.732,1.732,0,0,0-2.392.883,19.882,19.882,0,0,0-1.433,5.83,55.62,55.62,0,0,0,.78,6.834H27.8s1.9-6.292-2.2-6.794-6.813-.906-6.813-.906L-3.91,338.407a.865.865,0,0,0-1.153.461l-1.459,3.539s-3.8,1.771-6.169,1.771A14.255,14.255,0,0,1-17.988,342.678Z" transform="translate(21.813 -338.332)"/></g></g><g transform="translate(2.738 58.869)"><g transform="translate(0 77.155)"><path class="b" d="M172.746,171.123l24.524,23.924a74.327,74.327,0,0,1,17.54,10.082c1.025,1.236,2.14,3.6-2.682,2.545s-9.942-1.958-10.848-.39a3.02,3.02,0,0,0,.2,2.44c.4,1.164.829,2.429-.113,3.583q-1.675,2.052-11.266-13.057l-25.5-15.036,8.145-14.093ZM35.93,244.334c6.369-4.368,15.548-12.012,16.789-14.528C55.255,224.659,63.9,174.5,63.9,174.5l18.091.071s-16.755,54.09-18.091,57.4c-1.735,4.3,1.212,10.545,3.21,14.781.309.655.6,1.262.839,1.807-2.773,1.241-4.105-.259-5.509-1.84-1.585-1.786-3.264-3.675-7.214-1.838-1.526.711-2.97,1.55-4.381,2.37-4.874,2.833-9.351,5.436-15.443,1.677-.965-.6-2.024-2.839.533-4.592Z" transform="translate(-34.335 -171.123)"/></g><g transform="translate(80.922 3.332)"><path class="c" d="M63.732,87.133l7.486-1.284q19.333,48.294,67.5,87.762l-24.268,29.483C82.344,165.629,62.55,126.975,63.732,87.133Z" transform="translate(-63.682 -85.849)"/></g><g transform="translate(48.339)"><path class="h" d="M111,180.691h66.66S154.494,124.366,154.494,85l-20.108-3C118.584,107.416,114.121,138.708,111,180.691Z" transform="translate(-111 -82)"/></g><g transform="translate(18.039)"><path class="i" d="M135.649,209.259C142.939,127.013,188.894,82,188.894,82l.016.014.009-.014h1.312c2.356.081,7.177.293,7.177.293l4.858,13.885c.771,25.394,9,102.352,9,102.352H167.637q.112,5.293.5,10.73Z" transform="translate(-135.649 -82)"/></g><g transform="translate(49.981 74.02)"><g transform="translate(0)"><path class="j" d="M172.054,210.353a220.729,220.729,0,0,1,3.289-42.851c1.189,15.494,3.675,34.136,8.867,42.851Z" transform="translate(-172 -167.502)"/></g></g><g transform="translate(59.689 80.017)"><g transform="translate(0)"><path class="k" d="M150,184.446l21.547-10.017v10.017Z" transform="translate(-150 -174.429)"/></g></g></g></g><rect class="l" width="14" height="395" transform="translate(513 1265)"/><circle class="l" cx="78" cy="78" r="78" transform="translate(442 1187)"/><rect class="m" width="133" height="42" transform="translate(453 1244)"/><text class="n" transform="translate(520 1274)"><tspan x="-60.651" y="0">BUS STOP</tspan></text></g></svg>