<svg xmlns="http://www.w3.org/2000/svg" width="754.985" height="364" viewBox="0 0 754.985 364"><defs><style>.a{fill:#fff;}.b{fill:#b28b67;}.b,.c,.d,.e,.f,.g,.h,.i,.j,.k,.l{fill-rule:evenodd;}.c{fill:#2c2c2c;}.d{fill:#8991dc;}.e{fill:rgba(0,0,0,0.2);}.f{fill:#c5cfd6;}.g{fill:rgba(0,0,0,0.1);}.h{fill:#536069;}.i{fill:#e4e4e4;}.j{fill:#92a9b8;}.k{fill:#93ba93;}.l{fill:#c1f5c3;}</style></defs><g transform="translate(-1166 -7078)"><path class="a" d="M-5453,1677s47.2-202.989,754.972-204.662c.195,46.724-1.815,136.891-.11,204.662Z" transform="translate(6619 5765)"/><g transform="translate(1505.813 7049.259)"><path class="b" d="M120.857,40.134c-5.8,10.8-5.107,38.2,2.383,40.129,2.986.77,9.349-1.116,15.825-5.019L135,104h24l-8.262-38.51c4.608-5.409,7.726-12.037,7.2-19.465C156.442,24.625,126.651,29.333,120.857,40.134Z"/><path class="c" d="M125.265,33.011c.55-.328,1.7-1.02,2.282-1.271.138-.06,1.1-.749,1.13-.74.731.247,2.847,1.157,3.029,1.944.028.06.056.115.083.164.3.546.575,1.1.837,1.67.576,1.241,1.074,2.539,1.549,3.826.925,2.508,1.728,5.073,2.467,7.645.753,2.617,1.391,5.266,2.106,7.894,1.028,3.782,2.345,7.472,3.366,11.253a22.2,22.2,0,0,1,.844,7.341c0,.03,0,.059-.006.09l0,.037q-.044.573-.126,1.149c-.049.328-.1.658-.149.987-.933-1.86-1.645-3.91-2.4-5.856q-.111-.285-.214-.575c-.243-.394-.492-.786-.743-1.176-1.585-2.461-3.176-4.913-4.7-7.419a133.723,133.723,0,0,0-8.681-13.246c-.957-1.222-1.936-2.425-2.881-3.657q-.807-1.052-1.568-2.14c-.362-.518-1.937-2.327-1.367-3.413A29.4,29.4,0,0,1,125.265,33.011Z"/><path class="d" d="M127.374,31.831c-.535.18-.275-.933.243-1.324,2.4-1.814,11.57-2.472,19.551-.815A38.721,38.721,0,0,1,163,37.115c3.85,3.2,6.5,8.334,7.861,13.293a38.631,38.631,0,0,1,.85,15.973c-.175,1.173-.551,2.291-.761,3.439a26.638,26.638,0,0,1-.778,3.795c-.258.77-.7,1.524-.916,2.3a5.271,5.271,0,0,0,.085,2.6,28.33,28.33,0,0,0,1.194,4.326c.79,2.1,1.748,4.068,2.349,6.248.8,2.9,4.143,12.34,1.7,14.913H138.068c1.171-3.195,4.687-6.956,5.4-10.376.419-2.015-7.381-6.415-7.338-6.575,1.049-7.227,1.1-10.678,2.378-11.93s2.989-1.637,3.077-2.724c.364-4.493-1.423-8.8-2.733-12.991-1.561-5-2.706-10.119-4.315-15.1C133.823,42.1,130.15,30.9,127.374,31.831Z"/><path class="e" d="M145.438,53.142c.377-7.6,0-10.576-1.754-16.142h1.081c1.71,2.209,3.141,8.965,1.534,16.142Zm8.349-9.85c-1.485,11.259-1.919,17.69-9.653,30.006l.822.251c7.961-10.723,9.223-19.475,9.6-30.2l-.768-.062ZM153.33,70.4c9.128-6.419,10.619-11.1,13.888-19.035l.687.331c-2.169,7.936-4.808,14.062-13.87,19.2l-.705-.494Zm8.3,5.481.7.856c-7.259,1.519-9.735,10.9-20.331,15.271l-1.011-.613c12.1-6.292,11.03-12.5,20.637-15.514Z"/><path class="f" d="M233.719,229H156.465L146.342,353h115Z"/><path class="g" d="M233.719,229h-23.76L195.738,353h65.6Z"/><path class="b" d="M87.677,253.566c8.681,18.412,22.246,63.106,22.246,63.106l-11.516,5.262s-29.221-46.982-47.079-79.1c.832,7.23,1.679,15.37,2.464,23.927,1.861,20.27,0,64.064-1,76.714-.629,7.951-11.432,6.285-12.44-.02S20.028,237.4,20,216.238c-.009-7.073,13.81-13.428,22.047-8.482,5.658-6.037,16.365-9.516,22.517.456C68.475,214.552,77.767,232.55,87.677,253.566Z"/><path class="h" d="M109.1,300.125,69.573,206.487c-9.47-15.232-36.019,3.1-32.79,11.935,7.331,20.057,44.617,84.992,46.8,90.968Z"/><path class="i" d="M108.4,311.228a2,2,0,0,1,2.9-.5s3.448,2.661,4.8,5a64.242,64.242,0,0,1,3.166,7.287l-48.845,28.2s-5.538-5.195-1.726-8.065,6.292-4.842,6.292-4.842l16.86-23.228a1,1,0,0,1,1.419-.205l3.5,2.7s4.821-.42,7.195-1.791A16.481,16.481,0,0,0,108.4,311.228Z"/><path class="i" d="M52.582,337.352a2,2,0,0,1,2.763,1.02S57,342.4,57,345.106A64.248,64.248,0,0,1,56.1,353H-.3s-2.2-7.268,2.538-7.848,7.87-1.046,7.87-1.046L36.32,332.419a1,1,0,0,1,1.332.532l1.685,4.088s4.385,2.046,7.126,2.046A16.467,16.467,0,0,0,52.582,337.352Z"/><path class="j" d="M17.23,223.433c0,26.567,12.616,88.537,12.624,94.387L57,317.841S51.04,234.9,52.773,234s71.051,6.921,91.841,6.921c29.978,0,42.38-18.9,43.386-53.925H128.614c-12.092,1.294-75.163,14.015-98.586,18.388C20,207.261,17.23,216.115,17.23,223.433Z"/><path class="b" d="M253.995,248.69c-7.357-5.045-17.96-13.875-19.393-16.782-2.93-5.945-17.572-82.458-17.572-82.458l-21.9.082s25.016,81.051,26.559,84.874c2,4.966-1.4,12.181-3.708,17.074-.357.757-.688,1.458-.969,2.087,3.2,1.433,4.742-.3,6.363-2.125,1.832-2.063,3.771-4.245,8.334-2.122,1.763.82,3.431,1.789,5.061,2.737,5.63,3.272,10.8,6.279,17.838,1.937,1.115-.688,2.338-3.279-.616-5.3ZM78.507,174.46,50.179,202.1a85.847,85.847,0,0,0-20.26,11.647c-1.184,1.428-2.473,4.164,3.1,2.94s11.484-2.262,12.531-.451c.459.794.125,1.772-.233,2.82-.459,1.345-.957,2.806.13,4.138q1.935,2.372,13.014-15.081L87.916,190.74l-9.409-16.28Z"/><path class="k" d="M150.3,87.332l-8.647-1.483C128.036,134,58.047,166.823,53.751,184.823c-1.576,6.6,3.175,9.939.721,11.949L65.712,205c1.9-2.221,5.965,1.841,14.447-1S150.3,144.348,150.3,87.332Z"/><path class="l" d="M138.75,79.162l26.934-1.883a4,4,0,0,1,4.27,3.711l.409,5.858c16.274,12.523,56.607,49.945,67.118,119.609a20.943,20.943,0,0,1-2.488,14.369c-1.091,2.142-1.995,3.916-1.59,6.157l-14.709,4.06c0-4.06-11.165-5.736-14.045-16.276-1.618-5.919-3.986-13.313-6.816-21.538-.267,10.893-2.333,20.911-6.833,29.209-11.227,20.7-76.109-2-82.887-23.12-3.617-11.269,1.515-20.73,8.3-33.242,8.617-15.884,19.9-36.684,19.343-72.342l-.72-10.3A4,4,0,0,1,138.75,79.162Z"/></g></g></svg>