<svg xmlns="http://www.w3.org/2000/svg" width="190.347" height="207.696" viewBox="0 0 190.347 207.696"><defs><style>.a{fill:#474749;}</style></defs><g transform="translate(-2974.955 -2235.204)"><path class="a" d="M3164.2,2305.437l-48.62-27.448-75.044-42.5a2.147,2.147,0,0,0-2.467.229l-61.456,15.165a2.175,2.175,0,0,0-.548,4.006l.528.3v115.552a.541.541,0,0,0,.29.479l4.6,2.414a.54.54,0,0,0,.531-.016.527.527,0,0,0,.144-.134l5.379-1.281a.541.541,0,0,0,.416-.526V2261.594l49.342,27.856v23.826l-21.353,5.154-.006,0a.543.543,0,0,0-.139.056l0,0c-.007,0-.012.01-.019.014a.515.515,0,0,0-.1.081.373.373,0,0,0-.03.039.54.54,0,0,0-.056.083.465.465,0,0,0-.021.052.542.542,0,0,0-.027.092c0,.01-.007.018-.008.028s0,.021,0,.032-.006.028-.006.043v3.785a.535.535,0,0,0,.021.145.462.462,0,0,0-.015.051.539.539,0,0,0,.27.545l21.492,12.133v16.909a2.175,2.175,0,0,0,1.1,1.892l57.153,32.369v53.159a.541.541,0,0,0,.289.479l4.6,2.414a.539.539,0,0,0,.531-.015.527.527,0,0,0,.144-.134l5.379-1.281a.54.54,0,0,0,.416-.526v-47.665l55.043,31.174a2.174,2.174,0,0,0,3.247-1.892V2308.02a2.145,2.145,0,0,0-.989-2.583Zm-67.574,16.991,3.515,1.846v117.19l-3.515-1.846Zm-54.987,15.642,53.906,30.433v13.283l-53.906-30.53Zm53.906,26.378v2.717l-78.941-44.739v-2.544Zm67.045,22.209-22.439,5.416v-2.943l22.439-5.416Zm-.92-3.833-21.979,5.305-32.792-18.513V2351.9Zm-22.6,6.2v2.811L3106.9,2373.6v-2.741Zm-32.171-38.359v-27.215l53.94-13.31v70.977Zm-129.225-94.867,3.514,1.984v114.477l-3.514-1.846Zm4.6,116.546V2258.389l4.6,2.595v110.262Zm.7-118.549,56.292-13.89,118.025,66.631-56.292,13.891Zm112.571,68.548v21.912l-53.906-30.433v-21.912Zm-56.042-8.485,56.042,31.639v17.714l-78.021-44.047Zm61.719,127.695v-117.84l4.6-1.094v117.84Zm5.677-66.635,32.362,18.27.083.047a.613.613,0,0,0,.062.025c.016.006.03.013.046.018l.022.009a.544.544,0,0,0,.264,0l21.1-5.093v30.574l-53.94-30.549Z"/></g></svg>