<svg xmlns="http://www.w3.org/2000/svg" width="1041.119" height="492.188" viewBox="0 0 1041.119 492.188"><defs><style>.a{fill:#cafcec;}.b{fill:#b28b67;}.b,.c,.d,.e,.f,.g,.h,.i,.k,.l{fill-rule:evenodd;}.c{fill:#191847;}.d{fill:#997659;}.e{fill:#e4e4e4;}.f{fill:#97bf99;}.g{fill:#c1f5c3;}.h{fill:#b9d7e9;}.i{fill:rgba(0,0,0,0.2);}.j{opacity:0.708;}.k{fill:#99775a;}.l{fill:#996337;}</style></defs><g transform="translate(-934.958 -1433.813)"><path class="a" d="M-5633,1677s-19.312-217.984,765.422-204.031c349.205,6.209,267.24,10.88,267.4,11.109,2.167-.536-17.4,192.922-17.4,192.922Z" transform="translate(6568 249)"/><g transform="translate(1645 1433.813)"><g transform="translate(49.693)"><g transform="translate(8.214 15.605)"><path class="b" d="M138.134,40.03c-5.558,10.36-4.9,36.636,2.286,38.488,2.864.739,8.967-1.07,15.177-4.814l-3.9,27.579h23.018L166.793,64.35c4.419-5.188,7.41-11.546,6.91-18.669C172.264,25.156,143.691,29.671,138.134,40.03Z" transform="translate(-134.435 -31.27)"/></g><g transform="translate(0)"><path class="c" d="M175.017,37.924a7.185,7.185,0,0,0,1.5-2.787,28.338,28.338,0,0,0,.961-3.165c.482-2.157.487-4.638-1.051-6.313a7.241,7.241,0,0,0-4.8-2.077,8.817,8.817,0,0,0-3.4.432c-1.083.356-2.016,1.066-3.066,1.506a13.721,13.721,0,0,0-1.618-6.742,6.718,6.718,0,0,0-5-3.265,9.917,9.917,0,0,0-6.1,1.228c-.474.256-.944.525-1.394.829a3.9,3.9,0,0,1-1.208.666c-.493.115-.737-.169-1.056-.528a8.086,8.086,0,0,0-1.245-1.12,7.332,7.332,0,0,0-6.863-1.18,6.373,6.373,0,0,0-2.8,2.022c-.639.837-1.094,2.166-1.975,2.75-.374.247-.638-.081-.978-.323-.511-.364-1-.766-1.516-1.121a6.969,6.969,0,0,0-2.356-1.066c-1.234-.285-2.939-.219-3.292,1.4a6.7,6.7,0,0,0,.012,1.868c.059.839.12,1.678.193,2.518a18.346,18.346,0,0,0,.246,1.876,2.748,2.748,0,0,1,.122,1.289c-.178.417-1,.179-1.355.194a5.355,5.355,0,0,0-2.037.448,2.2,2.2,0,0,0-1.232,1.14,2.057,2.057,0,0,0-.035,1.073,3.163,3.163,0,0,1-.065,1.1c-.934-.46-4.171-1.482-4.578.192a2.613,2.613,0,0,0,.409,1.657,14.379,14.379,0,0,0,1.509,2.3,20.56,20.56,0,0,0,4.019,3.9,2.634,2.634,0,0,0-.688,4.411,3.261,3.261,0,0,0,2.4.7,5.246,5.246,0,0,1,.991-.079,2.337,2.337,0,0,0,.449.151,13.333,13.333,0,0,0,3.676-.466,12.126,12.126,0,0,0,5.6-2.931,1.727,1.727,0,0,1,1.3-.6c.481,0,.955.137,1.437.15a10.379,10.379,0,0,0,3.606-1.005,13.641,13.641,0,0,0,1.182,4.8c.533,1.172,1.647,1.343,2.741,1.445,3.5.33,7.011-.037,10.515-.033-3.392.766-6.9,1.083-10.258,1.984-1.519.408-.359,1.432.291,2.142a12.351,12.351,0,0,1,2.417,4.144c1.659-2.163,4.592-3.588,7.19-2.923,2.871.734,4.892,4.616,3.057,7.407-1.067,1.62-2.99,2.245-4.592,2.942,1.249,1.3,1.552,3.217,2.3,4.833A3.453,3.453,0,0,0,160.3,67.66a2,2,0,0,1,.908.362c.3.31.371.656.755.923a4.253,4.253,0,0,0,5.269-.407,3.439,3.439,0,0,0-.117-4.509c1.629-.679,4.6-1.552,3.948-4.089,3.529-.234,12.1-5.957,7.36-10.139,2.6-1.468,4.986-5.058,3.317-8.222" transform="translate(-119 -15)"/></g></g><g transform="translate(0 164.964)"><g transform="translate(37.078)"><path class="d" d="M195.283,187,159.192,304.992,141.708,405.336H128L146.474,187Z" transform="translate(-128 -187)"/></g><g transform="translate(62.897)"><path class="b" d="M140.94,187c-2.451,64.784.434,98.2.982,104.087s8.062,44.05,25.848,116.225L153.162,402.3C125.053,336.1,115.475,301.7,112.251,293s-11.786-44.027-25.687-106Z" transform="translate(-86.564 -187)"/></g><g transform="translate(90.155 209.401)"><path class="e" d="M136.21,410.147a1.919,1.919,0,0,1,2.65.978,22.026,22.026,0,0,1,1.587,6.458,61.62,61.62,0,0,1-.864,7.571H85.489s-2.109-6.971,2.434-7.527,7.548-1,7.548-1l25.143-11.209a.959.959,0,0,1,1.278.51l1.616,3.921s4.206,1.962,6.834,1.962A15.793,15.793,0,0,0,136.21,410.147Z" transform="translate(-85 -405.332)"/></g><g transform="translate(0 209.401)"><path class="e" d="M230.21,410.147a1.919,1.919,0,0,1,2.65.978,22.026,22.026,0,0,1,1.587,6.458,61.621,61.621,0,0,1-.864,7.571H179.489s-2.109-6.971,2.434-7.527,7.548-1,7.548-1l25.143-11.209a.959.959,0,0,1,1.277.51l1.616,3.921s4.206,1.962,6.834,1.962A15.793,15.793,0,0,0,230.21,410.147Z" transform="translate(-179 -405.332)"/></g><g transform="translate(46.941)"><path class="f" d="M185.216,187l-15.345,60.116H123L129.988,187Z" transform="translate(-123 -187)"/></g><g transform="translate(59.683)"><g transform="translate(0)"><path class="g" d="M167.6,187c7.574,22.7,2.877,60.116,2.877,60.116h-47.83L109.5,187Z" transform="translate(-109.499 -187)"/></g></g></g><g transform="translate(27.374 64.259)"><path class="h" d="M109.148,195.426c18.214,37.934,94.891,12.321,94.891,12.321,0-13.622-11.2-27.315-11.553-43.878-.34-15.767-3.288-63.538-15.591-79.676q-.337-1.093-.682-2.193l-.852.4c-.133-.137-.267-.27-.4-.4l-26.845,4.151c0,15.1-12.013,29.222-19.612,41.375-1.948,3.115-4.146,6.286-6.4,9.535C110.7,153.519,97.893,171.987,109.148,195.426Z" transform="translate(-104.791 -82)"/><g transform="translate(2.036 56.857)"><path class="b" d="M171.986,145.908c2.192-3.093,4.184-4.626,7.891-4.626,2.107,0,1.678.573.916,1.591a5.264,5.264,0,0,0-1.35,3.035c0,2.853,10.062,4.458,10.062,8.248s-14.746,9.428-18.266,9.428-1.444-14.584.747-17.676Zm29.1,26.216,3.494,18.557Q192,199.693,190.589,201.309c-.314.36-.687.806-1.106,1.307-2.772,3.316-7.575,9.061-10.83,8.409-7.848-1.571-11.954-12.374-10.5-16.69.38-.45,1.171-.015,2.283.6a10.382,10.382,0,0,0,5.867,1.717q3.333-.282,24.787-24.524Z" transform="translate(-167.863 -141.282)"/></g><g transform="translate(46.241 17.953)"><g transform="translate(0)"><path class="i" d="M151.2,100.719c9.415,39.258,5.58,72.367-30.2,102.4.42,1.509.672,2.41.672,2.41C163.677,176.173,163.7,140.6,151.2,100.719Z" transform="translate(-121 -100.719)"/></g></g></g></g><g class="j" transform="translate(880.083 1453.452)"><path class="k" d="M709.676,115.173H385.911V222.856H402.84V132.1h15.448v90.753h16.929V132.1h15.448v90.753h16.929V132.1h15.448v90.753H499.97V132.1h15.448v90.753h16.929V132.1h15.448v90.753h16.929V132.1H580.17v90.753H597.1V132.1h15.448v90.753h16.929V132.1h15.448v90.753h16.929V132.1H677.3v90.753h16.929V132.1h15.448v90.753h16.929V115.173Z" transform="translate(-0.413 0)"/><path class="l" d="M732.54,232.438H374.918V340.563H389.73V249.032H718.786v91.531H733.6V232.438Z" transform="translate(0 -4.405)"/></g></g></svg>