<svg xmlns="http://www.w3.org/2000/svg" width="182.5" height="216.078" viewBox="0 0 182.5 216.078"><defs><style>.a{fill:#474749;}.b{fill:none;stroke:#474749;stroke-linecap:round;stroke-linejoin:round;}</style></defs><g transform="translate(-1216 -1195.37)"><path class="a" d="M1398.384,1305.754v-18.562a2.226,2.226,0,0,0-.012-.23,2.32,2.32,0,0,0-1.162-2.245l-80.233-45.386,3.838-10.311a.615.615,0,0,0-.209-.759l-3.944-2.451a.787.787,0,0,0-1.079.481l-3.767,10.121-16.495-9.331,4.283-11.506a.615.615,0,0,0-.209-.759l-3.945-2.451a.787.787,0,0,0-1.079.481l-4.212,11.315-50.37-28.493a2.314,2.314,0,0,0-1.554-.261l-20.009,3.666a2.294,2.294,0,0,0-2.2,2,1.979,1.979,0,0,0-.025.311v19.648a2.282,2.282,0,0,0,.089.63v18.388a2.283,2.283,0,0,0-.089.63v19.649a2.284,2.284,0,0,0,.089.63v18.388a2.283,2.283,0,0,0-.089.63v19.649a2.283,2.283,0,0,0,.089.63v19.068a2.317,2.317,0,0,0,1.172,2.011l12.85,7.278.364.364h.279l13.348,7.559-8.748,1.6c-.667.122-.95,1.025-.414,1.325l10.176,5.713-7.573,20.345a.615.615,0,0,0,.209.759l3.944,2.451a.787.787,0,0,0,1.078-.481l7.509-20.173,16.516,9.273-8.046,21.616a.615.615,0,0,0,.209.759l3.944,2.451a.787.787,0,0,0,1.079-.481l9.246-24.84,5.1-.934,30.412,17.224.131.131.244.081,51.909,29.4a2.282,2.282,0,0,0,.485.368l12.2,6.912a2.312,2.312,0,0,0,2.546,1.373l20.342-3.727a2.31,2.31,0,0,0,1.9-2.274v-98.936A2.294,2.294,0,0,0,1398.384,1305.754Zm-2.658,99.27-19.417,3.557v-19.4l19.417-3.558Zm-157.154-206.857,24.943,14.109-18.924,3.467-24.942-14.109Zm98.152,187.637v-18.586l25.338,14.35v18.586Zm-26.211-14.845v-18.586l25.286,14.321v18.586Zm-26.211-14.845v-18.586l25.286,14.321v18.586Zm-52.422-29.69v-18.586l22.409,12.692-5.648,15.173-.286.052Zm57.3-99.63-.171.459-18.182,3.331-24.981-14.131,18.924-3.467Zm53.044,30.006-18.923,3.467-11.66-6.6,3.985-10.707,1.617-.3Zm26.237,14.842-18.924,3.467-24.982-14.131,18.923-3.467Zm26.275,14.864-18.923,3.467-25.021-14.154,18.924-3.467Zm-137.57,43.082v10.345l-3.185-1.788Zm-12.643-113.362Zm26.121,14.863Zm26.352,14.82Zm52.473,29.683Zm1.465,98.612-1.1-.626v-18.586l25.338,14.35v18.586Zm-2.029-40.446-25.286-14.321V1300.85l25.286,14.321Zm-39.317-41.916-10.039-5.686,4.895-13.15,3.553-.651,1.591.9Zm-37.731-1.721.686-1.843,16.025,9a.614.614,0,0,0,.414.061l.168-.031-.8,2.155-16.047-9.088Zm25.55,5.672,5.381-.986c.668-.122.95-1.025.414-1.325l-5.278-2.963,1.3-3.484,23.471,13.293v18.586l-25.286-14.321Zm-.925.169v8.105l-2.974-1.684,2.347-6.306Zm2.163-24.167-4.257,11.438-10.087-5.713v-13.779Zm-4.584,12.315-1.3,3.506-16.516-9.273,1.33-3.572Zm41.737,22.575-25.286-14.321v-18.586L1335.8,1288.1Zm-63.389-34.838-1.214,3.261v-3.948Zm10.967,25.859v15.108l-.483,1.3-16.516-9.273,5.152-13.84Zm.925,12.624v-12.1l3.719,2.107Zm26.211,2.745L1335.8,1327.4v18.586l-25.286-14.321Zm26.211,14.845,25.338,14.35v18.586l-25.338-14.35Zm25.338-6.361-25.338-14.35v-18.586l25.338,14.35Zm-78.684-58.337V1277l-5.48-3.1,4.233-11.371Zm-25.286,20.164,8.279,4.689-5.632,15.129-.356.065-2.291-1.3Zm39.133,40.749-2.611-1.479.548-.1c.668-.123.95-1.025.414-1.326l-7.512-4.218,5.119-13.752,16.406,9.292v18.586l-12.363-7Zm-28.3-69.03,8.042,4.515-4.225,11.35-14.646-8.295V1244.09l15.676,8.878-4.432.812C1268.666,1253.9,1268.384,1254.8,1268.919,1255.106Zm-11.754,7.046-25.287-14.321v-18.586l25.287,14.321Zm-12.181-5.836,25.286,14.321v4.475a.718.718,0,0,0-.076.008l-13.806,2.53c-.668.123-.95,1.025-.414,1.326l11.4,6.4-.678,1.822-21.711-12.3Zm105.949,78.591-1.1-.625V1315.7l25.338,14.35v18.586Zm24.233-25.573-24.233-13.724-1.1-.625V1276.4l25.338,14.35ZM1348.9,1294.46l-25.286-14.321v-18.586l25.286,14.321Zm-26.211-14.845-13.279-7.521,6.318-1.158c.668-.122.95-1.025.414-1.325l-8.636-4.849,3.791-10.185,11.391,6.451Zm-20.35-17.754-4.936-2.772v-12.381l8.735,4.947Zm-5.861-3.291-10.655-5.982,3.823-10.272,6.832,3.869Zm-16.63-6.718-4.669.855-2.883-1.633-1.1-.626v-18.586l13.295,7.529Zm-47.974,16.689,25.287,14.321v18.586l-25.287-14.321Zm38.392,50.493v9.485l-10.5-5.944,2.9-7.8Zm15.057,5.323,7.866-1.441,3.288,1.862v18.586l-15.055-8.526Zm12.078.945,25.286,14.321v18.586l-25.286-14.321Zm26.211,14.845,25.286,14.321v18.586l-25.286-14.321Zm-92.664-92.84-12.092-6.849v-18.586l12.092,6.849Zm14.03,48.306,13.979,7.917-10.2,1.87c-.667.122-.95,1.025-.414,1.326l9.166,5.146-2.9,7.782-9.63-5.454Zm26.211,33.431v-9.49l8,4.492-2.929,7.87-3.967-2.246Zm104.188,39.359-12.269-6.949v-18.492l12.269,6.949V1368.4Zm-12.269-46.246v-18.492l12.154,6.883v.714a.461.461,0,0,0,.115.3v17.542Zm-119.054-66.365v18.586l-25.286-14.321v-18.586Zm-13.106,30.812-12.092-6.849V1261.17l12.092,6.849Zm39.317-55.264v18.586l-25.286-14.321v-18.576l14.34,8.112Zm106.037,97.954v-18.708l19.417-3.558v18.709Zm-77.99-83.158,10.6-1.942-2.441,6.558Zm-26.237-14.842,16.552-3.033-3.812,10.24Zm-28.022-14.789v18.576l-25.286-14.321V1202.2Zm0,78.584v18.586l-25.286-14.321v-18.586Zm14.03,32.014,1.359-3.65,16.491,9.34-5.444,14.624-12.406-6.966Zm137.636,37.7-19.417,3.558v-18.478l19.417-3.558Zm0-19.417-19.417,3.558v-18.709l19.417-3.558Zm-.116-39.276-19.417,3.557v-18.362l19.417-3.558Zm-86.315-62.924-12.232,2.241-7.08-4,4.358-11.707,16.495,9.331Zm-27.129,110.784-6.5-3.65,5.436-14.6,2.276,1.289v18.586l-1.1-.625A.661.661,0,0,0,1282.167,1353.969Zm80.948,28.289,12.269,6.949v18.586l-12.269-6.949Zm32.611,2.423-19.417,3.558V1369.3l19.417-3.558Zm-176.864-84.215,12.092,6.849V1325.9l-12.092-6.849Z"/><line class="b" transform="translate(1244.523 1216.226)"/><line class="b" transform="translate(1270.644 1231.088)"/><line class="b" transform="translate(1296.996 1245.908)"/><line class="b" transform="translate(1349.469 1275.591)"/></g></svg>