<svg xmlns="http://www.w3.org/2000/svg" width="521.392" height="568.911" viewBox="0 0 521.392 568.911"><defs><style>.a{fill:#474749;}</style></defs><g transform="translate(-2974.955 -2235.204)"><path class="a" d="M3493.318,2427.583,3360.139,2352.4l-205.558-116.42a5.955,5.955,0,0,0-5.935.037,5.844,5.844,0,0,0-.823.589l-168.338,41.539a5.957,5.957,0,0,0-1.5,10.972l1.448.818v316.516a1.479,1.479,0,0,0,.793,1.311l12.589,6.613a1.468,1.468,0,0,0,.688.17,1.484,1.484,0,0,0,.765-.213,1.45,1.45,0,0,0,.4-.366l14.733-3.508a1.481,1.481,0,0,0,1.139-1.44V2307.492l135.155,76.3v65.264l-58.489,14.118-.018.006a1.489,1.489,0,0,0-.381.154l-.008.007c-.019.01-.031.027-.051.039a1.43,1.43,0,0,0-.268.221,1,1,0,0,0-.083.108,1.553,1.553,0,0,0-.153.229,1.181,1.181,0,0,0-.058.142,1.464,1.464,0,0,0-.075.253c-.006.026-.019.05-.023.076s0,.058,0,.088-.017.077-.017.117v10.367a1.465,1.465,0,0,0,.057.4,1.372,1.372,0,0,0-.042.139,1.478,1.478,0,0,0,.738,1.493l58.869,33.235v46.318a5.957,5.957,0,0,0,3.021,5.183l156.551,88.664v145.612a1.482,1.482,0,0,0,.792,1.311l12.589,6.612a1.438,1.438,0,0,0,1.848-.408l14.734-3.509a1.479,1.479,0,0,0,1.138-1.44V2668.025l150.773,85.39a5.955,5.955,0,0,0,8.892-5.183V2434.66a5.873,5.873,0,0,0-2.708-7.076Zm-185.1,46.542,9.627,5.057v321l-9.627-5.057ZM3157.6,2516.972l147.657,83.36v36.385L3157.6,2553.089Zm147.657,72.252v7.441l-216.231-122.547v-6.968Zm183.648,60.835-61.463,14.835v-8.062L3488.908,2642Zm-2.52-10.5-60.205,14.532-89.822-50.71v-48.521Zm-61.9,16.973v7.7l-88.123-49.942v-7.508Zm-88.123-105.072v-74.545l147.752-36.458v194.416ZM2982.394,2291.6l9.625,5.435v313.571l-9.625-5.058Zm12.589,319.237v-312.13l12.588,7.109v302.024Zm1.927-324.725,154.193-38.048,323.29,182.513L3320.2,2468.63Zm308.35,187.763V2533.9l-147.657-83.36V2390.52Zm-153.508-23.241L3305.26,2537.3v48.52l-213.711-120.651Zm169.058,349.776V2477.633l12.59-3v322.783Zm15.551-182.524L3425,2667.934l.229.13a1.632,1.632,0,0,0,.168.069c.043.017.082.036.126.05.021.007.04.019.061.025a1.48,1.48,0,0,0,.722.006l57.8-13.951v83.748l-147.752-83.679Z" transform="translate(0 -0.001)"/></g></svg>