<svg xmlns="http://www.w3.org/2000/svg" width="557.816" height="412.58" viewBox="0 0 557.816 412.58"><defs><style>.a{fill:#dd8b67;}.a,.b,.c,.d,.e,.f,.g,.h,.i,.j,.k,.l,.m,.n,.o,.p,.q,.r,.s{fill-rule:evenodd;}.b{fill:#b28b67;}.c{fill:#bdbdbd;}.d{fill:#998675;}.e{fill:#c7b299;}.f{fill:#191847;}.g{fill:#dde3e9;}.h{fill:#2f3676;}.i{fill:rgba(0,0,0,0.1);}.j{fill:rgba(255,255,255,0.2);}.k{fill:#bababa;}.l{fill:#2a36a3;}.m{fill:rgba(0,0,0,0.2);}.n{fill:#c5cfd6;}.o{fill:#1f28cf;}.p{fill:#e4e4e4;}.q{fill:#2b85ff;}.r{fill:#ab9949;}.s{fill:#cbb657;}</style></defs><g transform="translate(-245 -3313.09)"><g transform="translate(188.808 3288.011)"><path class="a" d="M234.9,222.8s3.9-14.1,19.1-10.7,14.1,10.1,14.1,10.1V424.8H262V222.2s0-5.1-8.4-6.2-14.6,7.9-14.6,7.9Z"/><g transform="translate(103.941 -15.302) rotate(13)"><path class="b" d="M92.4,40.5c5.8,10.8,5.1,38.2-2.4,40.1-3,.8-9.3-1.1-15.8-5l4.1,28.8h-24l8.3-38.5c-4.6-5.4-7.7-12-7.2-19.5C56.8,25,86.6,29.7,92.4,40.5Z"/><path class="c" d="M75.1,48.4c2.1-3.1,4.1-5.4,6.7-6.8,10.6.2,11.8-1.7,11.8-8.1-1.7-1.2-7.7-3.3-14.5-3.9a17.462,17.462,0,0,0-11.4.8c-4.8,1.4-8.9,4.3-10.7,9.9-6.5,11.3-1.6,23.1,5.1,27.1,1.8-2.1,3.3-4.2,4.7-6.1A6.011,6.011,0,0,1,71,51h.7c.1,4.1.8,18.2,2.4,23,1.9,5.7,13,7.1,16.9,7.1,3.3,0,3.2-3.2,3.1-5.4v-.9c0-.6-.8-.6-1.6-.6-1.1,0-2.4,0-2.4-1.3,0-2.2,5-3.6,6.1-5.1,1.3-1.8,1.7-4.1-.2-4.1-2.6,0-7.6,3.8-13.5,3.8C76.5,67.6,75.2,48.6,75.1,48.4Z"/></g><g transform="translate(0 187)"><path class="d" d="M128,0l36.3,127.2L190.8,221H210L181.9,0Z"/><path class="e" d="M118.3,0c-.8,65.6-3.7,101.3-4.6,107.3S99.5,151.2,73.8,221h20Q143,120.5,148.7,107.3C152.5,98.5,164.3,62.7,182,0Z"/><g transform="translate(72 199)"><path class="f" d="M0,40,1,19H22C36.9,29.5,61,36,61,36v4H23L10,38v2Z"/></g><g transform="translate(188 199)"><path class="f" d="M0,40,1,19H22C36.9,29.5,61,36,61,36v4H23L10,38v2Z"/></g></g><g transform="translate(22 82)"><path class="b" d="M194,89.1l28.3,27.6a88.991,88.991,0,0,1,20.3,11.6c1.2,1.4,2.5,4.2-3.1,2.9-5.6-1.2-11.5-2.3-12.5-.5-.5.8-.1,1.8.2,2.8.5,1.3,1,2.8-.1,4.1-1.3,1.6-5.6-3.4-13-15.1l-29.5-17.4,9.4-16ZM36,173.7c7.4-5,18-13.9,19.4-16.8C58.3,151,68.3,93,68.3,93l20.9.1s-19.4,62.5-20.9,66.3c-2,5,1.4,12.2,3.7,17.1.4.8.7,1.5,1,2.1-3.2,1.4-4.7-.3-6.4-2.1-1.8-2.1-3.8-4.2-8.3-2.1-1.8.8-3.4,1.8-5.1,2.7-5.6,3.3-10.8,6.3-17.8,1.9-1.1-.7-2.3-3.3.6-5.3Z"/><g transform="translate(6.945 -14.5) rotate(5)"><path class="f" d="M122,9.2,130.5,7q27.15,53.7,86.5,94.2l-25,36.4C151.3,97.7,124.7,55.2,122,9.2Z"/></g><path class="g" d="M90,114h77S140.2,48.9,140.2,3.5L117,0C98.8,29.4,93.6,65.5,90,114Z"/><path class="h" d="M55,147C63.4,52,116.5,0,116.5,0H118c2.7.1,8.3.3,8.3.3l5.6,16c.9,29.3,10.4,118.2,10.4,118.2H91.9c.1,4.1.3,8.2.6,12.4H55Z"/><path class="i" d="M92,135a257.8,257.8,0,0,1,3.8-49.5c1.4,17.9,4.2,39.4,10.2,49.5Z"/><path class="j" d="M103.1,104,128,92.4V104Z"/></g></g><g transform="translate(562.074 3380.171)"><g transform="translate(126.572 21.251) rotate(11)"><g transform="translate(0 1.922)"><path class="b" d="M47.374,38.464c-5.459,10.166-4.8,35.956,2.259,37.745,2.824.753,8.754-1.035,14.872-4.706L60.645,98.611h22.59L75.423,62.372c4.33-5.083,7.248-11.3,6.777-18.355C80.883,23.874,52.833,28.3,47.374,38.464Z" transform="translate(-43.745 -29.871)"/></g><g transform="translate(2.593)"><g transform="translate(0 2.138)"><path class="k" d="M51.489,31.983c.471-.282,1.6-.941,2.165-1.224.094-.094,1.035-.659,1.035-.659.659.188,2.636,1.13,2.824,1.788,0,.094.094.094.094.188a8.344,8.344,0,0,1,.753,1.6,23.548,23.548,0,0,1,1.412,3.577c.847,2.353,1.6,4.8,2.353,7.154.753,2.447,1.318,4.989,1.977,7.436.941,3.577,2.165,7.06,3.2,10.636a19.07,19.07,0,0,1,.753,6.871v.094h0c0,.377-.094.753-.094,1.035s-.094.659-.094.941c-.847-1.788-1.506-3.671-2.259-5.553-.094-.188-.094-.377-.188-.565-.188-.377-.471-.753-.659-1.13-1.506-2.353-3.012-4.612-4.424-6.965a108.874,108.874,0,0,0-8.189-12.425c-.941-1.13-1.788-2.259-2.73-3.483a7.78,7.78,0,0,1-1.506-1.883c-.377-.471-1.788-2.165-1.318-3.2A35.122,35.122,0,0,1,51.489,31.983Z" transform="translate(-46.499 -30.1)"/></g><g transform="translate(6.694)"><path class="l" d="M53.883,30.72c-.471.188-.282-.847.188-1.224C56.33,27.8,64.99,27.143,72.52,28.743a36.643,36.643,0,0,1,14.872,6.965c3.577,3.012,6.118,7.813,7.436,12.519a38.6,38.6,0,0,1,.847,15.06c-.188,1.13-.565,2.165-.753,3.2a24.209,24.209,0,0,1-.753,3.577,20.565,20.565,0,0,0-.847,2.165,4.339,4.339,0,0,0,.094,2.447,28.524,28.524,0,0,0,1.13,4.047c.753,1.977,1.6,3.859,2.165,5.836.753,2.73,3.859,11.578,1.6,14.025l-36.9-.6c1.13-3.012-2.445-5.991-1.787-9.191.377-1.883.565-6.024.659-6.212.941-6.777,2.918-10.072,4.142-11.2,1.224-1.224,2.824-1.506,2.918-2.541.377-4.236-1.318-8.283-2.541-12.236C63.3,51.9,62.26,47.1,60.754,42.391,59.907,40.415,56.519,29.872,53.883,30.72Z" transform="translate(-53.61 -27.829)"/></g><g transform="translate(19.768 7.88)"><path class="m" d="M71.642,51.354c.377-7.154,0-9.977-1.694-15.154h1.035c1.6,2.071,2.918,8.471,1.412,15.154h-.753Zm7.907-9.319c-1.412,10.636-1.788,16.66-9.13,28.238l.753.282C78.7,60.485,79.831,52.2,80.207,42.13l-.659-.094Zm-.471,25.508C87.643,61.52,89.055,57.1,92.161,49.66l.659.282C90.749,57.379,88.3,63.214,79.737,68.015l-.659-.471Zm7.813,5.177.659.847c-6.871,1.412-9.13,10.26-19.108,14.4l-.941-.565c11.389-6.024,10.354-11.86,19.39-14.684Z" transform="translate(-67.5 -36.2)"/></g></g></g><g transform="translate(-0.714 177.652)"><g transform="translate(128.64 39.533)"><path class="n" d="M247.267,0h-72.76L165,116.717H273.246Z" transform="translate(-165)"/><g transform="translate(46.499)"><path class="i" d="M250.168,0h-22.4L214.4,116.717h61.747Z" transform="translate(-214.4)"/></g></g><g transform="translate(19.498 14.023)"><path class="b" d="M83.724,63.564c8.189,17.319,20.9,59.394,20.9,59.394L93.8,127.946S66.31,83.707,49.462,53.492c.753,6.777,1.6,14.5,2.353,22.5,1.788,19.108,0,60.335-.941,72.2-.565,7.53-10.73,5.93-11.672,0S20,48.315,20,28.36c0-6.683,12.99-12.613,20.708-8,5.365-5.648,15.437-8.942,21.179.471C65.652,26.854,74.405,43.7,83.724,63.564Z" transform="translate(-20 -14.898)"/></g><g transform="matrix(0.94, 0.342, -0.342, 0.94, 42.377, 6.983)"><path class="o" d="M91.385,72.622,26.249,2.5C12.977-7.857-4.624,16.9,1.117,23.676c12.9,15.343,66.83,60.806,70.689,65.418Z"/></g><g transform="translate(88.44 106.673) rotate(30)"><path class="p" d="M17.519,1.8A1.94,1.94,0,0,1,19.684.008,23.559,23.559,0,0,1,25.99,1.8c2.165,1.318,6.024,4.424,6.024,4.424C30.508,8.762,5.471,52.154,5.471,52.154s-6.965-1.6-5.177-5.742,2.824-6.871,2.824-6.871L5.941,12.715a.935.935,0,0,1,1.035-.847l4.142.565s3.765-2.636,4.989-4.8A17.087,17.087,0,0,0,17.519,1.8Z"/></g><g transform="translate(0 136.883)"><g transform="translate(0 0)"><path class="p" d="M-192.531,24.108a1.951,1.951,0,0,1,2.636.941,20.893,20.893,0,0,1,1.6,6.307,60.809,60.809,0,0,1-.847,7.436H-242.23s-2.071-6.871,2.353-7.342c4.424-.565,7.436-.941,7.436-.941L-207.78,19.5a.934.934,0,0,1,1.224.471l1.6,3.859s4.142,1.883,6.683,1.883A15.865,15.865,0,0,0-192.531,24.108Z" transform="translate(242.714 -19.423)"/></g></g><g transform="translate(16.862)"><path class="q" d="M17.2,34.262c0,25.038,11.86,83.3,11.86,88.856H54.568S48.921,45.087,50.615,44.24c1.6-.847,66.924,6.495,86.409,6.495,28.332,0,40-17.79,40.945-50.734H122.057C110.668,1.224,51.368,13.178,29.248,17.319,19.836,19.108,17.2,27.391,17.2,34.262Z" transform="translate(-17.2)"/></g></g><g transform="translate(27.117 74.379)"><g transform="translate(0 67.881)"><path class="b" d="M218.777,160.868c-6.965-4.706-16.943-13.084-18.261-15.813C197.787,139.5,183.95,67.4,183.95,67.4l-20.614.094s23.532,76.337,25.038,79.914c1.883,4.706-1.318,11.483-3.483,16.1-.376.753-.659,1.412-.941,1.977,3.012,1.318,4.424-.282,6.024-1.977,1.694-1.977,3.577-3.953,7.813-1.977,1.694.753,3.2,1.694,4.8,2.541,5.271,3.106,10.166,5.93,16.755,1.788,1.035-.659,2.165-3.106-.565-4.989ZM53.584,91.026,26.946,117A83.764,83.764,0,0,0,7.839,127.924c-1.13,1.318-2.353,3.953,2.918,2.73s10.825-2.165,11.766-.471c.471.753.094,1.694-.188,2.636-.471,1.224-.941,2.636.094,3.859,1.224,1.506,5.271-3.2,12.236-14.213l27.767-16.378-8.848-15.06Z" transform="translate(-6.853 -67.4)"/></g><g transform="translate(32.129 1.643) rotate(5)"><path class="r" d="M82.581.659,74.392,0C65.544,46.31,2.668,82.832.126,100.057c-.941,6.307,3.765,9.036,1.694,11.107l11.2,6.777c1.6-2.259,5.742,1.224,13.46-2.165C34.106,112.388,87.193,54.123,82.581.659Z"/></g><g transform="translate(73.568 0)"><path class="s" d="M114.933-2.913,140.253-4.7A3.783,3.783,0,0,1,144.3-1.218l.376,5.553C160.02,16.1,197.953,51.3,207.836,116.911a19.9,19.9,0,0,1-2.353,13.554c-1.035,1.977-1.883,3.671-1.506,5.836L190.14,140.16c0-3.859-10.542-5.365-13.178-15.343-1.506-5.553-3.765-12.519-6.4-20.237-.282,10.26-2.165,19.673-6.4,27.485-10.542,19.484-71.631-1.883-78.031-21.743-3.389-10.636,1.412-19.484,7.813-31.25,8.095-14.966,18.731-34.545,18.166-68.054l-.753-9.977A3.719,3.719,0,0,1,114.933-2.913Z" transform="translate(-85.011 4.716)"/></g></g></g></g></svg>