<svg xmlns="http://www.w3.org/2000/svg" viewBox="0 0 508.3 701"><defs><style>.cls-1{fill:#e9b9c9;}.cls-2{fill:#474749;}.cls-3{fill:none;stroke:#474749;stroke-linecap:round;stroke-linejoin:round;}</style></defs><title>Layer 2</title><g id="Layer_2" data-name="Layer 2"><g id="Layer_2-2" data-name="Layer 2"><path class="cls-1" d="M489.41,488.71c-45.78-63.86-82-141.85-96.08-163.89-37.89-59.12-62.69-146-74.59-189.89C302.35,74.46,312.52,65.42,295,20.77A71.24,71.24,0,0,0,282.31,0H130.93C124,10.54,120,22.1,117.55,33.21c-6.78,30.51-23.74,71.2-64.43,109.63S0,217.44,0,243.44s10.17,55.38,39.56,88.16,71.21,99.46,81.38,127.72,28.26,117.55,57.64,158.24,84.21,72.9,160.5,82.51C397,707.36,455.5,670.68,486,635.64S513.8,522.74,489.41,488.71Z"/><path class="cls-2" d="M424.56,359.41V324.53c0-.14,0-.28,0-.43a4.36,4.36,0,0,0-2.18-4.21L271.6,234.61l7.21-19.38a1.13,1.13,0,0,0-.39-1.42L271,209.2a1.48,1.48,0,0,0-2,.73c0,.06-.05.12-.07.17l-7.08,19-31-17.53L239,190a1.17,1.17,0,0,0-.39-1.43l-7.42-4.6a1.47,1.47,0,0,0-2,.73l-.06.17-7.92,21.26-94.64-53.54a4.36,4.36,0,0,0-2.92-.49L86.06,159a4.3,4.3,0,0,0-4.14,3.75,3.79,3.79,0,0,0,0,.58v36.92A4.39,4.39,0,0,0,82,201.4V236a4.26,4.26,0,0,0-.17,1.18v36.92a4.26,4.26,0,0,0,.17,1.18v34.55a4.39,4.39,0,0,0-.17,1.19v36.91a4.39,4.39,0,0,0,.17,1.19V384.9a4.36,4.36,0,0,0,2.2,3.78l24.14,13.67.69.68h.52l25.08,14.21-16.44,3c-1.25.23-1.78,1.93-.77,2.49l19.12,10.74L122.35,471.7a1.15,1.15,0,0,0,.39,1.43l7.41,4.61a1.48,1.48,0,0,0,2-.73,1.34,1.34,0,0,0,.07-.18l14.11-37.9,31,17.42L162.2,497a1.17,1.17,0,0,0,.39,1.43L170,503a1.48,1.48,0,0,0,2-.73l.06-.17,17.38-46.68,9.58-1.75L256.13,486l.25.25.46.15,97.53,55.24a4.37,4.37,0,0,0,.91.69l22.93,13a4.35,4.35,0,0,0,4.78,2.58l38.22-7a4.35,4.35,0,0,0,3.57-4.28V360.76A4.39,4.39,0,0,0,424.56,359.41Zm-5,186.52-36.49,6.68V516.16l36.49-6.69ZM124.28,157.26l46.87,26.51-35.56,6.51L88.73,163.77ZM308.7,509.82V474.89l47.61,27v34.92Zm-49.25-27.9V447L307,473.91v34.92ZM210.2,454V419.11L257.72,446v34.92Zm-98.49-55.78V363.33l42.11,23.84-10.61,28.51-.54.1Zm107.67-187.2-.32.86-34.17,6.26L138,191.61l35.56-6.51ZM319,267.43l-35.55,6.51-21.91-12.39,7.49-20.12,3-.56Zm49.3,27.88-35.56,6.52-46.94-26.56,35.56-6.51Zm49.37,27.93-35.56,6.51-47-26.59,35.55-6.51ZM159.22,404.19v19.44l-6-3.36ZM335.41,488l-2.08-1.17V451.92l47.61,27v34.92Zm-3.82-76-47.51-26.92V350.19l47.51,26.91Zm-73.87-78.76-18.86-10.68,9.19-24.71,6.68-1.23,3,1.7ZM186.82,330l1.29-3.47,30.11,16.91a1.12,1.12,0,0,0,.78.11l.32-.06-1.51,4.05-30.15-17.07Zm48,10.65,10.11-1.85c1.26-.23,1.79-1.93.78-2.49l-9.92-5.57,2.44-6.55,44.1,25v34.92l-47.51-26.91Zm-1.74.32v15.23l-5.58-3.16,4.41-11.85Zm4.07-45.41-8,21.49-18.95-10.73V280.47Zm-8.61,23.14-2.45,6.59-31-17.42,2.5-6.71ZM307,361.16l-47.51-26.91V299.33L307,326.24ZM187.86,295.7l-2.28,6.13v-7.42Zm20.61,48.59v28.38l-.91,2.44-31-17.43,9.68-26ZM210.21,368V345.27l7,4Zm49.25,5.16L307,400.08V435l-47.51-26.91Zm49.25,27.89,47.6,27v34.92l-47.6-27Zm47.6-11.95-47.6-27V327.22l47.6,27ZM208.47,279.49v25.89l-10.3-5.84,8-21.36ZM161,317.38l15.55,8.81-10.58,28.43-.67.12L161,352.3ZM234.48,394l-4.9-2.78,1-.19c1.25-.23,1.78-1.93.78-2.49l-14.12-7.93,9.62-25.84,30.83,17.46V407.1L234.49,394ZM181.3,264.24l15.11,8.49-7.94,21.32L161,278.47V243.54l29.45,16.69-8.33,1.52c-1.25.23-1.78,1.93-.77,2.49Zm-22.08,13.24-47.51-26.91V215.65l47.51,26.91Zm-22.89-11,47.51,26.91v8.41h-.14l-25.94,4.75c-1.26.23-1.79,1.93-.78,2.49l21.42,12-1.27,3.43-40.8-23.11ZM335.4,414.18,333.33,413V378.09l47.61,27V440Zm45.54-48.05L335.4,340.35l-2.07-1.18V304.25l47.61,27Zm-49.35-27.94-47.51-26.92V276.35l47.51,26.91Zm-49.25-27.9-24.95-14.13L269.26,294c1.26-.22,1.79-1.92.78-2.49l-16.22-9.11,7.12-19.13,21.4,12.12Zm-38.23-33.36-9.28-5.21V248.46l16.41,9.3Zm-11-6.18-20-11.24,7.19-19.3,12.83,7.27Zm-31.24-12.62-8.78,1.61-5.41-3.07-2.08-1.18V220.57l25,14.15Zm-90.14,31.36,47.51,26.91v34.92l-47.51-26.91Zm72.14,94.87v17.82L164.13,391l5.46-14.66Zm28.29,10,14.78-2.7,6.17,3.49v34.92l-28.28-16Zm22.69,1.78,47.52,26.91V458l-47.52-26.91ZM284.08,424l47.52,26.91v34.92L284.08,459ZM110,249.59,87.26,236.72V201.8L110,214.67Zm26.36,90.76,26.27,14.88-19.18,3.51c-1.25.23-1.78,1.93-.77,2.49l17.22,9.67-5.44,14.62-18.1-10.24Zm49.25,62.82V385.34l15,8.44-5.5,14.79-7.46-4.22Zm195.76,74-23.06-13.06V429.32l23.06,13.06Zm-23.06-86.9V355.49l22.84,12.93v1.34a.87.87,0,0,0,.22.57v33ZM134.6,265.54v34.92L87.09,273.55V238.63ZM110,323.43,87.25,310.56V275.64L110,288.51Zm73.87-103.84v34.92l-47.51-26.9V192.7l26.95,15.24Zm199.24,184V368.49l36.49-6.69V397ZM236.54,247.39l19.92-3.65-4.59,12.33Zm-49.29-27.88,31.1-5.7-7.16,19.24Zm-52.65-27.8v34.91L87.09,199.71V164.84Zm0,147.66v34.92L87.09,347.38V312.46ZM161,399.52l2.55-6.86,31,17.55-10.23,27.48L161,424.6Zm258.61,70.83L383.08,477V442.32l36.49-6.68Zm0-36.48-36.49,6.69V405.4l36.49-6.68Zm-.22-73.8-36.48,6.69v-34.5l36.48-6.69ZM257.17,241.84l-23,4.21-13.31-7.52,8.19-22,31,17.54ZM206.2,450,194,443.14,204.2,415.7l4.27,2.42v34.93l-2.07-1.18a1.23,1.23,0,0,0-.06-1.75l-.14-.12Zm152.1,53.15,23.05,13.06v34.92L358.3,538.07Zm61.27,4.56-36.48,6.68V478.81l36.48-6.69ZM87.25,349.47,110,362.34v34.92L87.25,384.39Z"/><line class="cls-3" x1="135.47" y1="191.19" x2="135.47" y2="191.19"/><line class="cls-3" x1="184.55" y1="219.11" x2="184.55" y2="219.11"/><line class="cls-3" x1="234.06" y1="246.96" x2="234.06" y2="246.96"/><line class="cls-3" x1="332.65" y1="302.73" x2="332.65" y2="302.73"/></g></g></svg>