<svg xmlns="http://www.w3.org/2000/svg" viewBox="0 0 1025.4 1363.63"><defs><style>.cls-1{fill:#c1f5c3;opacity:0.6;}.cls-2{fill:#474749;}</style></defs><title>Asset 18</title><g id="Layer_2" data-name="Layer 2"><g id="Layer_2-2" data-name="Layer 2"><path class="cls-1" d="M873.31,308.14C815,287.15,584.08,184.52,497.77,18.91Q492.63,9,487,0H25.71c-62.39,102.68,1.66,271,55.71,435.27C128.09,577.14,24.08,691.38,87.25,812c12.83,24.5,50.15,40.82,216.92,170.28,170.09,132,148.12,344,321.89,377.87,48.45,9.43,114.23,8.19,161-114.29,43.15-113.13-24.49-129.46,128.29-347.55,48.35-69,84.31-113.32,110.1-148V419.64C978,356.5,910.63,321.58,873.31,308.14Z"/><path class="cls-2" d="M818.43,546.26,644.49,448.07,376,296a7.77,7.77,0,0,0-7.75.05,7.33,7.33,0,0,0-1.08.77L147.32,351.08a7.78,7.78,0,0,0-2,14.33l1.89,1.07v413.4a1.92,1.92,0,0,0,1,1.71l16.44,8.64a1.87,1.87,0,0,0,.9.22,2,2,0,0,0,1-.28,1.7,1.7,0,0,0,.52-.48l19.24-4.58a1.93,1.93,0,0,0,1.49-1.88V389.41L364.4,489.07v85.24L288,592.75h0a2.21,2.21,0,0,0-.5.21h0l-.07.06a1.87,1.87,0,0,0-.35.28l-.11.15a3,3,0,0,0-.2.29,1.46,1.46,0,0,0-.07.19,2.07,2.07,0,0,0-.1.33l0,.1v.11s0,.1,0,.16v13.54a1.86,1.86,0,0,0,.07.52,1.21,1.21,0,0,0-.05.18,1.93,1.93,0,0,0,1,2l76.89,43.41v60.49a7.77,7.77,0,0,0,4,6.77L572.81,837.3v190.18a1.94,1.94,0,0,0,1,1.71l16.44,8.64a1.89,1.89,0,0,0,2.42-.53l19.24-4.59a1.93,1.93,0,0,0,1.49-1.88V860.3L810.36,971.83A7.77,7.77,0,0,0,822,965.06V555.5a7.67,7.67,0,0,0-3.53-9.24ZM576.67,607.05l12.58,6.6v419.26l-12.58-6.61ZM380,663,572.81,771.89v47.52L380,710.18Zm192.86,94.37v9.72L290.39,607v-9.1Zm239.86,79.45-80.28,19.38V845.68l80.28-19.37Zm-3.29-13.71-78.64,19L613.43,775.87V712.5Zm-80.85,22.17v10.06l-115.1-65.23v-9.81ZM613.43,708.06V610.69l193-47.61V817ZM151.12,368.66l12.57,7.09V785.31l-12.57-6.61Zm16.44,417V377.94L184,387.22V781.69Zm2.52-424.12,201.39-49.7L793.71,550.17l-201.39,49.7ZM572.81,606.72v78.4L380,576.24V497.85Zm-200.5-30.35,200.5,113.19v63.37L293.68,595.35Zm220.81,456.84V611.63l16.44-3.92V1029.3Zm20.31-238.4L729.2,860.18l.3.17a.85.85,0,0,0,.22.09l.16.07.08,0a2,2,0,0,0,.95,0l75.49-18.22V951.71l-193-109.29Z"/></g></g></svg>